<?xml version="1.0" encoding="UTF-8"?>
<svg xmlns="http://www.w3.org/2000/svg" xmlns:xlink="http://www.w3.org/1999/xlink" width="1600pt" height="1600pt" viewBox="0 0 1600 1600" version="1.1">
<g id="surface1">
<path style="fill:none;stroke-width:1;stroke-linecap:butt;stroke-linejoin:miter;stroke:rgb(50.196078%,50.196078%,50.196078%);stroke-opacity:1;stroke-miterlimit:4;" d="M 1002.585938 917.949219 L 1014.75 922.617188 L 1070.152344 940.738281 L 1142.042969 982.835938 L 1215.160156 1026.058594 L 1222.242188 1029.4375 L 1238.429688 1036.984375 "/>
<path style="fill:none;stroke-width:1;stroke-linecap:butt;stroke-linejoin:miter;stroke:rgb(50.196078%,50.196078%,50.196078%);stroke-opacity:1;stroke-miterlimit:4;" d="M 1078.28125 606.125 L 1080.273438 617.128906 L 1085.738281 639.488281 L 1095.074219 678.5625 L 1100.058594 698.628906 L 1102.714844 708.402344 L 1105.484375 718.207031 L 1107.332031 722.53125 L 1109.660156 727.367188 L 1112.988281 733.046875 L 1117.351562 739.417969 L 1134.609375 755.425781 L 1148.117188 766.621094 L 1158.324219 775.546875 L 1163 780.371094 L 1167.070312 785.742188 L 1171.070312 793.023438 L 1175.457031 803.214844 L 1197.070312 859.300781 L 1201.324219 870.136719 L 1218.847656 916.171875 L 1221.738281 924.109375 L 1247.199219 990.261719 L 1248.8125 995.632812 L 1250.023438 1002.011719 L 1250.214844 1007.816406 L 1249.246094 1014.128906 L 1246.644531 1022.332031 L 1243.660156 1029.304688 L 1241.453125 1033.226562 L 1238.429688 1036.984375 "/>
<path style="fill:none;stroke-width:1;stroke-linecap:butt;stroke-linejoin:miter;stroke:rgb(50.196078%,50.196078%,50.196078%);stroke-opacity:1;stroke-miterlimit:4;" d="M 1082.890625 579.746094 L 1080.152344 588.027344 L 1078.328125 596.476562 L 1078.222656 598.921875 L 1078.144531 602.589844 L 1078.28125 606.125 "/>
<path style="fill:none;stroke-width:1;stroke-linecap:butt;stroke-linejoin:miter;stroke:rgb(50.196078%,50.196078%,50.196078%);stroke-opacity:1;stroke-miterlimit:4;" d="M 1434.734375 394.296875 L 1430.398438 394.832031 L 1404.464844 397.765625 L 1395.640625 399.1875 L 1387.300781 401.234375 L 1381.019531 403.402344 L 1374.796875 406.136719 L 1349.230469 419.613281 L 1319.828125 435.808594 L 1290.550781 451.53125 L 1283.773438 455.363281 L 1268.296875 463.925781 L 1162.925781 521.601562 L 1130.722656 539.222656 L 1114.390625 548.117188 L 1105.269531 553.363281 L 1101.347656 555.910156 L 1097.714844 559 L 1093.195312 563.179688 L 1088.929688 568.492188 L 1085.816406 573.898438 L 1082.890625 579.746094 "/>
<path style="fill:none;stroke-width:1;stroke-linecap:butt;stroke-linejoin:miter;stroke:rgb(50.196078%,50.196078%,50.196078%);stroke-opacity:1;stroke-miterlimit:4;" d="M 1775.160156 270.828125 L 1732.601562 323.203125 L 1710.4375 350.40625 L 1702.550781 357.933594 L 1694.101562 364.136719 L 1692.234375 365.738281 L 1682.121094 369.671875 L 1656.207031 372.964844 L 1622.910156 375.988281 L 1588.839844 379.421875 L 1513.78125 386.714844 L 1471.667969 390.738281 L 1445.640625 393.207031 L 1439.023438 393.917969 L 1434.734375 394.296875 "/>
<path style="fill:none;stroke-width:1;stroke-linecap:butt;stroke-linejoin:miter;stroke:rgb(50.196078%,50.196078%,50.196078%);stroke-opacity:1;stroke-miterlimit:4;" d="M 8.300781 701.585938 L 7.164062 698.628906 L 5.074219 696.25 L 2.292969 694.75 L -0.835938 694.292969 L -3.933594 694.960938 L -6.605469 696.648438 L -8.582031 699.261719 L -9.496094 702.410156 L -9.214844 705.667969 L -7.789062 708.625 L -5.40625 710.859375 L -2.375 712.101562 "/>
<path style="fill:none;stroke-width:1;stroke-linecap:butt;stroke-linejoin:miter;stroke:rgb(50.196078%,50.196078%,50.196078%);stroke-opacity:1;stroke-miterlimit:4;" d="M -2.375 712.101562 L 1.148438 712.136719 L 4.402344 710.8125 L 6.910156 708.34375 L 8.277344 705.097656 L 8.300781 701.585938 "/>
<path style="fill:none;stroke-width:1;stroke-linecap:butt;stroke-linejoin:miter;stroke:rgb(50.196078%,50.196078%,50.196078%);stroke-opacity:1;stroke-miterlimit:4;" d="M 190.765625 725 L 175.496094 720.828125 L 169.753906 719.230469 L 158.558594 716.339844 L 135.628906 712.4375 L 102.390625 708 L 64.496094 703.132812 L 36.441406 699.53125 L 27.472656 698.816406 L 19.695312 699.195312 L 10.789062 700.429688 L 8.300781 701.585938 "/>
<path style="fill:none;stroke-width:1;stroke-linecap:butt;stroke-linejoin:miter;stroke:rgb(50.196078%,50.196078%,50.196078%);stroke-opacity:1;stroke-miterlimit:4;" d="M 36.363281 893.90625 L 40.136719 891.914062 L 43.242188 890.09375 L 46.949219 886.5 L 49.25 882.957031 L 60.949219 864.878906 L 76.296875 848.25 L 93.914062 832.730469 L 107.390625 823.414062 L 120.28125 816.898438 L 131.988281 810.796875 L 149.347656 804.015625 L 171.410156 796.667969 L 218.722656 785.785156 L 297.421875 767.910156 L 304.015625 766.339844 "/>
<path style="fill:none;stroke-width:1;stroke-linecap:butt;stroke-linejoin:miter;stroke:rgb(50.196078%,50.196078%,50.196078%);stroke-opacity:1;stroke-miterlimit:4;" d="M 304.015625 766.339844 L 324.5 763.039062 L 330.886719 761.273438 L 334.101562 757.949219 L 334.828125 753.480469 "/>
<path style="fill:none;stroke-width:1;stroke-linecap:butt;stroke-linejoin:miter;stroke:rgb(50.196078%,50.196078%,50.196078%);stroke-opacity:1;stroke-miterlimit:4;" d="M 315.003906 751.289062 L 311.457031 758.425781 L 308.457031 762.828125 L 304.015625 766.339844 "/>
<path style="fill:none;stroke-width:1;stroke-linecap:butt;stroke-linejoin:miter;stroke:rgb(50.196078%,50.196078%,50.196078%);stroke-opacity:1;stroke-miterlimit:4;" d="M 334.828125 753.480469 L 315.003906 751.289062 L 301.375 749.464844 L 291.742188 748.277344 L 280.8125 746.953125 L 253.414062 742.664062 L 237.582031 738.894531 L 206.144531 729.367188 L 190.765625 725 "/>
<path style="fill:none;stroke-width:1;stroke-linecap:butt;stroke-linejoin:miter;stroke:rgb(50.196078%,50.196078%,50.196078%);stroke-opacity:1;stroke-miterlimit:4;" d="M 797.984375 257.351562 L 765.679688 194.214844 L 759.792969 185.222656 L 753.726562 176.714844 L 746.863281 169.179688 L 740.261719 162.328125 L 651.140625 79.011719 L 646.835938 75.054688 L 642.714844 71.074219 L 621.046875 49.816406 L 611.726562 40.675781 L 601.027344 23.34375 L 596.765625 12.082031 L 595.210938 5.910156 L 594.132812 -0.914062 L 592.484375 -14.8125 L 590.242188 -30.445312 L 587.824219 -44.175781 L 586.953125 -49.96875 L 586.273438 -54.527344 L 579.890625 -89.402344 L 573.65625 -112.472656 L 566.238281 -133.5 L 555.453125 -157.890625 L 539.867188 -184.476562 L 523.6875 -207.257812 L 519.261719 -214.742188 L 518.695312 -216.320312 L 517.492188 -220.089844 "/>
<path style="fill:none;stroke-width:1;stroke-linecap:butt;stroke-linejoin:miter;stroke:rgb(50.196078%,50.196078%,50.196078%);stroke-opacity:1;stroke-miterlimit:4;" d="M 826.539062 285.3125 L 828.148438 267.234375 L 828.421875 262.410156 L 834.316406 178.328125 L 836.621094 151.132812 L 837.695312 124.296875 L 839.199219 65.703125 L 839.734375 49.449219 L 840.0625 43.457031 L 840.734375 32.140625 L 842.144531 20.320312 L 843.839844 12.046875 L 845.792969 4.277344 L 851.273438 -16.222656 L 852.769531 -22.816406 L 853.792969 -28.953125 L 854.808594 -41.550781 L 855.34375 -56.628906 L 856.585938 -85.433594 L 861.675781 -117.675781 L 867.195312 -150.253906 L 878.902344 -199.453125 L 894.246094 -260.082031 L 899.273438 -273.890625 "/>
<path style="fill:none;stroke-width:1;stroke-linecap:butt;stroke-linejoin:miter;stroke:rgb(50.196078%,50.196078%,50.196078%);stroke-opacity:1;stroke-miterlimit:4;" d="M 888.09375 667.414062 L 887.910156 663.945312 L 887.542969 653.75 L 886.839844 639.964844 L 882.605469 608.835938 L 881.84375 602.199219 L 876.597656 556.585938 L 872.996094 527.050781 L 868.796875 492.574219 L 862.507812 463.546875 L 851.160156 403.992188 L 845.765625 381.445312 L 836.828125 349.894531 L 832.539062 335.152344 L 829.171875 320.476562 L 826.804688 308.058594 L 826.15625 295.609375 L 826.539062 285.3125 "/>
<path style="fill:none;stroke-width:1;stroke-linecap:butt;stroke-linejoin:miter;stroke:rgb(50.196078%,50.196078%,50.196078%);stroke-opacity:1;stroke-miterlimit:4;" d="M 826.539062 285.3125 L 822.1875 283.167969 L 818.800781 281.289062 L 813.777344 278.019531 L 808.9375 273.082031 L 804.144531 267.613281 L 797.984375 257.351562 "/>
<path style="fill:none;stroke-width:1;stroke-linecap:butt;stroke-linejoin:miter;stroke:rgb(50.196078%,50.196078%,50.196078%);stroke-opacity:1;stroke-miterlimit:4;" d="M 578.71875 742.675781 L 576.175781 741.796875 L 563.988281 738.859375 L 555.820312 737.882812 L 546.25 737.347656 L 538.371094 737.460938 L 520.335938 739.117188 L 475.664062 744.808594 L 453.089844 748.542969 L 447.296875 749.601562 L 441.6875 750.898438 L 432.773438 753.601562 L 430.679688 754.3125 "/>
<path style="fill:none;stroke-width:1;stroke-linecap:butt;stroke-linejoin:miter;stroke:rgb(50.196078%,50.196078%,50.196078%);stroke-opacity:1;stroke-miterlimit:4;" d="M 430.679688 754.3125 L 430.167969 751.289062 L 428.796875 748.542969 L 426.695312 746.320312 L 424.039062 744.785156 L 421.054688 744.085938 L 417.996094 744.285156 L 415.117188 745.363281 L 412.667969 747.230469 L 410.867188 749.722656 L 409.867188 752.632812 L 409.761719 755.714844 "/>
<path style="fill:none;stroke-width:1;stroke-linecap:butt;stroke-linejoin:miter;stroke:rgb(50.196078%,50.196078%,50.196078%);stroke-opacity:1;stroke-miterlimit:4;" d="M 409.761719 755.714844 L 410.617188 758.847656 L 412.402344 761.574219 L 414.933594 763.628906 L 417.964844 764.796875 L 421.214844 764.984375 L 423.757812 764.40625 L 426.078125 763.230469 L 428.039062 761.503906 L 429.511719 759.359375 L 430.414062 756.902344 L 430.679688 754.3125 "/>
<path style="fill:none;stroke-width:1;stroke-linecap:butt;stroke-linejoin:miter;stroke:rgb(50.196078%,50.196078%,50.196078%);stroke-opacity:1;stroke-miterlimit:4;" d="M 409.761719 755.714844 L 406.90625 756.179688 L 399.335938 756.925781 L 388.128906 757.292969 L 378.476562 757.316406 L 351.878906 755.113281 L 334.828125 753.480469 "/>
<path style="fill:none;stroke-width:1;stroke-linecap:butt;stroke-linejoin:miter;stroke:rgb(50.196078%,50.196078%,50.196078%);stroke-opacity:1;stroke-miterlimit:4;" d="M 578.71875 742.675781 L 578.097656 744.609375 L 578.144531 746.644531 L 578.839844 748.554688 L 580.128906 750.144531 L 581.855469 751.222656 L 583.839844 751.679688 L 585.867188 751.46875 L 587.714844 750.613281 "/>
<path style="fill:none;stroke-width:1;stroke-linecap:butt;stroke-linejoin:miter;stroke:rgb(50.196078%,50.196078%,50.196078%);stroke-opacity:1;stroke-miterlimit:4;" d="M 587.714844 750.613281 L 589.089844 749.320312 L 590.019531 747.6875 L 590.410156 745.832031 L 590.226562 743.964844 L 589.484375 742.230469 L 588.273438 740.816406 L 586.699219 739.828125 L 584.90625 739.351562 L 583.042969 739.417969 L 581.296875 740.050781 L 579.808594 741.160156 L 578.71875 742.675781 "/>
<path style="fill:none;stroke-width:1;stroke-linecap:butt;stroke-linejoin:miter;stroke:rgb(50.196078%,50.196078%,50.196078%);stroke-opacity:1;stroke-miterlimit:4;" d="M 587.714844 750.613281 L 589.539062 753.234375 L 594.003906 759.058594 L 600.667969 764.585938 L 612.832031 771.199219 L 622.167969 775.378906 L 629.304688 777.957031 L 658.335938 786.863281 L 681.9375 795.878906 L 703.398438 806.394531 L 743.316406 829.894531 L 772.128906 844.8125 L 779.269531 847.761719 L 819.882812 862.679688 L 853.738281 873.460938 "/>
<path style="fill:none;stroke-width:1;stroke-linecap:butt;stroke-linejoin:miter;stroke:rgb(50.196078%,50.196078%,50.196078%);stroke-opacity:1;stroke-miterlimit:4;" d="M 891.574219 670.527344 L 890.039062 668.734375 L 888.09375 667.414062 "/>
<path style="fill:none;stroke-width:1;stroke-linecap:butt;stroke-linejoin:miter;stroke:rgb(50.196078%,50.196078%,50.196078%);stroke-opacity:1;stroke-miterlimit:4;" d="M 888.925781 682.976562 L 890.71875 681.453125 L 892.046875 679.519531 L 892.839844 677.308594 L 893.023438 674.960938 L 892.589844 672.648438 L 891.574219 670.527344 "/>
<path style="fill:none;stroke-width:1;stroke-linecap:butt;stroke-linejoin:miter;stroke:rgb(50.196078%,50.196078%,50.196078%);stroke-opacity:1;stroke-miterlimit:4;" d="M 888.09375 667.414062 L 885.214844 666.523438 L 882.207031 666.632812 L 879.398438 667.734375 L 877.117188 669.703125 L 875.613281 672.316406 L 875.050781 675.539062 L 875.683594 678.753906 L 877.429688 681.519531 "/>
<path style="fill:none;stroke-width:1;stroke-linecap:butt;stroke-linejoin:miter;stroke:rgb(50.196078%,50.196078%,50.196078%);stroke-opacity:1;stroke-miterlimit:4;" d="M 877.429688 681.519531 L 879.925781 683.421875 L 882.910156 684.355469 L 886.039062 684.199219 L 888.925781 682.976562 "/>
<path style="fill:none;stroke-width:1;stroke-linecap:butt;stroke-linejoin:miter;stroke:rgb(50.196078%,50.196078%,50.196078%);stroke-opacity:1;stroke-miterlimit:4;" d="M 939.566406 880.855469 L 930.375 838.921875 L 902.664062 728.734375 L 893.441406 698.171875 L 890.703125 689.378906 L 889.789062 686.535156 L 888.925781 682.976562 "/>
<path style="fill:none;stroke-width:1;stroke-linecap:butt;stroke-linejoin:miter;stroke:rgb(50.196078%,50.196078%,50.196078%);stroke-opacity:1;stroke-miterlimit:4;" d="M 929.574219 894.394531 L 950.632812 900.398438 L 973.710938 908.234375 L 1002.585938 917.949219 "/>
<path style="fill:none;stroke-width:1;stroke-linecap:butt;stroke-linejoin:miter;stroke:rgb(50.196078%,50.196078%,50.196078%);stroke-opacity:1;stroke-miterlimit:4;" d="M 1002.585938 917.949219 L 993.234375 911.769531 L 984.007812 908.234375 L 967.484375 901.6875 L 958.898438 898.464844 L 953.425781 895.671875 L 944.839844 887.203125 L 942.207031 884.566406 L 939.566406 880.855469 "/>
<path style="fill:none;stroke-width:1;stroke-linecap:butt;stroke-linejoin:miter;stroke:rgb(50.196078%,50.196078%,50.196078%);stroke-opacity:1;stroke-miterlimit:4;" d="M 929.574219 894.394531 L 933.4375 893.316406 L 936.261719 891.9375 L 937.878906 890.246094 L 939.007812 888.445312 L 939.519531 886.757812 L 939.785156 884.722656 L 939.566406 880.855469 "/>
<path style="fill:none;stroke-width:1;stroke-linecap:butt;stroke-linejoin:miter;stroke:rgb(50.196078%,50.196078%,50.196078%);stroke-opacity:1;stroke-miterlimit:4;" d="M 853.738281 873.460938 L 872.546875 879.464844 L 896.335938 886.234375 L 929.574219 894.394531 "/>
<path style="fill:none;stroke-width:1;stroke-linecap:butt;stroke-linejoin:miter;stroke:rgb(50.196078%,50.196078%,50.196078%);stroke-opacity:1;stroke-miterlimit:4;" d="M 488.382812 1514.222656 L 491.226562 1511.988281 L 496.1875 1508.34375 L 527.832031 1489.058594 L 568.03125 1463.546875 L 572.429688 1460.113281 L 586.777344 1450.1875 L 593.113281 1447.695312 L 604.894531 1441.648438 L 625.953125 1427.621094 L 696.0625 1382.503906 L 709.496094 1374.144531 L 769.929688 1336.027344 L 810.847656 1310.339844 L 845.3125 1288.898438 L 854.441406 1282.984375 L 862.25 1278.105469 L 875.140625 1269.554688 L 881.726562 1265.277344 L 888.4375 1259.164062 L 895.359375 1252.636719 L 898.433594 1249.425781 L 902.417969 1246.15625 L 909.28125 1241.398438 L 934.847656 1226.78125 L 945.695312 1222.402344 L 963.09375 1213.453125 L 1030.199219 1170.8125 L 1074.480469 1142.457031 L 1105.109375 1123.148438 L 1113.628906 1117.621094 L 1123.894531 1111.386719 L 1156.183594 1091.132812 L 1166.558594 1084.527344 L 1177.058594 1077.882812 L 1208.085938 1057.984375 L 1226.011719 1045.722656 L 1230.882812 1042.421875 L 1238.429688 1036.984375 "/>
<path style="fill:none;stroke-width:1;stroke-linecap:butt;stroke-linejoin:miter;stroke:rgb(50.196078%,50.196078%,50.196078%);stroke-opacity:1;stroke-miterlimit:4;" d="M 36.363281 893.90625 L 37.28125 902.210938 L 36.539062 908.066406 L 28.921875 932.800781 L 25.894531 941.195312 L 20.3125 956.667969 L 4.132812 1004.457031 "/>
<path style="fill:none;stroke-width:1;stroke-linecap:butt;stroke-linejoin:miter;stroke:rgb(50.196078%,50.196078%,50.196078%);stroke-opacity:1;stroke-miterlimit:4;" d="M -6.75 798.503906 L -4.453125 800.835938 L -2.5 803.292969 L 0.0117188 807.484375 L 3.042969 814.621094 L 13.894531 841.867188 L 29.382812 877.71875 L 34.441406 888.535156 L 36.363281 893.90625 "/>
<path style="fill:none;stroke-width:1;stroke-linecap:butt;stroke-linejoin:miter;stroke:rgb(50.196078%,50.196078%,50.196078%);stroke-opacity:1;stroke-miterlimit:4;" d="M 4.132812 1004.457031 L -0.269531 1015.597656 L -2.894531 1022.890625 L -5.09375 1030.449219 L -5.582031 1038.175781 L -5.414062 1046.878906 L -4.988281 1055.503906 L -3.703125 1067.855469 L -1.0625 1086.207031 L 4.597656 1116.375 L 5.796875 1127.515625 L 5.738281 1142.589844 L 5.523438 1156.351562 L 5.378906 1169.746094 L 4.402344 1192.8125 L 1.722656 1210.363281 L -1.605469 1227.792969 L -4.925781 1246.613281 L -9.941406 1271.777344 L -15.078125 1299.035156 L -20.0625 1320.878906 L -31.632812 1369.988281 L -34.410156 1382.171875 L -38.996094 1401.65625 L -41.851562 1415.148438 L -42.332031 1422.34375 L -41.957031 1430.066406 L -41.308594 1435.101562 L -39.058594 1442.351562 L -34.113281 1454.746094 "/>
</g>
</svg>
