<?xml version="1.0" encoding="UTF-8"?>
<svg xmlns="http://www.w3.org/2000/svg" xmlns:xlink="http://www.w3.org/1999/xlink" width="1600pt" height="1600pt" viewBox="0 0 1600 1600" version="1.1">
<g id="surface5">
<path style="fill:none;stroke-width:0.5;stroke-linecap:butt;stroke-linejoin:miter;stroke:rgb(50.196078%,50.196078%,50.196078%);stroke-opacity:1;stroke-miterlimit:4;" d="M 1581.070312 975.898438 L 1630.105469 950.308594 L 1630.160156 945.363281 L 1631.234375 940.851562 L 1632.945312 934.949219 L 1635.175781 929.511719 L 1639.171875 923.628906 L 1643.46875 918.429688 L 1648.132812 913.757812 L 1653.613281 909.734375 L 1659.828125 905.976562 L 1667.550781 902.542969 L 1676.890625 901.898438 L 1687.136719 902.296875 L 1747.773438 912.167969 L 1749.484375 911.769531 L 1750.933594 910.390625 L 1752.007812 908.445312 L 1753.183594 904.308594 L 1758.566406 876.71875 L 1784.996094 780.761719 L 1785.949219 777.148438 "/>
<path style="fill:none;stroke-width:0.5;stroke-linecap:butt;stroke-linejoin:miter;stroke:rgb(50.196078%,50.196078%,50.196078%);stroke-opacity:1;stroke-miterlimit:4;" d="M 1474.179688 867.660156 L 1481.261719 877.109375 L 1490.152344 883.300781 L 1519.253906 901.351562 L 1526.207031 903.476562 L 1532.34375 903.933594 L 1539.207031 903.078125 L 1547.019531 900.464844 L 1559.378906 892.347656 L 1585.992188 866.589844 L 1619.046875 834.832031 L 1623.335938 832.6875 L 1628.054688 831.183594 L 1630.976562 831.597656 L 1632.441406 831.796875 L 1638.449219 833.71875 L 1682.65625 853.898438 L 1691.242188 856.6875 L 1710.253906 862.722656 L 1758.566406 876.71875 "/>
<path style="fill:none;stroke-width:0.5;stroke-linecap:butt;stroke-linejoin:miter;stroke:rgb(50.196078%,50.196078%,50.196078%);stroke-opacity:1;stroke-miterlimit:4;" d="M 1582.105469 942.875 L 1630.160156 929.265625 L 1635.175781 929.511719 "/>
<path style="fill:none;stroke-width:0.5;stroke-linecap:butt;stroke-linejoin:miter;stroke:rgb(50.196078%,50.196078%,50.196078%);stroke-opacity:1;stroke-miterlimit:4;" d="M 1581.070312 975.898438 L 1501.066406 1001.222656 "/>
<path style="fill:none;stroke-width:0.5;stroke-linecap:butt;stroke-linejoin:miter;stroke:rgb(50.196078%,50.196078%,50.196078%);stroke-opacity:1;stroke-miterlimit:4;" d="M 1238.429688 1036.984375 L 1246.046875 1041.253906 L 1253.390625 1045.433594 L 1297.78125 1073.222656 L 1336.851562 1105.394531 L 1361.816406 1125.949219 L 1452.394531 1185.417969 L 1463.78125 1195.054688 L 1476.972656 1206.21875 L 1498.128906 1226.335938 L 1512.066406 1238.085938 L 1526.878906 1247.96875 L 1541.898438 1257.082031 L 1557.652344 1265.34375 L 1574.304688 1271.566406 L 1590.167969 1275.324219 L 1626.703125 1269.121094 L 1639.113281 1267.066406 L 1651.027344 1266.953125 L 1659.71875 1269.535156 L 1669.855469 1273.878906 L 1734.609375 1305.515625 L 1738.4375 1307.148438 L 1753.992188 1310.207031 L 1769.449219 1311.640625 L 1783.875 1312.71875 L 1797.445312 1311.386719 L 1800.613281 1310.09375 L 1804.039062 1308.472656 "/>
<path style="fill:none;stroke-width:0.5;stroke-linecap:butt;stroke-linejoin:miter;stroke:rgb(50.196078%,50.196078%,50.196078%);stroke-opacity:1;stroke-miterlimit:4;" d="M 1439.839844 1349.457031 L 1438.160156 1347.210938 L 1436.007812 1345.808594 L 1433.207031 1345.34375 L 1424.796875 1345.164062 L 1422.460938 1344.597656 L 1421.058594 1342.453125 L 1421.058594 1339.652344 L 1421.996094 1337.960938 L 1425.546875 1336.285156 L 1432.742188 1335.261719 L 1435.542969 1336.007812 L 1437.597656 1337.597656 L 1438.902344 1340.207031 L 1439.839844 1349.457031 L 1441.878906 1390.472656 L 1448.625 1415.773438 L 1456.457031 1446.664062 L 1457.632812 1452.085938 L 1456.9375 1455.734375 L 1450.183594 1464.480469 "/>
<path style="fill:none;stroke-width:0.5;stroke-linecap:butt;stroke-linejoin:miter;stroke:rgb(50.196078%,50.196078%,50.196078%);stroke-opacity:1;stroke-miterlimit:4;" d="M 1481.894531 1401.855469 L 1480.34375 1389.261719 L 1479.910156 1381.613281 L 1479.484375 1374.390625 L 1478.636719 1365.050781 L 1475.949219 1343.519531 L 1470.285156 1315.207031 L 1464.765625 1286.464844 L 1463.773438 1281.792969 "/>
<path style="fill:none;stroke-width:0.5;stroke-linecap:butt;stroke-linejoin:miter;stroke:rgb(50.196078%,50.196078%,50.196078%);stroke-opacity:1;stroke-miterlimit:4;" d="M 1497.625 1275.167969 L 1509.050781 1272.46875 L 1514.210938 1271.625 L 1519.84375 1271.679688 L 1530.925781 1272.847656 L 1549.507812 1277.304688 L 1561.15625 1278.703125 L 1570.664062 1279.492188 L 1590.167969 1275.324219 "/>
<path style="fill:none;stroke-width:0.5;stroke-linecap:butt;stroke-linejoin:miter;stroke:rgb(50.196078%,50.196078%,50.196078%);stroke-opacity:1;stroke-miterlimit:4;" d="M 1515.125 1276.804688 L 1508.003906 1276.070312 L 1497.625 1275.167969 "/>
<path style="fill:none;stroke-width:0.5;stroke-linecap:butt;stroke-linejoin:miter;stroke:rgb(50.196078%,50.196078%,50.196078%);stroke-opacity:1;stroke-miterlimit:4;" d="M 1497.625 1275.167969 L 1496.992188 1272.914062 L 1495.769531 1269.1875 L 1492.65625 1265.507812 L 1470.734375 1247.835938 "/>
<path style="fill:none;stroke-width:0.5;stroke-linecap:butt;stroke-linejoin:miter;stroke:rgb(50.196078%,50.196078%,50.196078%);stroke-opacity:1;stroke-miterlimit:4;" d="M 1298.765625 1298.933594 L 1299.917969 1309.984375 L 1313.546875 1402.054688 "/>
<path style="fill:none;stroke-width:0.5;stroke-linecap:butt;stroke-linejoin:miter;stroke:rgb(50.196078%,50.196078%,50.196078%);stroke-opacity:1;stroke-miterlimit:4;" d="M 1206.894531 1286.152344 L 1206.71875 1301.949219 L 1207.824219 1338.929688 L 1206.71875 1355.324219 L 1206.46875 1363.828125 L 1208.382812 1388.59375 L 1209.574219 1400.523438 L 1214.007812 1416.71875 L 1219.464844 1426.265625 L 1222.488281 1437.660156 L 1225.945312 1449.128906 L 1228.5 1457.277344 L 1233.460938 1462.558594 L 1239.402344 1465.972656 L 1250.140625 1468.871094 L 1275.539062 1468.527344 L 1286.789062 1467.683594 L 1292.75 1470.238281 L 1296.328125 1475.007812 L 1297.863281 1479.609375 L 1298.101562 1493.871094 L 1298.292969 1500.230469 L 1301.277344 1504.53125 L 1308.433594 1505.6875 L 1315.105469 1505.640625 "/>
<path style="fill:none;stroke-width:0.5;stroke-linecap:butt;stroke-linejoin:miter;stroke:rgb(50.196078%,50.196078%,50.196078%);stroke-opacity:1;stroke-miterlimit:4;" d="M 1104.742188 1292.632812 L 1106.445312 1295.5 L 1108.109375 1299.058594 L 1113.980469 1348.210938 L 1118.976562 1397.085938 L 1120.625 1415.140625 L 1120.039062 1425.421875 L 1109.863281 1438.925781 L 1102.210938 1446.574219 L 1093.722656 1448.832031 L 1088.050781 1449.1875 L 1076.632812 1448.742188 L 1063.84375 1449.109375 L 1051.433594 1450.019531 L 1034.25 1453.078125 "/>
<path style="fill:none;stroke-width:0.5;stroke-linecap:butt;stroke-linejoin:miter;stroke:rgb(50.196078%,50.196078%,50.196078%);stroke-opacity:1;stroke-miterlimit:4;" d="M 1135.585938 1186.695312 L 1116.511719 1189.074219 "/>
<path style="fill:none;stroke-width:0.5;stroke-linecap:butt;stroke-linejoin:miter;stroke:rgb(50.196078%,50.196078%,50.196078%);stroke-opacity:1;stroke-miterlimit:4;" d="M 1344.984375 1171.457031 L 1307.105469 1176.027344 L 1284.355469 1175.148438 L 1135.585938 1186.695312 L 1125.816406 1158.816406 L 1116.421875 1120.535156 L 1113.628906 1117.621094 "/>
<path style="fill:none;stroke-width:0.5;stroke-linecap:butt;stroke-linejoin:miter;stroke:rgb(50.196078%,50.196078%,50.196078%);stroke-opacity:1;stroke-miterlimit:4;" d="M 1365.28125 1290.886719 L 1363.992188 1281.75 L 1369.617188 1232.828125 L 1368.929688 1208.117188 L 1362.96875 1192.609375 L 1351.632812 1178.871094 L 1344.984375 1171.457031 L 1329.394531 1151.882812 L 1320.875 1131.25 L 1320.363281 1119.667969 L 1310.472656 1108.761719 L 1297.78125 1073.222656 "/>
<path style="fill:none;stroke-width:0.5;stroke-linecap:butt;stroke-linejoin:miter;stroke:rgb(50.196078%,50.196078%,50.196078%);stroke-opacity:1;stroke-miterlimit:4;" d="M 1336.851562 1105.394531 L 1377.414062 1065.097656 "/>
<path style="fill:none;stroke-width:0.5;stroke-linecap:butt;stroke-linejoin:miter;stroke:rgb(50.196078%,50.196078%,50.196078%);stroke-opacity:1;stroke-miterlimit:4;" d="M 1386.183594 906.945312 L 1384.238281 914.582031 L 1378.230469 935.613281 L 1372.578125 945.351562 L 1371.378906 952.210938 "/>
<path style="fill:none;stroke-width:0.5;stroke-linecap:butt;stroke-linejoin:miter;stroke:rgb(50.196078%,50.196078%,50.196078%);stroke-opacity:1;stroke-miterlimit:4;" d="M 1386.183594 906.945312 L 1404.679688 906.167969 L 1429.207031 909.046875 L 1436.542969 908.324219 L 1443.152344 906.167969 L 1444.710938 901.109375 "/>
<path style="fill:none;stroke-width:0.5;stroke-linecap:butt;stroke-linejoin:miter;stroke:rgb(50.196078%,50.196078%,50.196078%);stroke-opacity:1;stroke-miterlimit:4;" d="M 1386.183594 906.945312 L 1381.460938 897.929688 L 1377.386719 891.492188 L 1372.546875 888.824219 L 1324.683594 874.875 L 1319.867188 871.738281 L 1317.289062 867.449219 L 1316.648438 861.445312 L 1320.828125 846.980469 L 1324.804688 833.753906 L 1326.523438 826.460938 "/>
<path style="fill:none;stroke-width:0.5;stroke-linecap:butt;stroke-linejoin:miter;stroke:rgb(50.196078%,50.196078%,50.196078%);stroke-opacity:1;stroke-miterlimit:4;" d="M 1221.738281 924.109375 L 1225.21875 923.042969 L 1233.074219 922.230469 L 1238.605469 922.519531 L 1246.574219 924.453125 L 1304.566406 953.144531 "/>
<path style="fill:none;stroke-width:0.5;stroke-linecap:butt;stroke-linejoin:miter;stroke:rgb(50.196078%,50.196078%,50.196078%);stroke-opacity:1;stroke-miterlimit:4;" d="M 1246.644531 1022.332031 L 1240.582031 1025.78125 L 1234.796875 1028.734375 L 1228.617188 1029.648438 L 1222.242188 1029.4375 "/>
<path style="fill:none;stroke-width:0.5;stroke-linecap:butt;stroke-linejoin:miter;stroke:rgb(50.196078%,50.196078%,50.196078%);stroke-opacity:1;stroke-miterlimit:4;" d="M 1373.730469 618.164062 L 1368.289062 623.265625 L 1351.625 629.292969 L 1340.175781 631.171875 L 1318.160156 631.40625 L 1288.789062 626.511719 L 1277.5625 624.488281 L 1260.351562 626.9375 L 1248.988281 627.96875 L 1219.503906 627.992188 L 1207.992188 626.523438 L 1172.167969 612.117188 L 1155.019531 607.835938 L 1126.015625 602.199219 L 1095.867188 599.6875 L 1081.800781 596.730469 L 1078.328125 596.476562 "/>
<path style="fill:none;stroke-width:0.5;stroke-linecap:butt;stroke-linejoin:miter;stroke:rgb(50.196078%,50.196078%,50.196078%);stroke-opacity:1;stroke-miterlimit:4;" d="M 1203.8125 577.488281 L 1210.679688 596.808594 L 1215.871094 616.542969 L 1219.503906 627.992188 "/>
<path style="fill:none;stroke-width:0.5;stroke-linecap:butt;stroke-linejoin:miter;stroke:rgb(50.196078%,50.196078%,50.196078%);stroke-opacity:1;stroke-miterlimit:4;" d="M 1260.351562 626.9375 L 1261.558594 635.097656 L 1263.578125 641.375 "/>
<path style="fill:none;stroke-width:0.5;stroke-linecap:butt;stroke-linejoin:miter;stroke:rgb(50.196078%,50.196078%,50.196078%);stroke-opacity:1;stroke-miterlimit:4;" d="M 1373.730469 618.164062 L 1355.671875 607.9375 L 1337.988281 602.410156 L 1330.898438 597.53125 L 1319.242188 576.941406 L 1310.023438 563.167969 L 1304.375 539.8125 "/>
<path style="fill:none;stroke-width:0.5;stroke-linecap:butt;stroke-linejoin:miter;stroke:rgb(50.196078%,50.196078%,50.196078%);stroke-opacity:1;stroke-miterlimit:4;" d="M 1304.375 539.8125 L 1273.320312 546.703125 "/>
<path style="fill:none;stroke-width:0.5;stroke-linecap:butt;stroke-linejoin:miter;stroke:rgb(50.196078%,50.196078%,50.196078%);stroke-opacity:1;stroke-miterlimit:4;" d="M 1290.550781 451.53125 L 1293.300781 456.019531 L 1296.308594 460.957031 L 1295.878906 465.25 L 1292.011719 471.261719 L 1289.230469 475.765625 L 1288.363281 481.136719 L 1289.652344 486.28125 L 1293.300781 495.441406 L 1299.773438 508.648438 L 1303.574219 523.589844 L 1304.375 539.8125 "/>
<path style="fill:none;stroke-width:0.5;stroke-linecap:butt;stroke-linejoin:miter;stroke:rgb(50.196078%,50.196078%,50.196078%);stroke-opacity:1;stroke-miterlimit:4;" d="M 1346.3125 499.800781 L 1366.273438 494.429688 L 1386.878906 491.007812 L 1404.472656 488.429688 L 1427.222656 486.28125 L 1440.078125 484.648438 "/>
<path style="fill:none;stroke-width:0.5;stroke-linecap:butt;stroke-linejoin:miter;stroke:rgb(50.196078%,50.196078%,50.196078%);stroke-opacity:1;stroke-miterlimit:4;" d="M 1355.671875 607.9375 L 1369.996094 555.097656 "/>
<path style="fill:none;stroke-width:0.5;stroke-linecap:butt;stroke-linejoin:miter;stroke:rgb(50.196078%,50.196078%,50.196078%);stroke-opacity:1;stroke-miterlimit:4;" d="M 1359.929688 702.488281 L 1361.289062 694.917969 L 1363.011719 685.898438 L 1365.25 669.859375 L 1370.089844 629.492188 L 1370.980469 624.089844 L 1373.730469 618.164062 "/>
<path style="fill:none;stroke-width:0.5;stroke-linecap:butt;stroke-linejoin:miter;stroke:rgb(50.196078%,50.196078%,50.196078%);stroke-opacity:1;stroke-miterlimit:4;" d="M 1450.273438 643.910156 L 1414.578125 630.625 L 1392.414062 623.113281 L 1373.730469 618.164062 "/>
<path style="fill:none;stroke-width:0.5;stroke-linecap:butt;stroke-linejoin:miter;stroke:rgb(50.196078%,50.196078%,50.196078%);stroke-opacity:1;stroke-miterlimit:4;" d="M 1302.910156 736.113281 L 1315.363281 729.890625 L 1320.9375 726.886719 L 1346.695312 708 L 1353.558594 704.566406 L 1358.714844 702.640625 L 1359.929688 702.488281 L 1363.867188 701.996094 L 1372.019531 703.066406 L 1378.882812 702.851562 L 1390.480469 702.207031 L 1396.488281 701.773438 "/>
<path style="fill:none;stroke-width:0.5;stroke-linecap:butt;stroke-linejoin:miter;stroke:rgb(50.196078%,50.196078%,50.196078%);stroke-opacity:1;stroke-miterlimit:4;" d="M 1263.578125 641.375 L 1264.71875 644.3125 L 1265.960938 648.292969 L 1266.785156 654.0625 L 1266.785156 658.320312 L 1264.992188 662.855469 L 1261.695312 665.734375 L 1259.777344 668.347656 L 1259.496094 671.238281 L 1261.425781 690.878906 L 1260.328125 693.90625 L 1257.574219 696.648438 L 1253.320312 699.128906 "/>
<path style="fill:none;stroke-width:0.5;stroke-linecap:butt;stroke-linejoin:miter;stroke:rgb(50.196078%,50.196078%,50.196078%);stroke-opacity:1;stroke-miterlimit:4;" d="M 1322.441406 830.964844 L 1317.035156 831.863281 L 1306.214844 829.695312 L 1279.761719 822.246094 "/>
<path style="fill:none;stroke-width:0.5;stroke-linecap:butt;stroke-linejoin:miter;stroke:rgb(50.196078%,50.196078%,50.196078%);stroke-opacity:1;stroke-miterlimit:4;" d="M 1422.453125 847.28125 L 1419.234375 844.703125 L 1359.664062 820.144531 L 1354.738281 816.5 L 1352.703125 813.585938 L 1351.414062 808.429688 L 1351.847656 803.714844 L 1353.351562 795.988281 L 1352.617188 793.433594 L 1349.304688 791.554688 "/>
<path style="fill:none;stroke-width:0.5;stroke-linecap:butt;stroke-linejoin:miter;stroke:rgb(50.196078%,50.196078%,50.196078%);stroke-opacity:1;stroke-miterlimit:4;" d="M 1316.859375 909.625 L 1309.992188 906.078125 L 1307.40625 901.585938 L 1306.777344 895.785156 L 1307.207031 877.964844 L 1306.351562 873.027344 L 1305.917969 868.316406 L 1307.207031 862.734375 L 1319.320312 836.675781 L 1322.441406 830.964844 L 1326.523438 826.460938 L 1330.386719 823.238281 L 1334.894531 817.023438 L 1344.984375 798.992188 L 1349.304688 791.554688 L 1359.023438 775.722656 L 1366.898438 764.941406 L 1373.523438 755.859375 L 1385.542969 738.050781 L 1388 733.011719 L 1391.335938 725.175781 L 1396.488281 701.773438 L 1399.703125 693.625 L 1403.570312 685.464844 L 1410.105469 676.785156 L 1423.957031 663.144531 L 1433.773438 653.648438 L 1441.886719 647.425781 L 1450.273438 643.910156 "/>
<path style="fill:none;stroke-width:0.5;stroke-linecap:butt;stroke-linejoin:miter;stroke:rgb(50.196078%,50.196078%,50.196078%);stroke-opacity:1;stroke-miterlimit:4;" d="M 1441.34375 824.960938 L 1433.832031 823.238281 L 1404.425781 811.21875 L 1399.921875 807.363281 L 1397.34375 802.847656 L 1392.625 790.832031 L 1388.972656 785.25 L 1379.53125 777.113281 L 1370.515625 768.519531 L 1366.898438 764.941406 "/>
<path style="fill:none;stroke-width:0.5;stroke-linecap:butt;stroke-linejoin:miter;stroke:rgb(50.196078%,50.196078%,50.196078%);stroke-opacity:1;stroke-miterlimit:4;" d="M 1458.035156 787.40625 L 1454.761719 786.0625 L 1453.097656 784.183594 L 1451.464844 779.648438 L 1448.800781 776.246094 L 1443.472656 774.601562 L 1438.582031 775.136719 L 1435.710938 778.335938 L 1435.367188 782.4375 L 1436.359375 785.683594 L 1440.214844 788.910156 L 1444.726562 789.765625 L 1451.058594 790.285156 L 1458.035156 787.40625 "/>
<path style="fill:none;stroke-width:0.5;stroke-linecap:butt;stroke-linejoin:miter;stroke:rgb(50.196078%,50.196078%,50.196078%);stroke-opacity:1;stroke-miterlimit:4;" d="M 1530.527344 675.605469 L 1514.195312 730.199219 L 1513.699219 735.835938 L 1514.964844 740.316406 L 1517.933594 744.351562 "/>
<path style="fill:none;stroke-width:0.5;stroke-linecap:butt;stroke-linejoin:miter;stroke:rgb(50.196078%,50.196078%,50.196078%);stroke-opacity:1;stroke-miterlimit:4;" d="M 1458.035156 787.40625 L 1464.089844 790.832031 L 1513.882812 806.285156 L 1529.855469 811.398438 L 1536.207031 812.507812 L 1538.007812 812.644531 L 1541.785156 812.941406 L 1546.507812 812.074219 L 1554.234375 809.285156 L 1572.773438 799.167969 L 1576.984375 795.335938 L 1582.433594 788.21875 L 1592.21875 773.445312 L 1598.875 760.570312 L 1603.804688 748.121094 L 1608.742188 733.523438 L 1613.574219 716.472656 L 1615.644531 709.167969 "/>
<path style="fill:none;stroke-width:0.5;stroke-linecap:butt;stroke-linejoin:miter;stroke:rgb(50.196078%,50.196078%,50.196078%);stroke-opacity:1;stroke-miterlimit:4;" d="M 1520.109375 835.042969 L 1522.339844 830.929688 L 1526.414062 827.070312 L 1530.839844 823.460938 L 1535.34375 818.945312 L 1538.007812 812.644531 "/>
<path style="fill:none;stroke-width:0.5;stroke-linecap:butt;stroke-linejoin:miter;stroke:rgb(50.196078%,50.196078%,50.196078%);stroke-opacity:1;stroke-miterlimit:4;" d="M 1664.109375 778.816406 L 1657.246094 779.671875 L 1652.308594 779.25 L 1640.722656 776.457031 L 1629.34375 773.667969 L 1617.328125 769.800781 L 1606.597656 764.652344 L 1598.875 760.570312 "/>
<path style="fill:none;stroke-width:0.5;stroke-linecap:butt;stroke-linejoin:miter;stroke:rgb(50.196078%,50.196078%,50.196078%);stroke-opacity:1;stroke-miterlimit:4;" d="M 1873.355469 819.890625 L 1866.507812 816.933594 L 1857.6875 813.078125 L 1850.785156 810.0625 L 1824.316406 797 L 1806.800781 788.0625 L 1785.949219 777.148438 L 1738.347656 753.191406 L 1731.652344 749.464844 L 1615.644531 709.167969 L 1612.09375 707.277344 L 1601.164062 702.519531 L 1530.527344 675.605469 L 1466.355469 651.015625 L 1450.273438 643.910156 "/>
<path style="fill:none;stroke-width:0.5;stroke-linecap:butt;stroke-linejoin:miter;stroke:rgb(50.196078%,50.196078%,50.196078%);stroke-opacity:1;stroke-miterlimit:4;" d="M 1584.824219 594.25 L 1617.65625 595.109375 L 1620.984375 598.332031 L 1622.269531 604.546875 L 1619.589844 626.222656 L 1620.765625 651.550781 L 1624.863281 657.90625 "/>
<path style="fill:none;stroke-width:0.5;stroke-linecap:butt;stroke-linejoin:miter;stroke:rgb(50.196078%,50.196078%,50.196078%);stroke-opacity:1;stroke-miterlimit:4;" d="M 1445.855469 544.625 L 1516.789062 542.3125 L 1521.941406 548.214844 L 1526.664062 597.464844 L 1554.5625 594.839844 "/>
<path style="fill:none;stroke-width:0.5;stroke-linecap:butt;stroke-linejoin:miter;stroke:rgb(50.196078%,50.196078%,50.196078%);stroke-opacity:1;stroke-miterlimit:4;" d="M 1450.273438 643.910156 L 1454.144531 639.210938 L 1446.898438 559.5 L 1445.855469 544.625 L 1443.96875 525.027344 L 1440.078125 484.648438 L 1437.109375 446.59375 L 1437.597656 443.691406 L 1434.445312 400.179688 L 1434.734375 394.296875 "/>
<path style="fill:none;stroke-width:0.5;stroke-linecap:butt;stroke-linejoin:miter;stroke:rgb(50.196078%,50.196078%,50.196078%);stroke-opacity:1;stroke-miterlimit:4;" d="M 1434.734375 394.296875 L 1435.605469 388.761719 L 1434.496094 378.589844 L 1434.910156 371.472656 L 1438.671875 363.535156 L 1445.558594 354.929688 L 1476.972656 323.722656 L 1484.167969 318.6875 L 1493.359375 316.863281 L 1520.515625 310.917969 L 1524.839844 304.445312 "/>
<path style="fill:none;stroke-width:0.5;stroke-linecap:butt;stroke-linejoin:miter;stroke:rgb(50.196078%,50.196078%,50.196078%);stroke-opacity:1;stroke-miterlimit:4;" d="M 1504.660156 252.792969 L 1506.699219 258.808594 L 1509.921875 262.457031 L 1516.035156 262.777344 L 1522.695312 263.3125 L 1530.953125 269.402344 L 1546.792969 277.476562 L 1560.324219 290.425781 L 1569.542969 301.367188 L 1584.222656 316.34375 L 1602.652344 329.015625 L 1629.71875 346.582031 L 1654.773438 354.351562 L 1694.101562 364.136719 "/>
<path style="fill:none;stroke-width:0.5;stroke-linecap:butt;stroke-linejoin:miter;stroke:rgb(50.196078%,50.196078%,50.196078%);stroke-opacity:1;stroke-miterlimit:4;" d="M 1761.152344 397.886719 L 1758.015625 399.054688 L 1755.175781 401.046875 L 1749.347656 405.203125 L 1740.332031 412.496094 L 1669.449219 428.171875 L 1647.570312 433.007812 L 1595.449219 437.332031 L 1533.253906 445.394531 "/>
<path style="fill:none;stroke-width:0.5;stroke-linecap:butt;stroke-linejoin:miter;stroke:rgb(50.196078%,50.196078%,50.196078%);stroke-opacity:1;stroke-miterlimit:4;" d="M 1434.910156 371.472656 L 1434.160156 366.761719 L 1432.589844 356.007812 L 1427.253906 335.019531 L 1422.574219 326.515625 L 1415.59375 322.433594 L 1410.121094 322.222656 L 1404.761719 324.480469 L 1396.496094 333.820312 L 1387.71875 343.601562 L 1377.507812 348.226562 L 1369.417969 346.582031 L 1361.929688 342.835938 L 1359.960938 340.410156 L 1358.9375 336.1875 L 1359.152344 331.5625 L 1361.625 324.9375 L 1364.035156 319.277344 L 1366.722656 314.941406 L 1367.84375 308.546875 L 1367.945312 299.84375 L 1368.84375 292.148438 L 1367.042969 285.203125 L 1367.089844 281.988281 L 1368.21875 280.210938 L 1376.285156 270.382812 L 1378.574219 267.234375 L 1379.203125 262.5 L 1377.394531 258.429688 L 1375.171875 256.742188 L 1370.15625 254.671875 L 1365.675781 254.152344 L 1353.863281 256.453125 L 1339.757812 258.464844 L 1334.453125 259.476562 L 1330.675781 258.175781 L 1327.25 252.339844 L 1328.25 246.890625 L 1332.835938 243.199219 L 1339.46875 239.175781 L 1336.589844 232.839844 L 1325.9375 223.332031 "/>
<path style="fill:none;stroke-width:0.5;stroke-linecap:butt;stroke-linejoin:miter;stroke:rgb(50.196078%,50.196078%,50.196078%);stroke-opacity:1;stroke-miterlimit:4;" d="M 1367.945312 299.84375 L 1338.605469 314.90625 "/>
<path style="fill:none;stroke-width:0.5;stroke-linecap:butt;stroke-linejoin:miter;stroke:rgb(50.196078%,50.196078%,50.196078%);stroke-opacity:1;stroke-miterlimit:4;" d="M 1255.710938 446.972656 L 1321.90625 398.976562 "/>
<path style="fill:none;stroke-width:0.5;stroke-linecap:butt;stroke-linejoin:miter;stroke:rgb(50.196078%,50.196078%,50.196078%);stroke-opacity:1;stroke-miterlimit:4;" d="M 1243.042969 432.519531 L 1245.429688 420.65625 L 1251.078125 412.117188 L 1266.113281 393.484375 L 1273.203125 384.113281 L 1282.460938 379.542969 "/>
<path style="fill:none;stroke-width:0.5;stroke-linecap:butt;stroke-linejoin:miter;stroke:rgb(50.196078%,50.196078%,50.196078%);stroke-opacity:1;stroke-miterlimit:4;" d="M 1268.296875 463.925781 L 1266.546875 460.757812 L 1261.34375 453.199219 L 1255.710938 446.972656 L 1243.042969 432.519531 L 1202.6875 386.449219 "/>
<path style="fill:none;stroke-width:0.5;stroke-linecap:butt;stroke-linejoin:miter;stroke:rgb(50.196078%,50.196078%,50.196078%);stroke-opacity:1;stroke-miterlimit:4;" d="M 1162.925781 521.601562 L 1155.980469 514.207031 L 1137.609375 504.304688 L 1102.539062 449.296875 L 1094.921875 442.613281 L 1087.066406 430.597656 "/>
<path style="fill:none;stroke-width:0.5;stroke-linecap:butt;stroke-linejoin:miter;stroke:rgb(50.196078%,50.196078%,50.196078%);stroke-opacity:1;stroke-miterlimit:4;" d="M 1191.773438 261.453125 L 1189.417969 248.15625 L 1175.015625 229.191406 L 1145.933594 201.628906 L 1133.464844 197.75 L 1125.152344 196.851562 L 1120.230469 196.027344 L 1102.652344 185.710938 L 1089.601562 178.261719 L 1079.398438 175.105469 L 1071.070312 172.089844 L 1064.8125 169.421875 L 1010.402344 143.773438 L 1006.652344 139.160156 L 1006.753906 132.1875 L 1030.472656 80.890625 L 1037.984375 59.855469 L 1063.476562 -18.691406 L 1063.84375 -26.796875 L 1058.316406 -32.691406 L 1047.753906 -37.4375 L 1042.273438 -41.117188 L 1040.664062 -44.441406 L 1041.203125 -48.410156 L 1042.859375 -51.402344 L 1055.371094 -70.101562 L 1058.050781 -72.027344 L 1061.269531 -72.984375 L 1064.4375 -73.683594 L 1067.597656 -73.394531 L 1080.097656 -70.46875 L 1139.820312 -56.894531 L 1150.546875 -56.894531 L 1160.335938 -60.386719 L 1185.730469 -74.5625 L 1188.105469 -75.882812 L 1193.261719 -78.351562 L 1198.734375 -79.320312 L 1204.527344 -79.320312 L 1209.472656 -78.351562 L 1247.980469 -71.046875 L 1326.433594 -58.351562 L 1329.539062 -57.261719 L 1332.757812 -54.960938 L 1335.171875 -52.703125 L 1337.117188 -49.246094 L 1338.332031 -46.109375 L 1339.085938 -41.863281 L 1336.085938 -0.679688 L 1336.300781 1.320312 L 1337.535156 3.464844 L 1340.460938 4.710938 L 1353.175781 5.089844 L 1361.105469 6.746094 L 1370.316406 16.875 L 1358.707031 51.527344 L 1359.441406 62.578125 L 1363.128906 67.738281 L 1371.601562 67.371094 "/>
<path style="fill:none;stroke-width:0.5;stroke-linecap:butt;stroke-linejoin:miter;stroke:rgb(50.196078%,50.196078%,50.196078%);stroke-opacity:1;stroke-miterlimit:4;" d="M -4.828125 781.4375 L -1.820312 779.78125 L 2.578125 777.582031 L 10.574219 774.835938 L 60.605469 764.539062 L 91.164062 758.582031 L 146.019531 744.996094 L 178.371094 735.046875 L 186.613281 731.8125 L 189.933594 728.277344 L 190.765625 725 "/>
<path style="fill:none;stroke-width:0.5;stroke-linecap:butt;stroke-linejoin:miter;stroke:rgb(50.196078%,50.196078%,50.196078%);stroke-opacity:1;stroke-miterlimit:4;" d="M 117.917969 632.082031 L 118.566406 640.664062 L 135.523438 708.277344 L 135.628906 712.4375 "/>
<path style="fill:none;stroke-width:0.5;stroke-linecap:butt;stroke-linejoin:miter;stroke:rgb(50.196078%,50.196078%,50.196078%);stroke-opacity:1;stroke-miterlimit:4;" d="M 120.28125 816.898438 L 112.464844 788.675781 L 162.261719 772.699219 L 171.410156 796.667969 "/>
<path style="fill:none;stroke-width:0.5;stroke-linecap:butt;stroke-linejoin:miter;stroke:rgb(50.196078%,50.196078%,50.196078%);stroke-opacity:1;stroke-miterlimit:4;" d="M 253.414062 742.664062 L 255.273438 738.070312 L 256.121094 733.113281 L 257.390625 728.589844 L 260.089844 723.488281 L 268.867188 713.015625 L 275.089844 709.757812 L 281.324219 707.34375 "/>
<path style="fill:none;stroke-width:0.5;stroke-linecap:butt;stroke-linejoin:miter;stroke:rgb(50.196078%,50.196078%,50.196078%);stroke-opacity:1;stroke-miterlimit:4;" d="M 220.609375 674.183594 L 203.421875 690.625 L 178.011719 715.660156 L 176.707031 717.714844 L 175.496094 720.828125 "/>
<path style="fill:none;stroke-width:0.5;stroke-linecap:butt;stroke-linejoin:miter;stroke:rgb(50.196078%,50.196078%,50.196078%);stroke-opacity:1;stroke-miterlimit:4;" d="M 158.558594 716.339844 L 160.398438 703.242188 "/>
<path style="fill:none;stroke-width:0.5;stroke-linecap:butt;stroke-linejoin:miter;stroke:rgb(50.196078%,50.196078%,50.196078%);stroke-opacity:1;stroke-miterlimit:4;" d="M 160.398438 703.242188 L 161.984375 693.4375 L 161.984375 690.445312 L 160.398438 683.53125 L 152.484375 655.394531 L 151.535156 649.515625 L 153.335938 645.546875 L 159.464844 641.253906 L 165.632812 639.066406 "/>
<path style="fill:none;stroke-width:0.5;stroke-linecap:butt;stroke-linejoin:miter;stroke:rgb(50.196078%,50.196078%,50.196078%);stroke-opacity:1;stroke-miterlimit:4;" d="M 160.398438 683.53125 L 164.976562 680.730469 L 181.324219 669.980469 L 200.191406 653.449219 L 206.175781 644.769531 L 208.976562 637.195312 L 209.816406 628.792969 "/>
<path style="fill:none;stroke-width:0.5;stroke-linecap:butt;stroke-linejoin:miter;stroke:rgb(50.196078%,50.196078%,50.196078%);stroke-opacity:1;stroke-miterlimit:4;" d="M 301.054688 514.621094 L 292.453125 534.609375 "/>
<path style="fill:none;stroke-width:0.5;stroke-linecap:butt;stroke-linejoin:miter;stroke:rgb(50.196078%,50.196078%,50.196078%);stroke-opacity:1;stroke-miterlimit:4;" d="M 243.316406 510.316406 L 241.011719 515.699219 L 246.054688 525.46875 L 249.597656 533.085938 L 264.410156 536.84375 L 326.003906 567.636719 "/>
<path style="fill:none;stroke-width:0.5;stroke-linecap:butt;stroke-linejoin:miter;stroke:rgb(50.196078%,50.196078%,50.196078%);stroke-opacity:1;stroke-miterlimit:4;" d="M 249.597656 533.085938 L 237.148438 539.199219 L 221.378906 551.21875 "/>
<path style="fill:none;stroke-width:0.5;stroke-linecap:butt;stroke-linejoin:miter;stroke:rgb(50.196078%,50.196078%,50.196078%);stroke-opacity:1;stroke-miterlimit:4;" d="M 84.082031 504.101562 L 92.8125 523.003906 "/>
<path style="fill:none;stroke-width:0.5;stroke-linecap:butt;stroke-linejoin:miter;stroke:rgb(50.196078%,50.196078%,50.196078%);stroke-opacity:1;stroke-miterlimit:4;" d="M 142.5 430.828125 L 134.371094 436.734375 L 130.488281 443.371094 L 123.617188 461.289062 L 120.832031 467.304688 L 118.59375 475.464844 L 115.726562 494.277344 L 114.335938 500.300781 L 112.464844 506.261719 L 111.144531 508.726562 L 110.152344 510.605469 L 108.519531 512.964844 L 106.652344 514.632812 L 92.8125 523.003906 L 61.085938 542.125 L 53.949219 545.738281 L 40.738281 552.917969 L 25.808594 561.824219 L 12.660156 570.550781 L 3.21875 577.398438 L -5.367188 586.269531 L -12.429688 594.917969 L -16.3125 600.367188 L -20.3125 608.09375 L -24.601562 622.824219 L -25.488281 626.058594 L -26.929688 635.71875 L -27.21875 645.632812 L -26.015625 656.328125 L -24.058594 666.65625 L -19.449219 681.054688 L -13.398438 690.269531 L -8.421875 695.058594 L -6.605469 696.648438 "/>
<path style="fill:none;stroke-width:0.5;stroke-linecap:butt;stroke-linejoin:miter;stroke:rgb(50.196078%,50.196078%,50.196078%);stroke-opacity:1;stroke-miterlimit:4;" d="M 25.808594 561.824219 L 70.160156 583.457031 "/>
<path style="fill:none;stroke-width:0.5;stroke-linecap:butt;stroke-linejoin:miter;stroke:rgb(50.196078%,50.196078%,50.196078%);stroke-opacity:1;stroke-miterlimit:4;" d="M -5.367188 586.269531 L 44.363281 613.863281 "/>
<path style="fill:none;stroke-width:0.5;stroke-linecap:butt;stroke-linejoin:miter;stroke:rgb(50.196078%,50.196078%,50.196078%);stroke-opacity:1;stroke-miterlimit:4;" d="M -24.601562 622.824219 L 6.125 638.507812 L 29.160156 655.785156 L 44.132812 673.984375 L 73.847656 657.863281 "/>
<path style="fill:none;stroke-width:0.5;stroke-linecap:butt;stroke-linejoin:miter;stroke:rgb(50.196078%,50.196078%,50.196078%);stroke-opacity:1;stroke-miterlimit:4;" d="M -54.941406 538.464844 L -47.269531 531.140625 L -31.59375 519.890625 L -11.144531 509.160156 L 8.972656 505.582031 L 27.039062 505.914062 L 35.050781 511.886719 L 53.949219 545.738281 "/>
<path style="fill:none;stroke-width:0.5;stroke-linecap:butt;stroke-linejoin:miter;stroke:rgb(50.196078%,50.196078%,50.196078%);stroke-opacity:1;stroke-miterlimit:4;" d="M -21.191406 443.371094 L -13.183594 446.4375 L 30.273438 441.835938 L 37.234375 441.335938 L 43.90625 442.347656 L 47.21875 444.769531 L 49.515625 447.773438 L 51.507812 453.996094 L 53.796875 462.457031 L 56.804688 487.714844 "/>
<path style="fill:none;stroke-width:0.5;stroke-linecap:butt;stroke-linejoin:miter;stroke:rgb(50.196078%,50.196078%,50.196078%);stroke-opacity:1;stroke-miterlimit:4;" d="M 46.683594 371.375 L 45.714844 378.667969 L 51.941406 425.027344 "/>
<path style="fill:none;stroke-width:0.5;stroke-linecap:butt;stroke-linejoin:miter;stroke:rgb(50.196078%,50.196078%,50.196078%);stroke-opacity:1;stroke-miterlimit:4;" d="M 85.523438 395.410156 L 94.171875 378.332031 L 100.011719 366.859375 L 107.308594 363.324219 L 112.78125 362.890625 L 118.359375 367.503906 L 123.617188 383.28125 L 129.304688 393.476562 "/>
<path style="fill:none;stroke-width:0.5;stroke-linecap:butt;stroke-linejoin:miter;stroke:rgb(50.196078%,50.196078%,50.196078%);stroke-opacity:1;stroke-miterlimit:4;" d="M 170.785156 341.535156 L 174.160156 344.4375 L 172.441406 349.484375 L 165.039062 360.855469 L 138.8125 387.136719 L 129.304688 393.476562 L 114.304688 413.71875 "/>
<path style="fill:none;stroke-width:0.5;stroke-linecap:butt;stroke-linejoin:miter;stroke:rgb(50.196078%,50.196078%,50.196078%);stroke-opacity:1;stroke-miterlimit:4;" d="M 173.984375 458.511719 L 168.753906 465.046875 L 167.402344 469.984375 L 169.441406 476.964844 L 178.027344 489.839844 L 184.652344 495.230469 L 189.828125 496.386719 L 195.636719 495.898438 L 205.296875 487.773438 "/>
<path style="fill:none;stroke-width:0.5;stroke-linecap:butt;stroke-linejoin:miter;stroke:rgb(50.196078%,50.196078%,50.196078%);stroke-opacity:1;stroke-miterlimit:4;" d="M 200.191406 385.847656 L 194.179688 405.160156 L 184.089844 455.164062 L 173.984375 458.511719 "/>
<path style="fill:none;stroke-width:0.5;stroke-linecap:butt;stroke-linejoin:miter;stroke:rgb(50.196078%,50.196078%,50.196078%);stroke-opacity:1;stroke-miterlimit:4;" d="M 233.660156 242.765625 L 172.53125 251.992188 L 160.734375 253.339844 L 156.03125 251.191406 L 153.375 247.359375 L 142.476562 200.296875 L 142.613281 195.703125 L 144.003906 191.523438 L 146.691406 188.089844 L 148.269531 184.230469 L 142.308594 158.261719 "/>
<path style="fill:none;stroke-width:0.5;stroke-linecap:butt;stroke-linejoin:miter;stroke:rgb(50.196078%,50.196078%,50.196078%);stroke-opacity:1;stroke-miterlimit:4;" d="M 242.0625 288.125 L 292.710938 264.3125 "/>
<path style="fill:none;stroke-width:0.5;stroke-linecap:butt;stroke-linejoin:miter;stroke:rgb(50.196078%,50.196078%,50.196078%);stroke-opacity:1;stroke-miterlimit:4;" d="M -309.476562 217.75 L -303.195312 224.464844 L -285.695312 245.566406 L -273.957031 256.339844 L -259.714844 266.523438 L -236.613281 277.585938 L -211.609375 288.960938 L -197.992188 294.785156 L -162.539062 309.136719 L -86.691406 329.117188 L -52.695312 338.078125 L -47.035156 339.476562 L -20.410156 348.804688 L 46.683594 371.375 L 60.628906 375.664062 L 85.523438 395.410156 L 114.304688 413.71875 L 142.5 430.828125 L 150.445312 437.746094 "/>
<path style="fill:none;stroke-width:0.5;stroke-linecap:butt;stroke-linejoin:miter;stroke:rgb(50.196078%,50.196078%,50.196078%);stroke-opacity:1;stroke-miterlimit:4;" d="M 213.488281 -474.636719 L 207.785156 -466.398438 L 198.789062 -453.445312 L 194.332031 -444.917969 L 191.539062 -437.636719 L 188.757812 -429.40625 L 187.234375 -418.84375 L 185.921875 -399.574219 L 186.035156 -388.347656 L 186.148438 -377.695312 L 180.617188 -358.335938 L 178.3125 -327.238281 L 181.082031 -306.046875 L 181.609375 -296.695312 L 182.234375 -285.542969 L 180.164062 -259.980469 L 169.730469 -235.585938 L 157.125 -202.289062 L 142.730469 -173.046875 L 137.410156 -162.605469 L 123.296875 -134.800781 L 119.863281 -126.527344 L 118.136719 -116.5 L 117.085938 -91.160156 L 116.183594 -59.21875 L 116.214844 -39.027344 L 115.785156 -31.511719 L 115.054688 -24.585938 L 113.742188 -15.847656 L 111.4375 -2.449219 L 111.117188 3.144531 L 111.253906 7.925781 L 111.757812 13.925781 L 113.382812 20.730469 L 122.039062 42.335938 L 128.074219 59.945312 L 137.9375 92.097656 L 148.535156 108.453125 L 163.28125 132.410156 L 173.183594 154.292969 L 182.394531 175.25 L 189.539062 181.707031 L 191.941406 183.988281 L 207.046875 198.285156 L 220.179688 215.339844 L 229.851562 232.839844 L 233.660156 242.765625 L 242.0625 288.125 L 247.125 306.558594 L 255.648438 319.222656 L 266.472656 337.421875 L 275.003906 351.015625 L 292.160156 385.972656 L 306.753906 413.253906 L 330.492188 444.214844 L 349.511719 466.171875 L 379.292969 518.222656 L 385.488281 530.449219 L 400.378906 554.484375 L 413.203125 570.550781 L 422.550781 580.710938 L 424.507812 584.589844 L 423.308594 590.527344 "/>
<path style="fill:none;stroke-width:0.5;stroke-linecap:butt;stroke-linejoin:miter;stroke:rgb(50.196078%,50.196078%,50.196078%);stroke-opacity:1;stroke-miterlimit:4;" d="M 840.0625 43.457031 L 845.152344 44.402344 L 870.898438 50.605469 L 876.0625 55.019531 L 876.0625 105.882812 L 879.382812 109.386719 L 926.003906 123.949219 L 934.542969 130.042969 L 978.621094 180.007812 L 980.304688 182.621094 L 981.648438 187.023438 L 981.96875 190.992188 L 981.960938 194.203125 L 977.644531 215.28125 L 977.460938 220.988281 L 978.589844 226.132812 L 982.023438 232.671875 L 982.671875 236.273438 L 978.382812 240.820312 L 961.941406 259.953125 "/>
<path style="fill:none;stroke-width:0.5;stroke-linecap:butt;stroke-linejoin:miter;stroke:rgb(50.196078%,50.196078%,50.196078%);stroke-opacity:1;stroke-miterlimit:4;" d="M 994.554688 387.472656 L 1009.851562 386.371094 L 1083.199219 346.015625 "/>
<path style="fill:none;stroke-width:0.5;stroke-linecap:butt;stroke-linejoin:miter;stroke:rgb(50.196078%,50.196078%,50.196078%);stroke-opacity:1;stroke-miterlimit:4;" d="M 862.507812 463.546875 L 876.707031 452.308594 L 892.632812 441.101562 L 898.527344 440.035156 L 913.265625 447.472656 L 921.292969 454.421875 L 950.65625 483.203125 L 968.582031 490.984375 "/>
<path style="fill:none;stroke-width:0.5;stroke-linecap:butt;stroke-linejoin:miter;stroke:rgb(50.196078%,50.196078%,50.196078%);stroke-opacity:1;stroke-miterlimit:4;" d="M 828.421875 262.410156 L 835.4375 263.3125 L 851.550781 267.324219 L 881.957031 272.851562 L 890.0625 275.984375 L 914.394531 292.382812 L 939.824219 314.6875 L 949.53125 325.546875 L 963.402344 340.46875 L 974.839844 357.253906 L 994.554688 387.472656 L 997.257812 391.117188 L 1001.441406 395.042969 L 1038.050781 416.222656 L 1055.738281 425.4375 L 1059.980469 430.972656 L 1087.066406 430.597656 "/>
<path style="fill:none;stroke-width:0.5;stroke-linecap:butt;stroke-linejoin:miter;stroke:rgb(50.196078%,50.196078%,50.196078%);stroke-opacity:1;stroke-miterlimit:4;" d="M 742.949219 393.886719 L 741.277344 416.097656 L 736.667969 440.855469 L 733.714844 450.351562 L 727.785156 466.339844 "/>
<path style="fill:none;stroke-width:0.5;stroke-linecap:butt;stroke-linejoin:miter;stroke:rgb(50.196078%,50.196078%,50.196078%);stroke-opacity:1;stroke-miterlimit:4;" d="M 407.820312 169.101562 L 405.410156 174.78125 L 408.089844 178.214844 L 470.4375 210.835938 L 473.117188 215.671875 L 472.6875 219.207031 L 468.078125 223.5 L 433.3125 253.972656 L 426.652344 255.585938 "/>
<path style="fill:none;stroke-width:0.5;stroke-linecap:butt;stroke-linejoin:miter;stroke:rgb(50.196078%,50.196078%,50.196078%);stroke-opacity:1;stroke-miterlimit:4;" d="M 292.160156 385.972656 L 352.832031 346.324219 L 360.203125 300.945312 L 370.5625 267.769531 L 389.457031 229.523438 "/>
<path style="fill:none;stroke-width:0.5;stroke-linecap:butt;stroke-linejoin:miter;stroke:rgb(50.196078%,50.196078%,50.196078%);stroke-opacity:1;stroke-miterlimit:4;" d="M 444.6875 593.886719 L 445.769531 589.582031 L 449.273438 581.578125 L 456.089844 573.707031 L 458.957031 569.617188 L 460.996094 566.082031 L 465.539062 556.664062 L 467.109375 550.574219 L 467.613281 543.992188 L 465.714844 535.765625 L 462.789062 528.785156 L 453.820312 510.273438 L 417.109375 435.332031 L 415.066406 428.25 L 415.84375 422.367188 L 420.773438 401.179688 L 419.378906 388.40625 L 422.285156 362.667969 L 415.722656 355.53125 "/>
<path style="fill:none;stroke-width:0.5;stroke-linecap:butt;stroke-linejoin:miter;stroke:rgb(50.196078%,50.196078%,50.196078%);stroke-opacity:1;stroke-miterlimit:4;" d="M 420.773438 401.179688 L 436.839844 413.910156 L 453.464844 432.542969 L 468.324219 450.828125 L 487.433594 473.707031 L 486.257812 480.667969 "/>
<path style="fill:none;stroke-width:0.5;stroke-linecap:butt;stroke-linejoin:miter;stroke:rgb(50.196078%,50.196078%,50.196078%);stroke-opacity:1;stroke-miterlimit:4;" d="M 566.03125 475.34375 L 561.796875 466.871094 L 555.714844 459.679688 L 549.074219 444.75 L 546.128906 432.40625 L 542.257812 414.53125 L 537.832031 399.421875 L 532.3125 386.335938 L 523.277344 370.304688 L 512.957031 357.589844 L 504.300781 350.21875 L 500.792969 338.234375 L 493.058594 326.070312 L 484.574219 316.121094 L 474.8125 305.246094 L 471.726562 299.421875 L 469.109375 291.351562 L 468.613281 285.28125 L 469.078125 278.664062 L 470.652344 274.796875 L 472.582031 271.472656 L 476.839844 265.613281 L 484.023438 256.785156 L 491.585938 250.515625 L 507.53125 240.863281 "/>
<path style="fill:none;stroke-width:0.5;stroke-linecap:butt;stroke-linejoin:miter;stroke:rgb(50.196078%,50.196078%,50.196078%);stroke-opacity:1;stroke-miterlimit:4;" d="M 507.53125 240.863281 L 505.636719 237.773438 L 501.121094 238.308594 L 494.808594 241.210938 L 484.960938 247.722656 L 478.96875 252.261719 L 473.847656 257.796875 L 467.398438 266.089844 L 463.867188 272.75 L 462.683594 279.109375 L 462.195312 287.160156 L 462.386719 290.671875 L 463.195312 294.652344 L 465.957031 302.957031 L 472.695312 313.773438 L 481.449219 325.523438 L 493.425781 340.265625 L 504.300781 350.21875 L 506.09375 359.378906 L 516.460938 374.128906 L 524.75 386.558594 L 530.046875 396.933594 L 533.738281 409.140625 L 538.34375 426.183594 L 543.53125 442.078125 L 546.699219 457.089844 L 556.644531 471.90625 L 566.03125 475.34375 "/>
<path style="fill:none;stroke-width:0.5;stroke-linecap:butt;stroke-linejoin:miter;stroke:rgb(50.196078%,50.196078%,50.196078%);stroke-opacity:1;stroke-miterlimit:4;" d="M 813.777344 278.019531 L 812.824219 285.925781 L 813.714844 296.6875 L 813.523438 304.390625 L 812.90625 309.9375 L 811.570312 313.90625 L 808.777344 318.367188 L 805.367188 321.332031 L 792.789062 327.972656 L 785.597656 333.230469 L 779.738281 338.921875 L 760.273438 366.804688 L 750.6875 380.800781 L 742.949219 393.886719 L 727.835938 412.875 L 715.855469 422.269531 L 701.117188 428.171875 L 665.726562 433.507812 L 652.460938 437.753906 L 638.460938 446.960938 L 628.503906 461.15625 L 616.34375 474.785156 L 604.734375 480.867188 L 581.511719 481.613281 L 566.03125 475.34375 "/>
<path style="fill:none;stroke-width:0.5;stroke-linecap:butt;stroke-linejoin:miter;stroke:rgb(50.196078%,50.196078%,50.196078%);stroke-opacity:1;stroke-miterlimit:4;" d="M 640.867188 561.691406 L 639.828125 554.21875 L 640.125 546.257812 L 634.226562 547.882812 L 625.671875 552.007812 L 617.710938 556.875 L 612.847656 556.71875 L 612.695312 550.683594 "/>
<path style="fill:none;stroke-width:0.5;stroke-linecap:butt;stroke-linejoin:miter;stroke:rgb(50.196078%,50.196078%,50.196078%);stroke-opacity:1;stroke-miterlimit:4;" d="M 627.039062 626.757812 L 616.976562 623.800781 L 602.820312 616.285156 L 591.792969 608.75 L 593.089844 597.566406 "/>
<path style="fill:none;stroke-width:0.5;stroke-linecap:butt;stroke-linejoin:miter;stroke:rgb(50.196078%,50.196078%,50.196078%);stroke-opacity:1;stroke-miterlimit:4;" d="M 607.46875 672.359375 L 610.582031 668.824219 L 618.695312 654.695312 L 625.890625 637.417969 L 627.039062 626.757812 L 631.363281 604.589844 L 635.105469 581.554688 L 640.867188 561.691406 L 648.0625 551.316406 L 653.535156 538.367188 L 663.261719 529.09375 L 675.242188 514.574219 "/>
<path style="fill:none;stroke-width:0.5;stroke-linecap:butt;stroke-linejoin:miter;stroke:rgb(50.196078%,50.196078%,50.196078%);stroke-opacity:1;stroke-miterlimit:4;" d="M 566.535156 608.828125 L 591.792969 608.75 "/>
<path style="fill:none;stroke-width:0.5;stroke-linecap:butt;stroke-linejoin:miter;stroke:rgb(50.196078%,50.196078%,50.196078%);stroke-opacity:1;stroke-miterlimit:4;" d="M 379.292969 518.222656 L 366.292969 556.898438 "/>
<path style="fill:none;stroke-width:0.5;stroke-linecap:butt;stroke-linejoin:miter;stroke:rgb(50.196078%,50.196078%,50.196078%);stroke-opacity:1;stroke-miterlimit:4;" d="M 150.445312 437.746094 L 173.984375 458.511719 L 180.082031 464.136719 L 205.296875 487.773438 L 218.96875 498.457031 L 229.46875 504.714844 L 243.316406 510.316406 L 255.984375 515.441406 L 265.042969 519.84375 L 292.453125 534.609375 L 361.210938 570.105469 L 373.765625 575.53125 L 387.613281 580.542969 L 392.632812 582.355469 L 419.933594 589.617188 L 423.308594 590.527344 L 427.199219 591.382812 L 444.6875 593.886719 L 466.035156 598.296875 L 482.160156 604.179688 L 551.269531 641.898438 L 560.316406 646.800781 L 607.46875 672.359375 L 614.175781 676.984375 "/>
<path style="fill:none;stroke-width:0.5;stroke-linecap:butt;stroke-linejoin:miter;stroke:rgb(50.196078%,50.196078%,50.196078%);stroke-opacity:1;stroke-miterlimit:4;" d="M 361.074219 586.101562 L 358.960938 589.515625 L 353.433594 596.507812 L 347.417969 601.710938 L 344.488281 606.425781 L 343.023438 611.792969 L 342.367188 620.085938 L 340.582031 686.121094 L 341.070312 692.960938 L 342.855469 698.328125 L 348.878906 703.53125 L 352.25 707.222656 L 354.121094 712.824219 L 354.121094 720.671875 L 353.496094 732.3125 "/>
<path style="fill:none;stroke-width:0.5;stroke-linecap:butt;stroke-linejoin:miter;stroke:rgb(50.196078%,50.196078%,50.196078%);stroke-opacity:1;stroke-miterlimit:4;" d="M 444.6875 593.886719 L 422.550781 580.710938 "/>
<path style="fill:none;stroke-width:0.5;stroke-linecap:butt;stroke-linejoin:miter;stroke:rgb(50.196078%,50.196078%,50.196078%);stroke-opacity:1;stroke-miterlimit:4;" d="M 482.160156 604.179688 L 487.382812 596.230469 L 491.359375 578.988281 L 500.945312 562.769531 L 512.597656 554.507812 L 518.046875 549.207031 L 518.046875 546.402344 "/>
<path style="fill:none;stroke-width:0.5;stroke-linecap:butt;stroke-linejoin:miter;stroke:rgb(50.196078%,50.196078%,50.196078%);stroke-opacity:1;stroke-miterlimit:4;" d="M 534.625 590.003906 L 482.160156 604.179688 "/>
<path style="fill:none;stroke-width:0.5;stroke-linecap:butt;stroke-linejoin:miter;stroke:rgb(50.196078%,50.196078%,50.196078%);stroke-opacity:1;stroke-miterlimit:4;" d="M 417.996094 744.285156 L 417.691406 741.960938 L 416.605469 737.570312 L 415.898438 735.648438 L 411.308594 726.753906 L 411.148438 721.230469 L 411.964844 715.859375 L 415.050781 710.65625 L 420.253906 704.476562 L 432.941406 696.015625 L 476.199219 673.4375 L 499.347656 664.289062 L 529.863281 652.203125 L 542.648438 648.546875 L 548.59375 645.277344 L 551.269531 641.898438 "/>
<path style="fill:none;stroke-width:0.5;stroke-linecap:butt;stroke-linejoin:miter;stroke:rgb(50.196078%,50.196078%,50.196078%);stroke-opacity:1;stroke-miterlimit:4;" d="M 353.496094 732.3125 L 352.074219 751.722656 L 351.878906 755.113281 "/>
<path style="fill:none;stroke-width:0.5;stroke-linecap:butt;stroke-linejoin:miter;stroke:rgb(50.196078%,50.196078%,50.196078%);stroke-opacity:1;stroke-miterlimit:4;" d="M 330.886719 761.273438 L 339.078125 785.128906 "/>
<path style="fill:none;stroke-width:0.5;stroke-linecap:butt;stroke-linejoin:miter;stroke:rgb(50.196078%,50.196078%,50.196078%);stroke-opacity:1;stroke-miterlimit:4;" d="M 421.214844 764.984375 L 421.179688 767.921875 L 421.613281 780.75 L 421.542969 792.519531 L 430.839844 841.480469 L 432.789062 856.820312 L 435.390625 886.15625 L 434.757812 896.75 L 433.40625 909.445312 "/>
<path style="fill:none;stroke-width:0.5;stroke-linecap:butt;stroke-linejoin:miter;stroke:rgb(50.196078%,50.196078%,50.196078%);stroke-opacity:1;stroke-miterlimit:4;" d="M 507.378906 833.363281 L 503.722656 839.257812 L 499.53125 840.734375 L 484.863281 839.257812 "/>
<path style="fill:none;stroke-width:0.5;stroke-linecap:butt;stroke-linejoin:miter;stroke:rgb(50.196078%,50.196078%,50.196078%);stroke-opacity:1;stroke-miterlimit:4;" d="M 520.335938 739.117188 L 521.511719 746.941406 L 505.84375 829.894531 L 507.378906 833.363281 L 508.164062 835.132812 L 597.597656 850.839844 "/>
<path style="fill:none;stroke-width:0.5;stroke-linecap:butt;stroke-linejoin:miter;stroke:rgb(50.196078%,50.196078%,50.196078%);stroke-opacity:1;stroke-miterlimit:4;" d="M 555.804688 681.796875 L 551.515625 697.894531 L 548.453125 708.535156 L 547.050781 725.277344 L 546.25 737.347656 "/>
<path style="fill:none;stroke-width:0.5;stroke-linecap:butt;stroke-linejoin:miter;stroke:rgb(50.196078%,50.196078%,50.196078%);stroke-opacity:1;stroke-miterlimit:4;" d="M 589.484375 742.230469 L 591.746094 740.027344 L 625.175781 704.988281 L 630.503906 695.714844 "/>
<path style="fill:none;stroke-width:0.5;stroke-linecap:butt;stroke-linejoin:miter;stroke:rgb(50.196078%,50.196078%,50.196078%);stroke-opacity:1;stroke-miterlimit:4;" d="M 614.175781 676.984375 L 619.847656 682.007812 L 626.136719 689.214844 L 630.503906 695.714844 "/>
<path style="fill:none;stroke-width:0.5;stroke-linecap:butt;stroke-linejoin:miter;stroke:rgb(50.196078%,50.196078%,50.196078%);stroke-opacity:1;stroke-miterlimit:4;" d="M 630.503906 695.714844 L 638.585938 696.082031 L 659.582031 698.085938 L 678.394531 699.519531 L 696.996094 699.441406 L 743.828125 696.90625 "/>
<path style="fill:none;stroke-width:0.5;stroke-linecap:butt;stroke-linejoin:miter;stroke:rgb(50.196078%,50.196078%,50.196078%);stroke-opacity:1;stroke-miterlimit:4;" d="M 681.9375 795.878906 L 684.675781 788.21875 L 687.636719 777.992188 L 687.753906 771.957031 L 686.035156 763.453125 L 681.960938 758.761719 L 677.035156 751.855469 L 675.554688 746.441406 L 675.800781 740.640625 L 678.515625 733.371094 L 684.179688 726.589844 L 685.042969 716.847656 L 683.691406 708.34375 "/>
<path style="fill:none;stroke-width:0.5;stroke-linecap:butt;stroke-linejoin:miter;stroke:rgb(50.196078%,50.196078%,50.196078%);stroke-opacity:1;stroke-miterlimit:4;" d="M 692.132812 841.269531 L 611.007812 806.074219 L 605.894531 805.304688 "/>
<path style="fill:none;stroke-width:0.5;stroke-linecap:butt;stroke-linejoin:miter;stroke:rgb(50.196078%,50.196078%,50.196078%);stroke-opacity:1;stroke-miterlimit:4;" d="M 779.269531 847.761719 L 789.03125 824.160156 L 789.675781 815.832031 L 779.691406 775.601562 L 779.316406 768.730469 "/>
<path style="fill:none;stroke-width:0.5;stroke-linecap:butt;stroke-linejoin:miter;stroke:rgb(50.196078%,50.196078%,50.196078%);stroke-opacity:1;stroke-miterlimit:4;" d="M 840.910156 743.785156 L 843.863281 758.75 L 854.386719 802.316406 L 856.5625 810.554688 L 863.128906 835.042969 L 862.914062 844.058594 L 856.585938 864.347656 L 854.59375 870.40625 L 853.738281 873.460938 "/>
<path style="fill:none;stroke-width:0.5;stroke-linecap:butt;stroke-linejoin:miter;stroke:rgb(50.196078%,50.196078%,50.196078%);stroke-opacity:1;stroke-miterlimit:4;" d="M 856.5625 810.554688 L 847.886719 812.886719 L 842.359375 810.851562 L 826.011719 746.164062 "/>
<path style="fill:none;stroke-width:0.5;stroke-linecap:butt;stroke-linejoin:miter;stroke:rgb(50.196078%,50.196078%,50.196078%);stroke-opacity:1;stroke-miterlimit:4;" d="M 840.910156 743.785156 L 826.011719 746.164062 L 797.136719 752.257812 L 788.277344 756.335938 L 782.269531 762.128906 L 779.316406 768.730469 "/>
<path style="fill:none;stroke-width:0.5;stroke-linecap:butt;stroke-linejoin:miter;stroke:rgb(50.196078%,50.196078%,50.196078%);stroke-opacity:1;stroke-miterlimit:4;" d="M 877.429688 681.519531 L 873.210938 689.113281 L 847.511719 734.070312 L 840.910156 743.785156 "/>
<path style="fill:none;stroke-width:0.5;stroke-linecap:butt;stroke-linejoin:miter;stroke:rgb(50.196078%,50.196078%,50.196078%);stroke-opacity:1;stroke-miterlimit:4;" d="M 743.828125 696.90625 L 760.535156 694.136719 L 784.140625 690.226562 L 829.917969 679.453125 L 853.097656 674.9375 L 864.707031 672.882812 L 872.570312 672.472656 L 875.613281 672.316406 "/>
<path style="fill:none;stroke-width:0.5;stroke-linecap:butt;stroke-linejoin:miter;stroke:rgb(50.196078%,50.196078%,50.196078%);stroke-opacity:1;stroke-miterlimit:4;" d="M 684.179688 726.589844 L 723.136719 722.898438 L 728.316406 724.863281 L 732.628906 728.933594 L 735.707031 735.09375 L 738.292969 744.953125 L 737.4375 755.070312 L 735.957031 763.941406 L 732.875 770.476562 L 725.472656 773.3125 L 713.023438 772.8125 L 686.035156 763.453125 "/>
<path style="fill:none;stroke-width:0.5;stroke-linecap:butt;stroke-linejoin:miter;stroke:rgb(50.196078%,50.196078%,50.196078%);stroke-opacity:1;stroke-miterlimit:4;" d="M 760.535156 694.136719 L 750.078125 651.882812 L 754.800781 638.175781 L 794.75 587.160156 "/>
<path style="fill:none;stroke-width:0.5;stroke-linecap:butt;stroke-linejoin:miter;stroke:rgb(50.196078%,50.196078%,50.196078%);stroke-opacity:1;stroke-miterlimit:4;" d="M 748.566406 597.808594 L 724.882812 579.578125 L 721.585938 577.53125 L 720.328125 576.753906 L 718.90625 576.429688 L 717.160156 576.542969 L 715.527344 577.296875 L 713.375 579.332031 L 702.542969 592.21875 "/>
<path style="fill:none;stroke-width:0.5;stroke-linecap:butt;stroke-linejoin:miter;stroke:rgb(50.196078%,50.196078%,50.196078%);stroke-opacity:1;stroke-miterlimit:4;" d="M 696.996094 699.441406 L 698.300781 685.089844 L 700.398438 673.984375 L 700.285156 669.46875 L 699.109375 664 L 697.171875 657.773438 L 694.667969 654.382812 L 672.992188 630.328125 L 671.746094 628.046875 L 671.425781 625.257812 L 672.175781 622.199219 L 673.527344 620.230469 L 692.21875 595.117188 L 694.4375 593.171875 L 696.910156 592.074219 L 699.75 591.695312 L 702.542969 592.21875 L 706.78125 595.898438 L 729.5 613.285156 L 731.996094 614.585938 L 734.46875 614.90625 L 736.394531 614.207031 L 738.492188 612.171875 L 748.566406 597.808594 L 782.15625 552.21875 L 782.523438 546.136719 L 779.753906 539.878906 L 769.066406 529.183594 L 763.167969 527.160156 "/>
<path style="fill:none;stroke-width:0.5;stroke-linecap:butt;stroke-linejoin:miter;stroke:rgb(50.196078%,50.196078%,50.196078%);stroke-opacity:1;stroke-miterlimit:4;" d="M 784.398438 464.035156 L 798.199219 476.121094 L 853.296875 516.054688 L 861.929688 524.558594 L 865.996094 526.660156 L 872.996094 527.050781 "/>
<path style="fill:none;stroke-width:0.5;stroke-linecap:butt;stroke-linejoin:miter;stroke:rgb(50.196078%,50.196078%,50.196078%);stroke-opacity:1;stroke-miterlimit:4;" d="M 839.496094 590.628906 L 839.863281 597.777344 L 839.863281 603.457031 L 840.726562 607.890625 L 846.398438 610.226562 L 869.570312 605.667969 L 881.84375 602.199219 "/>
<path style="fill:none;stroke-width:0.5;stroke-linecap:butt;stroke-linejoin:miter;stroke:rgb(50.196078%,50.196078%,50.196078%);stroke-opacity:1;stroke-miterlimit:4;" d="M 891.574219 670.527344 L 898 666.035156 L 905.007812 663.023438 L 955.136719 654.726562 L 970.742188 646.601562 L 996.921875 632.429688 L 1031.59375 614.140625 "/>
<path style="fill:none;stroke-width:0.5;stroke-linecap:butt;stroke-linejoin:miter;stroke:rgb(50.196078%,50.196078%,50.196078%);stroke-opacity:1;stroke-miterlimit:4;" d="M 868.796875 492.574219 L 874.46875 491.429688 L 894.191406 486.9375 L 903.097656 486.9375 L 911.46875 490.585938 L 928.316406 503.792969 L 930.246094 513.339844 L 934.214844 553.253906 L 935.078125 571.394531 L 927.566406 591.460938 L 921.445312 598.332031 L 914.691406 602.625 L 888.285156 608.203125 L 882.605469 608.835938 "/>
<path style="fill:none;stroke-width:0.5;stroke-linecap:butt;stroke-linejoin:miter;stroke:rgb(50.196078%,50.196078%,50.196078%);stroke-opacity:1;stroke-miterlimit:4;" d="M 935.078125 571.394531 L 941.625 560.34375 L 949.023438 539.3125 L 951.167969 529.761719 L 949.777344 521.710938 L 944.738281 513.664062 L 938.832031 508.828125 L 928.316406 503.792969 "/>
<path style="fill:none;stroke-width:0.5;stroke-linecap:butt;stroke-linejoin:miter;stroke:rgb(50.196078%,50.196078%,50.196078%);stroke-opacity:1;stroke-miterlimit:4;" d="M 890.480469 1020.042969 L 912.121094 1014.929688 L 923.027344 1010.671875 L 934.957031 1005.046875 L 936.152344 998.910156 L 941.265625 962.949219 "/>
<path style="fill:none;stroke-width:0.5;stroke-linecap:butt;stroke-linejoin:miter;stroke:rgb(50.196078%,50.196078%,50.196078%);stroke-opacity:1;stroke-miterlimit:4;" d="M 772.128906 844.8125 L 766.601562 857.953125 L 758.472656 895.226562 L 760.558594 946.441406 L 711.917969 937.683594 "/>
<path style="fill:none;stroke-width:0.5;stroke-linecap:butt;stroke-linejoin:miter;stroke:rgb(50.196078%,50.196078%,50.196078%);stroke-opacity:1;stroke-miterlimit:4;" d="M 934.847656 1226.78125 L 935.160156 1222.46875 L 935.285156 1220.757812 L 936.6875 1211.796875 L 938.617188 1185.507812 L 936.472656 1176.605469 L 931.535156 1168.765625 L 907.25 1150.226562 L 896.296875 1141.867188 L 875.140625 1124.003906 L 851.449219 1106.605469 L 849.085938 1105.503906 L 837.316406 1099.992188 L 823.667969 1095.035156 L 813.609375 1088.554688 L 811.914062 1086.972656 L 810.167969 1085.339844 L 807.304688 1081.0625 L 806.679688 1076.167969 L 807.136719 1070.65625 L 818.890625 1040.664062 L 828.84375 1019.832031 L 833.566406 1013.605469 L 840.214844 1010.828125 L 861.328125 1009.984375 L 884.679688 1009.304688 L 890.480469 1020.042969 L 891.671875 1027.714844 L 894.734375 1069.976562 L 896.441406 1107.140625 L 896.296875 1141.867188 "/>
<path style="fill:none;stroke-width:0.5;stroke-linecap:butt;stroke-linejoin:miter;stroke:rgb(50.196078%,50.196078%,50.196078%);stroke-opacity:1;stroke-miterlimit:4;" d="M 811.914062 1086.972656 L 804.207031 1091.277344 L 797.382812 1096.878906 L 792.628906 1107.117188 L 767.761719 1165.386719 L 766.417969 1167.832031 L 762.519531 1168.3125 L 745.820312 1162.707031 L 739.238281 1161.363281 L 734.605469 1162.707031 L 724.96875 1191.476562 "/>
<path style="fill:none;stroke-width:0.5;stroke-linecap:butt;stroke-linejoin:miter;stroke:rgb(50.196078%,50.196078%,50.196078%);stroke-opacity:1;stroke-miterlimit:4;" d="M 849.085938 1105.503906 L 838.460938 1120.167969 L 832.859375 1129.425781 L 819.9375 1167.710938 "/>
<path style="fill:none;stroke-width:0.5;stroke-linecap:butt;stroke-linejoin:miter;stroke:rgb(50.196078%,50.196078%,50.196078%);stroke-opacity:1;stroke-miterlimit:4;" d="M 907.25 1150.226562 L 908.570312 1140.132812 L 904.546875 1102.214844 L 904.304688 1087.707031 "/>
<path style="fill:none;stroke-width:0.5;stroke-linecap:butt;stroke-linejoin:miter;stroke:rgb(50.196078%,50.196078%,50.196078%);stroke-opacity:1;stroke-miterlimit:4;" d="M 1113.628906 1117.621094 L 1111.109375 1114.875 L 1109.925781 1112.929688 L 1060.042969 1031.691406 L 1054.234375 1022.175781 L 1045.144531 1014.03125 L 1003.601562 1007.902344 "/>
<path style="fill:none;stroke-width:0.5;stroke-linecap:butt;stroke-linejoin:miter;stroke:rgb(50.196078%,50.196078%,50.196078%);stroke-opacity:1;stroke-miterlimit:4;" d="M 895.359375 1252.636719 L 902.832031 1255.214844 L 907.144531 1254.773438 L 934.054688 1237.175781 L 934.847656 1226.78125 "/>
<path style="fill:none;stroke-width:0.5;stroke-linecap:butt;stroke-linejoin:miter;stroke:rgb(50.196078%,50.196078%,50.196078%);stroke-opacity:1;stroke-miterlimit:4;" d="M 942.105469 1291.320312 L 943.550781 1277.691406 L 937.757812 1242.433594 L 934.054688 1237.175781 "/>
<path style="fill:none;stroke-width:0.5;stroke-linecap:butt;stroke-linejoin:miter;stroke:rgb(50.196078%,50.196078%,50.196078%);stroke-opacity:1;stroke-miterlimit:4;" d="M 1047.644531 1334.351562 L 1045.417969 1284.339844 "/>
<path style="fill:none;stroke-width:0.5;stroke-linecap:butt;stroke-linejoin:miter;stroke:rgb(50.196078%,50.196078%,50.196078%);stroke-opacity:1;stroke-miterlimit:4;" d="M 506.226562 1540.15625 L 508.078125 1537.832031 L 510.261719 1535.976562 L 513.332031 1533.230469 L 518.695312 1529.941406 L 532.769531 1522.203125 L 669.753906 1468.304688 L 720.914062 1450.929688 L 781.332031 1432.859375 L 829.292969 1415.304688 L 843.136719 1411.492188 L 847.96875 1410.160156 L 885.09375 1402.222656 L 911.492188 1398.144531 L 931.238281 1394.917969 L 952.835938 1387.871094 L 975.207031 1377.222656 L 1047.644531 1334.351562 L 1081.265625 1309.71875 L 1104.742188 1292.632812 L 1113.101562 1288.363281 L 1121.71875 1284.953125 L 1136.011719 1282.628906 L 1150.582031 1281.136719 L 1165.078125 1280.828125 L 1206.894531 1286.152344 L 1298.765625 1298.933594 L 1313.335938 1299.144531 L 1328.570312 1297.222656 L 1358.6875 1292.277344 L 1365.28125 1290.886719 L 1424.957031 1286.25 L 1438.285156 1285.050781 L 1463.773438 1281.792969 L 1497.625 1275.167969 "/>
<path style="fill:none;stroke-width:0.5;stroke-linecap:butt;stroke-linejoin:miter;stroke:rgb(50.196078%,50.196078%,50.196078%);stroke-opacity:1;stroke-miterlimit:4;" d="M 787.164062 1375.65625 L 788.0625 1367.398438 L 787.101562 1361.171875 L 785.378906 1357.414062 L 769.929688 1336.027344 "/>
<path style="fill:none;stroke-width:0.5;stroke-linecap:butt;stroke-linejoin:miter;stroke:rgb(50.196078%,50.196078%,50.196078%);stroke-opacity:1;stroke-miterlimit:4;" d="M 854.441406 1282.984375 L 851.503906 1277.136719 L 851.023438 1271.625 L 854.03125 1262.773438 L 862.867188 1228.4375 L 871.898438 1201.335938 "/>
<path style="fill:none;stroke-width:0.5;stroke-linecap:butt;stroke-linejoin:miter;stroke:rgb(50.196078%,50.196078%,50.196078%);stroke-opacity:1;stroke-miterlimit:4;" d="M 810.847656 1310.339844 L 808.167969 1305.28125 L 806.449219 1301.558594 L 822.132812 1255.882812 L 837.46875 1205.605469 "/>
<path style="fill:none;stroke-width:0.5;stroke-linecap:butt;stroke-linejoin:miter;stroke:rgb(50.196078%,50.196078%,50.196078%);stroke-opacity:1;stroke-miterlimit:4;" d="M 822.132812 1255.882812 L 738.445312 1233.550781 "/>
<path style="fill:none;stroke-width:0.5;stroke-linecap:butt;stroke-linejoin:miter;stroke:rgb(50.196078%,50.196078%,50.196078%);stroke-opacity:1;stroke-miterlimit:4;" d="M 709.496094 1374.144531 L 706.613281 1370.019531 L 705.757812 1366.386719 L 705.007812 1362.296875 L 705.109375 1350.734375 L 705.734375 1344.355469 L 706.75 1338.929688 L 707.261719 1337.328125 L 708.152344 1335.851562 L 708.953125 1332.703125 L 709.519531 1328.679688 L 712.367188 1309.285156 L 711.863281 1297.523438 L 722.089844 1263.609375 L 680.667969 1251.847656 L 675.21875 1248.433594 L 681.011719 1218.957031 "/>
<path style="fill:none;stroke-width:0.5;stroke-linecap:butt;stroke-linejoin:miter;stroke:rgb(50.196078%,50.196078%,50.196078%);stroke-opacity:1;stroke-miterlimit:4;" d="M 711.863281 1297.523438 L 707.855469 1294.964844 L 698.789062 1292.121094 L 659.535156 1282.015625 "/>
<path style="fill:none;stroke-width:0.5;stroke-linecap:butt;stroke-linejoin:miter;stroke:rgb(50.196078%,50.196078%,50.196078%);stroke-opacity:1;stroke-miterlimit:4;" d="M 496.320312 1268.765625 L 502.859375 1269.6875 L 537.625 1272.769531 L 554.261719 1273.511719 "/>
<path style="fill:none;stroke-width:0.5;stroke-linecap:butt;stroke-linejoin:miter;stroke:rgb(50.196078%,50.196078%,50.196078%);stroke-opacity:1;stroke-miterlimit:4;" d="M 480.269531 1337.828125 L 488.6875 1338.71875 L 544.898438 1340.195312 L 555.492188 1340.074219 "/>
<path style="fill:none;stroke-width:0.5;stroke-linecap:butt;stroke-linejoin:miter;stroke:rgb(50.196078%,50.196078%,50.196078%);stroke-opacity:1;stroke-miterlimit:4;" d="M 406.464844 1348.757812 L 435.09375 1360.851562 "/>
<path style="fill:none;stroke-width:0.5;stroke-linecap:butt;stroke-linejoin:miter;stroke:rgb(50.196078%,50.196078%,50.196078%);stroke-opacity:1;stroke-miterlimit:4;" d="M 393.464844 1227.960938 L 396.664062 1272.691406 L 399.007812 1295.921875 L 404.546875 1313.175781 L 409.019531 1332.984375 L 406.464844 1348.757812 L 403.691406 1368.5625 L 403.265625 1389.875 L 400.921875 1423.53125 L 393.464844 1441.425781 L 378.558594 1456.554688 L 365.347656 1469.550781 L 364.066406 1486.378906 L 376.851562 1500.019531 L 393.894531 1529.417969 L 398.226562 1542.535156 L 401.699219 1550.714844 "/>
<path style="fill:none;stroke-width:0.5;stroke-linecap:butt;stroke-linejoin:miter;stroke:rgb(50.196078%,50.196078%,50.196078%);stroke-opacity:1;stroke-miterlimit:4;" d="M 498.128906 1129.617188 L 497.851562 1132.507812 L 498.242188 1136.550781 L 500.554688 1144.101562 L 501.820312 1147.847656 L 504.242188 1155.039062 L 507.195312 1163.574219 L 505.066406 1197.402344 L 506.554688 1237.253906 L 504.203125 1246.632812 L 498.324219 1261.472656 L 496.320312 1268.765625 L 493.242188 1280.039062 L 485.34375 1317.609375 L 480.269531 1337.828125 L 474.71875 1379.492188 L 473.109375 1391.53125 L 466.230469 1421.875 L 464.109375 1431.246094 L 456.59375 1462.257812 L 456.363281 1479.386719 L 461.4375 1507.1875 L 463.132812 1514.433594 L 464.933594 1521.058594 L 465.828125 1523.90625 "/>
<path style="fill:none;stroke-width:0.5;stroke-linecap:butt;stroke-linejoin:miter;stroke:rgb(50.196078%,50.196078%,50.196078%);stroke-opacity:1;stroke-miterlimit:4;" d="M 485.34375 1317.609375 L 479.816406 1316.53125 L 476.855469 1315.054688 L 467.117188 1311.230469 L 465.390625 1307.660156 L 466.75 1294.957031 L 468.71875 1274.746094 "/>
<path style="fill:none;stroke-width:0.5;stroke-linecap:butt;stroke-linejoin:miter;stroke:rgb(50.196078%,50.196078%,50.196078%);stroke-opacity:1;stroke-miterlimit:4;" d="M 329.835938 1222.558594 L 354.992188 1218.878906 L 352.433594 1193.488281 "/>
<path style="fill:none;stroke-width:0.5;stroke-linecap:butt;stroke-linejoin:miter;stroke:rgb(50.196078%,50.196078%,50.196078%);stroke-opacity:1;stroke-miterlimit:4;" d="M 433.40625 909.445312 L 427.4375 919.574219 L 414.257812 937.015625 L 406.640625 944.152344 L 400.738281 948.921875 L 398.578125 950.578125 L 378.765625 1004.046875 L 366.195312 1040.898438 L 338.503906 1092.675781 L 326.324219 1121.035156 L 297.175781 1188.964844 L 295.765625 1193.566406 L 289.925781 1212.621094 L 277.789062 1278.871094 L 265.640625 1365.796875 L 268.523438 1384.148438 L 272.554688 1409.894531 L 274.164062 1420.117188 L 283.445312 1460.414062 L 284.78125 1467.148438 "/>
<path style="fill:none;stroke-width:0.5;stroke-linecap:butt;stroke-linejoin:miter;stroke:rgb(50.196078%,50.196078%,50.196078%);stroke-opacity:1;stroke-miterlimit:4;" d="M 338.503906 1092.675781 L 345.550781 1094.023438 L 377.078125 1093 L 385.09375 1182.652344 "/>
<path style="fill:none;stroke-width:0.5;stroke-linecap:butt;stroke-linejoin:miter;stroke:rgb(50.196078%,50.196078%,50.196078%);stroke-opacity:1;stroke-miterlimit:4;" d="M 326.324219 1121.035156 L 339.550781 1127.558594 L 343.230469 1159.195312 "/>
<path style="fill:none;stroke-width:0.5;stroke-linecap:butt;stroke-linejoin:miter;stroke:rgb(50.196078%,50.196078%,50.196078%);stroke-opacity:1;stroke-miterlimit:4;" d="M 526.449219 1094.824219 L 523.816406 1092.445312 L 521.480469 1090.710938 L 495.347656 1090.832031 L 495.835938 1113.140625 L 497.683594 1116.84375 L 501.554688 1121.046875 "/>
<path style="fill:none;stroke-width:0.5;stroke-linecap:butt;stroke-linejoin:miter;stroke:rgb(50.196078%,50.196078%,50.196078%);stroke-opacity:1;stroke-miterlimit:4;" d="M 437.960938 1188.640625 L 447.097656 1187.554688 L 452.003906 1187.832031 L 457.050781 1190.6875 L 458.683594 1196.277344 L 457.1875 1199.558594 L 451.457031 1201.460938 L 445.050781 1202.414062 L 441.640625 1199.558594 L 440.550781 1191.511719 L 437.960938 1188.640625 L 433.871094 1186.597656 L 425.6875 1180.460938 L 421.460938 1170.234375 L 420.238281 1153.328125 L 416.691406 1106.5625 L 418.050781 1100.96875 L 423.375 1095.921875 L 428.824219 1093.878906 L 436.464844 1093.332031 L 442.730469 1095.113281 L 448.457031 1100.570312 L 452.136719 1109.972656 L 458.546875 1124.425781 L 470.003906 1143.511719 L 472.863281 1154.148438 L 474.503906 1162.199219 L 481.863281 1163.554688 L 507.195312 1163.574219 "/>
<path style="fill:none;stroke-width:0.5;stroke-linecap:butt;stroke-linejoin:miter;stroke:rgb(50.196078%,50.196078%,50.196078%);stroke-opacity:1;stroke-miterlimit:4;" d="M 447.097656 1187.554688 L 444.914062 1182.652344 L 441.097656 1178.414062 L 437.6875 1170.644531 "/>
<path style="fill:none;stroke-width:0.5;stroke-linecap:butt;stroke-linejoin:miter;stroke:rgb(50.196078%,50.196078%,50.196078%);stroke-opacity:1;stroke-miterlimit:4;" d="M 433.871094 1186.597656 L 438.777344 1183.328125 L 441.097656 1178.414062 "/>
<path style="fill:none;stroke-width:0.5;stroke-linecap:butt;stroke-linejoin:miter;stroke:rgb(50.196078%,50.196078%,50.196078%);stroke-opacity:1;stroke-miterlimit:4;" d="M 507.195312 1163.574219 L 512.09375 1164.066406 L 557.429688 1168.613281 L 561.957031 1172.980469 L 580.542969 1173.890625 "/>
<path style="fill:none;stroke-width:0.5;stroke-linecap:butt;stroke-linejoin:miter;stroke:rgb(50.196078%,50.196078%,50.196078%);stroke-opacity:1;stroke-miterlimit:4;" d="M 501.820312 1147.847656 L 507.050781 1148.402344 L 536.511719 1147.902344 "/>
<path style="fill:none;stroke-width:0.5;stroke-linecap:butt;stroke-linejoin:miter;stroke:rgb(50.196078%,50.196078%,50.196078%);stroke-opacity:1;stroke-miterlimit:4;" d="M 632.289062 1135.585938 L 621.320312 1136.195312 L 613.679688 1140.753906 L 605.046875 1149.878906 L 596.789062 1160.730469 L 586.929688 1163.808594 L 517.535156 1160.976562 L 512.09375 1164.066406 "/>
<path style="fill:none;stroke-width:0.5;stroke-linecap:butt;stroke-linejoin:miter;stroke:rgb(50.196078%,50.196078%,50.196078%);stroke-opacity:1;stroke-miterlimit:4;" d="M 589.996094 1042.097656 L 591.082031 1082.882812 L 637.945312 1097.535156 L 665.382812 1100.726562 "/>
<path style="fill:none;stroke-width:0.5;stroke-linecap:butt;stroke-linejoin:miter;stroke:rgb(50.196078%,50.196078%,50.196078%);stroke-opacity:1;stroke-miterlimit:4;" d="M 538.898438 1043.921875 L 589.996094 1042.097656 L 639.835938 1041.019531 L 674.433594 1040.273438 "/>
<path style="fill:none;stroke-width:0.5;stroke-linecap:butt;stroke-linejoin:miter;stroke:rgb(50.196078%,50.196078%,50.196078%);stroke-opacity:1;stroke-miterlimit:4;" d="M 530.632812 1089.042969 L 526.449219 1094.824219 L 508.589844 1112.0625 L 501.554688 1121.046875 L 499.273438 1125.414062 L 498.128906 1129.617188 "/>
<path style="fill:none;stroke-width:0.5;stroke-linecap:butt;stroke-linejoin:miter;stroke:rgb(50.196078%,50.196078%,50.196078%);stroke-opacity:1;stroke-miterlimit:4;" d="M 639.835938 1041.019531 L 640.082031 1006.460938 "/>
<path style="fill:none;stroke-width:0.5;stroke-linecap:butt;stroke-linejoin:miter;stroke:rgb(50.196078%,50.196078%,50.196078%);stroke-opacity:1;stroke-miterlimit:4;" d="M 599.523438 843.734375 L 605.214844 844.492188 L 632.890625 839.210938 L 648.261719 845.4375 L 659.703125 847.316406 L 682.484375 857.210938 "/>
<path style="fill:none;stroke-width:0.5;stroke-linecap:butt;stroke-linejoin:miter;stroke:rgb(50.196078%,50.196078%,50.196078%);stroke-opacity:1;stroke-miterlimit:4;" d="M 530.632812 1089.042969 L 532.410156 1082.195312 L 538.898438 1043.921875 L 540.617188 1032.972656 L 550.699219 1002.769531 L 558.316406 979.535156 L 564.382812 954.957031 L 569.152344 937.980469 L 571.519531 929.535156 L 576.398438 911.878906 L 578.976562 903.132812 L 581.007812 897.375 L 590.296875 874.75 L 594.585938 863.058594 L 596.410156 856.664062 L 597.597656 850.839844 L 599.523438 843.734375 L 605.894531 805.304688 L 610.527344 777.3125 L 612.832031 771.199219 "/>
<path style="fill:none;stroke-width:0.5;stroke-linecap:butt;stroke-linejoin:miter;stroke:rgb(50.196078%,50.196078%,50.196078%);stroke-opacity:1;stroke-miterlimit:4;" d="M 518.078125 925.285156 L 569.152344 937.980469 "/>
<path style="fill:none;stroke-width:0.5;stroke-linecap:butt;stroke-linejoin:miter;stroke:rgb(50.196078%,50.196078%,50.196078%);stroke-opacity:1;stroke-miterlimit:4;" d="M 524.734375 884.945312 L 581.007812 897.375 "/>
<path style="fill:none;stroke-width:0.5;stroke-linecap:butt;stroke-linejoin:miter;stroke:rgb(50.196078%,50.196078%,50.196078%);stroke-opacity:1;stroke-miterlimit:4;" d="M 433.40625 909.445312 L 435.457031 921.105469 L 437.175781 935.558594 L 437.398438 944.375 L 437.695312 948.753906 L 437.953125 950.886719 L 438.511719 952.710938 L 439.824219 956.546875 L 441.808594 960.726562 L 445.386719 968.6875 L 458.082031 1033.117188 L 465.539062 1077.582031 L 468.980469 1091.375 L 472.6875 1103.546875 L 476.039062 1112.996094 L 479.367188 1118.234375 L 483.199219 1122.96875 L 487.488281 1126.9375 L 490.289062 1128.238281 L 493.121094 1129.003906 L 498.128906 1129.617188 "/>
<path style="fill:none;stroke-width:0.5;stroke-linecap:butt;stroke-linejoin:miter;stroke:rgb(50.196078%,50.196078%,50.196078%);stroke-opacity:1;stroke-miterlimit:4;" d="M 221.898438 834.730469 L 355.386719 847.046875 L 364.707031 945.574219 "/>
<path style="fill:none;stroke-width:0.5;stroke-linecap:butt;stroke-linejoin:miter;stroke:rgb(50.196078%,50.196078%,50.196078%);stroke-opacity:1;stroke-miterlimit:4;" d="M 218.90625 895.652344 L 271.835938 901.640625 L 283.820312 937.925781 L 364.707031 945.574219 L 398.578125 950.578125 "/>
<path style="fill:none;stroke-width:0.5;stroke-linecap:butt;stroke-linejoin:miter;stroke:rgb(50.196078%,50.196078%,50.196078%);stroke-opacity:1;stroke-miterlimit:4;" d="M 206.917969 994.175781 L 208.253906 969.875 L 215.242188 931.078125 L 218.90625 895.652344 L 220.90625 848.371094 L 221.898438 834.730469 L 218.722656 785.785156 "/>
<path style="fill:none;stroke-width:0.5;stroke-linecap:butt;stroke-linejoin:miter;stroke:rgb(50.196078%,50.196078%,50.196078%);stroke-opacity:1;stroke-miterlimit:4;" d="M 220.90625 848.371094 L 175.554688 844.179688 "/>
<path style="fill:none;stroke-width:0.5;stroke-linecap:butt;stroke-linejoin:miter;stroke:rgb(50.196078%,50.196078%,50.196078%);stroke-opacity:1;stroke-miterlimit:4;" d="M 182.171875 927.632812 L 187.269531 898.773438 "/>
<path style="fill:none;stroke-width:0.5;stroke-linecap:butt;stroke-linejoin:miter;stroke:rgb(50.196078%,50.196078%,50.196078%);stroke-opacity:1;stroke-miterlimit:4;" d="M 158.238281 925.132812 L 182.171875 927.632812 L 215.242188 931.078125 L 259.664062 935.292969 "/>
<path style="fill:none;stroke-width:0.5;stroke-linecap:butt;stroke-linejoin:miter;stroke:rgb(50.196078%,50.196078%,50.196078%);stroke-opacity:1;stroke-miterlimit:4;" d="M 148.390625 1166.675781 L 242.925781 1134.453125 "/>
<path style="fill:none;stroke-width:0.5;stroke-linecap:butt;stroke-linejoin:miter;stroke:rgb(50.196078%,50.196078%,50.196078%);stroke-opacity:1;stroke-miterlimit:4;" d="M 123.992188 1104.195312 L 214.167969 1074.535156 "/>
<path style="fill:none;stroke-width:0.5;stroke-linecap:butt;stroke-linejoin:miter;stroke:rgb(50.196078%,50.196078%,50.196078%);stroke-opacity:1;stroke-miterlimit:4;" d="M 117.640625 1076.3125 L 122.226562 1070.109375 L 195.269531 1045.109375 L 201.261719 1040.453125 L 206.917969 994.175781 L 320.957031 1002.101562 L 332.933594 1083.316406 L 338.503906 1092.675781 "/>
<path style="fill:none;stroke-width:0.5;stroke-linecap:butt;stroke-linejoin:miter;stroke:rgb(50.196078%,50.196078%,50.196078%);stroke-opacity:1;stroke-miterlimit:4;" d="M 111.566406 1074.070312 L 108.71875 1075.957031 L 107.527344 1079.160156 L 108.175781 1082.003906 L 110.175781 1084.128906 L 112.984375 1084.929688 L 115.808594 1084.195312 L 117.902344 1082.0625 L 118.574219 1079.148438 L 117.640625 1076.3125 L 114.984375 1074.222656 L 111.566406 1074.070312 "/>
<path style="fill:none;stroke-width:0.5;stroke-linecap:butt;stroke-linejoin:miter;stroke:rgb(50.196078%,50.196078%,50.196078%);stroke-opacity:1;stroke-miterlimit:4;" d="M 5.738281 1142.589844 L 8.691406 1142.320312 L 11.644531 1141.832031 L 74.375 1121.835938 L 123.992188 1104.195312 "/>
<path style="fill:none;stroke-width:0.5;stroke-linecap:butt;stroke-linejoin:miter;stroke:rgb(50.196078%,50.196078%,50.196078%);stroke-opacity:1;stroke-miterlimit:4;" d="M 1.722656 1210.363281 L 11.804688 1212.441406 L 54.40625 1198.292969 L 60.660156 1195.722656 L 68.886719 1192.332031 L 71.65625 1187.429688 L 69.527344 1180.617188 L 66.335938 1178.90625 L 57.382812 1181.894531 L 57.597656 1188.285156 L 60.660156 1195.722656 "/>
<path style="fill:none;stroke-width:0.5;stroke-linecap:butt;stroke-linejoin:miter;stroke:rgb(50.196078%,50.196078%,50.196078%);stroke-opacity:1;stroke-miterlimit:4;" d="M -4.988281 1055.503906 L -2.003906 1054.835938 L -0.0195312 1054.382812 L 70.449219 1035.707031 "/>
<path style="fill:none;stroke-width:0.5;stroke-linecap:butt;stroke-linejoin:miter;stroke:rgb(50.196078%,50.196078%,50.196078%);stroke-opacity:1;stroke-miterlimit:4;" d="M 25.894531 941.195312 L 22.160156 939.671875 L 20.390625 938.914062 L 16.742188 938.703125 L 7.300781 941.0625 L -22.640625 951.800781 L -25.378906 954.269531 L -27.144531 956.089844 L -29.992188 957.003906 L -33.050781 956.300781 L -37.074219 956.46875 L -45.070312 958.660156 L -47.75 960.492188 L -48.285156 962.636719 L -48.339844 965.585938 L -40.5625 986.027344 L -37.714844 989.785156 L -32.675781 993.085938 L -25.113281 998.621094 L -5.847656 1012.640625 L -3.964844 1013.707031 L -0.269531 1015.597656 "/>
<path style="fill:none;stroke-width:0.5;stroke-linecap:butt;stroke-linejoin:miter;stroke:rgb(50.196078%,50.196078%,50.196078%);stroke-opacity:1;stroke-miterlimit:4;" d="M 100.765625 933.335938 L 93.292969 943.730469 L 85.960938 956.167969 L 76.082031 970.820312 L 70.800781 981.738281 L 66.535156 992.640625 L 65.175781 1005.246094 L 66.046875 1015.484375 L 70.449219 1035.707031 L 72.382812 1042.898438 L 78.929688 1066.609375 L 81.929688 1072.566406 L 85.953125 1076.4375 L 92.820312 1079.117188 L 103.445312 1079.4375 L 107.527344 1079.160156 "/>
<path style="fill:none;stroke-width:0.5;stroke-linecap:butt;stroke-linejoin:miter;stroke:rgb(50.196078%,50.196078%,50.196078%);stroke-opacity:1;stroke-miterlimit:4;" d="M 120.160156 976.265625 L 118.144531 1068.398438 L 114.984375 1074.222656 "/>
<path style="fill:none;stroke-width:0.5;stroke-linecap:butt;stroke-linejoin:miter;stroke:rgb(50.196078%,50.196078%,50.196078%);stroke-opacity:1;stroke-miterlimit:4;" d="M 93.914062 832.730469 L 105.054688 835.332031 L 116.472656 838.222656 L 120.738281 844.359375 L 117.496094 862.601562 L 97.890625 867.023438 L 91.25 868.226562 L 88.691406 883.898438 L 111.023438 895.148438 L 107.46875 923.785156 L 100.765625 933.335938 L 85.738281 932.800781 L 34.929688 933.558594 L 32.25 933.289062 L 28.921875 932.800781 "/>
<path style="fill:none;stroke-width:0.5;stroke-linecap:butt;stroke-linejoin:miter;stroke:rgb(50.196078%,50.196078%,50.196078%);stroke-opacity:1;stroke-miterlimit:4;" d="M 29.382812 877.71875 L -31.769531 904.789062 L -33.914062 906.5 L -34.777344 908.867188 L -31.90625 928.789062 "/>
<path style="fill:none;stroke-width:0.5;stroke-linecap:butt;stroke-linejoin:miter;stroke:rgb(50.196078%,50.196078%,50.196078%);stroke-opacity:1;stroke-miterlimit:4;" d="M 51.84375 1336.140625 L 31.863281 1340.484375 L 16.351562 1345.597656 L 7.828125 1367.753906 L 2.890625 1394.675781 L 3.394531 1399.964844 L 6.757812 1403.445312 L 15.460938 1405.902344 L 25.214844 1408.3125 L 38.851562 1417.171875 L 48.226562 1426.042969 "/>
<path style="fill:none;stroke-width:0.5;stroke-linecap:butt;stroke-linejoin:miter;stroke:rgb(50.196078%,50.196078%,50.196078%);stroke-opacity:1;stroke-miterlimit:4;" d="M -4.925781 1246.613281 L -2.140625 1247.367188 L 1.019531 1248.980469 L 3.914062 1251.125 L 6.652344 1254.695312 L 23.511719 1280.960938 L 32.730469 1294.964844 L 40.777344 1309.339844 L 47.621094 1322.945312 L 51.84375 1336.140625 L 56.75 1350.835938 L 62.925781 1371.710938 L 62.925781 1386.417969 L 58.660156 1406.65625 L 48.226562 1426.042969 L 40.554688 1444.785156 L 38.632812 1459.703125 L 39.792969 1477.019531 L 40.898438 1483.667969 "/>
<path style="fill:none;stroke-width:0.5;stroke-linecap:butt;stroke-linejoin:miter;stroke:rgb(50.196078%,50.196078%,50.196078%);stroke-opacity:1;stroke-miterlimit:4;" d="M 32.730469 1294.964844 L 53.332031 1287.242188 L 92.636719 1279.671875 "/>
<path style="fill:none;stroke-width:0.5;stroke-linecap:butt;stroke-linejoin:miter;stroke:rgb(50.196078%,50.196078%,50.196078%);stroke-opacity:1;stroke-miterlimit:4;" d="M 222.953125 1306.484375 L 47.621094 1322.945312 "/>
<path style="fill:none;stroke-width:0.5;stroke-linecap:butt;stroke-linejoin:miter;stroke:rgb(50.196078%,50.196078%,50.196078%);stroke-opacity:1;stroke-miterlimit:4;" d="M 115.808594 1084.195312 L 117.175781 1087.21875 L 123.992188 1104.195312 L 148.390625 1166.675781 L 171.824219 1222.335938 L 181.410156 1233.25 L 194.1875 1246.300781 L 196.148438 1253.550781 L 201.382812 1272.933594 L 203.511719 1286.773438 L 222.953125 1306.484375 L 245.589844 1332.847656 L 257.039062 1349.355469 L 265.640625 1365.796875 "/>
<path style="fill:none;stroke-width:0.5;stroke-linecap:butt;stroke-linejoin:miter;stroke:rgb(50.196078%,50.196078%,50.196078%);stroke-opacity:1;stroke-miterlimit:4;" d="M 196.148438 1253.550781 L 214.152344 1251.96875 L 232.707031 1250.335938 L 234.925781 1242.5 L 229.8125 1237.554688 L 213.28125 1240.453125 L 214.152344 1251.96875 "/>
<path style="fill:none;stroke-width:0.5;stroke-linecap:butt;stroke-linejoin:miter;stroke:rgb(50.196078%,50.196078%,50.196078%);stroke-opacity:1;stroke-miterlimit:4;" d="M 295.765625 1193.566406 L 308.464844 1201.324219 L 329.835938 1222.558594 L 334.03125 1226.726562 L 336.925781 1237.628906 L 347.496094 1325.058594 L 330.445312 1326.257812 L 333.171875 1361.871094 "/>
</g>
</svg>
