<?xml version="1.0" encoding="UTF-8"?>
<svg xmlns="http://www.w3.org/2000/svg" xmlns:xlink="http://www.w3.org/1999/xlink" width="1600pt" height="1600pt" viewBox="0 0 1600 1600" version="1.1">
<g id="surface9">
<path style="fill:none;stroke-width:0.3;stroke-linecap:butt;stroke-linejoin:miter;stroke:rgb(50.196078%,50.196078%,50.196078%);stroke-opacity:1;stroke-miterlimit:4;" d="M 1424.957031 1286.25 L 1432.742188 1335.261719 "/>
<path style="fill:none;stroke-width:0.3;stroke-linecap:butt;stroke-linejoin:miter;stroke:rgb(50.196078%,50.196078%,50.196078%);stroke-opacity:1;stroke-miterlimit:4;" d="M 1336.851562 1105.394531 L 1364.507812 1076.78125 L 1377.414062 1065.097656 L 1404.984375 1034.695312 L 1438.558594 1014.730469 L 1474.972656 996.6875 L 1488.023438 998.957031 L 1501.066406 1001.222656 "/>
<path style="fill:none;stroke-width:0.3;stroke-linecap:butt;stroke-linejoin:miter;stroke:rgb(50.196078%,50.196078%,50.196078%);stroke-opacity:1;stroke-miterlimit:4;" d="M 1386.183594 906.945312 L 1384.238281 914.582031 L 1378.230469 935.613281 L 1372.578125 945.351562 L 1371.378906 952.210938 "/>
<path style="fill:none;stroke-width:0.3;stroke-linecap:butt;stroke-linejoin:miter;stroke:rgb(50.196078%,50.196078%,50.196078%);stroke-opacity:1;stroke-miterlimit:4;" d="M 1386.183594 906.945312 L 1404.679688 906.167969 L 1429.207031 909.046875 L 1436.542969 908.324219 L 1443.152344 906.167969 L 1444.710938 901.109375 "/>
<path style="fill:none;stroke-width:0.3;stroke-linecap:butt;stroke-linejoin:miter;stroke:rgb(50.196078%,50.196078%,50.196078%);stroke-opacity:1;stroke-miterlimit:4;" d="M 1322.441406 830.964844 L 1317.035156 831.863281 L 1306.214844 829.695312 L 1279.761719 822.246094 "/>
<path style="fill:none;stroke-width:0.3;stroke-linecap:butt;stroke-linejoin:miter;stroke:rgb(50.196078%,50.196078%,50.196078%);stroke-opacity:1;stroke-miterlimit:4;" d="M 1584.824219 594.25 L 1617.65625 595.109375 L 1620.984375 598.332031 L 1622.269531 604.546875 L 1619.589844 626.222656 L 1620.765625 651.550781 L 1624.863281 657.90625 "/>
<path style="fill:none;stroke-width:0.3;stroke-linecap:butt;stroke-linejoin:miter;stroke:rgb(50.196078%,50.196078%,50.196078%);stroke-opacity:1;stroke-miterlimit:4;" d="M 1682.121094 369.671875 L 1667.984375 367.292969 L 1619.160156 371.585938 L 1586.433594 375.34375 L 1551.769531 378.878906 L 1497.792969 384.035156 L 1447.039062 388.539062 L 1439.023438 393.917969 "/>
<path style="fill:none;stroke-width:0.3;stroke-linecap:butt;stroke-linejoin:miter;stroke:rgb(50.196078%,50.196078%,50.196078%);stroke-opacity:1;stroke-miterlimit:4;" d="M 1480.222656 230.125 L 1492.878906 241.921875 L 1504.660156 252.792969 "/>
<path style="fill:none;stroke-width:0.3;stroke-linecap:butt;stroke-linejoin:miter;stroke:rgb(50.196078%,50.196078%,50.196078%);stroke-opacity:1;stroke-miterlimit:4;" d="M 1243.042969 432.519531 L 1245.429688 420.65625 L 1251.078125 412.117188 L 1266.113281 393.484375 L 1273.203125 384.113281 L 1282.460938 379.542969 "/>
<path style="fill:none;stroke-width:0.3;stroke-linecap:butt;stroke-linejoin:miter;stroke:rgb(50.196078%,50.196078%,50.196078%);stroke-opacity:1;stroke-miterlimit:4;" d="M 1162.925781 521.601562 L 1155.980469 514.207031 L 1137.609375 504.304688 L 1102.539062 449.296875 L 1094.921875 442.613281 L 1087.066406 430.597656 "/>
<path style="fill:none;stroke-width:0.3;stroke-linecap:butt;stroke-linejoin:miter;stroke:rgb(50.196078%,50.196078%,50.196078%);stroke-opacity:1;stroke-miterlimit:4;" d="M 220.609375 674.183594 L 203.421875 690.625 L 178.011719 715.660156 L 176.707031 717.714844 L 175.496094 720.828125 "/>
<path style="fill:none;stroke-width:0.3;stroke-linecap:butt;stroke-linejoin:miter;stroke:rgb(50.196078%,50.196078%,50.196078%);stroke-opacity:1;stroke-miterlimit:4;" d="M 301.054688 514.621094 L 292.453125 534.609375 "/>
<path style="fill:none;stroke-width:0.3;stroke-linecap:butt;stroke-linejoin:miter;stroke:rgb(50.196078%,50.196078%,50.196078%);stroke-opacity:1;stroke-miterlimit:4;" d="M 243.316406 510.316406 L 241.011719 515.699219 L 246.054688 525.46875 L 249.597656 533.085938 L 264.410156 536.84375 L 326.003906 567.636719 "/>
<path style="fill:none;stroke-width:0.3;stroke-linecap:butt;stroke-linejoin:miter;stroke:rgb(50.196078%,50.196078%,50.196078%);stroke-opacity:1;stroke-miterlimit:4;" d="M 249.597656 533.085938 L 237.148438 539.199219 L 221.378906 551.21875 "/>
<path style="fill:none;stroke-width:0.3;stroke-linecap:butt;stroke-linejoin:miter;stroke:rgb(50.196078%,50.196078%,50.196078%);stroke-opacity:1;stroke-miterlimit:4;" d="M 84.082031 504.101562 L 92.8125 523.003906 "/>
<path style="fill:none;stroke-width:0.3;stroke-linecap:butt;stroke-linejoin:miter;stroke:rgb(50.196078%,50.196078%,50.196078%);stroke-opacity:1;stroke-miterlimit:4;" d="M 46.683594 371.375 L 45.714844 378.667969 L 51.941406 425.027344 "/>
<path style="fill:none;stroke-width:0.3;stroke-linecap:butt;stroke-linejoin:miter;stroke:rgb(50.196078%,50.196078%,50.196078%);stroke-opacity:1;stroke-miterlimit:4;" d="M 85.523438 395.410156 L 94.171875 378.332031 L 100.011719 366.859375 L 107.308594 363.324219 L 112.78125 362.890625 L 118.359375 367.503906 L 123.617188 383.28125 L 129.304688 393.476562 "/>
<path style="fill:none;stroke-width:0.3;stroke-linecap:butt;stroke-linejoin:miter;stroke:rgb(50.196078%,50.196078%,50.196078%);stroke-opacity:1;stroke-miterlimit:4;" d="M 170.785156 341.535156 L 174.160156 344.4375 L 172.441406 349.484375 L 165.039062 360.855469 L 138.8125 387.136719 L 129.304688 393.476562 L 114.304688 413.71875 "/>
<path style="fill:none;stroke-width:0.3;stroke-linecap:butt;stroke-linejoin:miter;stroke:rgb(50.196078%,50.196078%,50.196078%);stroke-opacity:1;stroke-miterlimit:4;" d="M 173.984375 458.511719 L 168.753906 465.046875 L 167.402344 469.984375 L 169.441406 476.964844 L 178.027344 489.839844 L 184.652344 495.230469 L 189.828125 496.386719 L 195.636719 495.898438 L 205.296875 487.773438 "/>
<path style="fill:none;stroke-width:0.3;stroke-linecap:butt;stroke-linejoin:miter;stroke:rgb(50.196078%,50.196078%,50.196078%);stroke-opacity:1;stroke-miterlimit:4;" d="M 200.191406 385.847656 L 194.179688 405.160156 L 184.089844 455.164062 L 173.984375 458.511719 "/>
<path style="fill:none;stroke-width:0.3;stroke-linecap:butt;stroke-linejoin:miter;stroke:rgb(50.196078%,50.196078%,50.196078%);stroke-opacity:1;stroke-miterlimit:4;" d="M 407.820312 169.101562 L 405.410156 174.78125 L 408.089844 178.214844 L 470.4375 210.835938 L 473.117188 215.671875 L 472.6875 219.207031 L 468.078125 223.5 L 433.3125 253.972656 L 426.652344 255.585938 "/>
<path style="fill:none;stroke-width:0.3;stroke-linecap:butt;stroke-linejoin:miter;stroke:rgb(50.196078%,50.196078%,50.196078%);stroke-opacity:1;stroke-miterlimit:4;" d="M 566.535156 608.828125 L 591.792969 608.75 "/>
<path style="fill:none;stroke-width:0.3;stroke-linecap:butt;stroke-linejoin:miter;stroke:rgb(50.196078%,50.196078%,50.196078%);stroke-opacity:1;stroke-miterlimit:4;" d="M 366.292969 556.898438 L 361.210938 570.105469 "/>
<path style="fill:none;stroke-width:0.3;stroke-linecap:butt;stroke-linejoin:miter;stroke:rgb(50.196078%,50.196078%,50.196078%);stroke-opacity:1;stroke-miterlimit:4;" d="M 534.625 590.003906 L 482.160156 604.179688 "/>
<path style="fill:none;stroke-width:0.3;stroke-linecap:butt;stroke-linejoin:miter;stroke:rgb(50.196078%,50.196078%,50.196078%);stroke-opacity:1;stroke-miterlimit:4;" d="M 507.378906 833.363281 L 503.722656 839.257812 L 499.53125 840.734375 L 484.863281 839.257812 "/>
<path style="fill:none;stroke-width:0.3;stroke-linecap:butt;stroke-linejoin:miter;stroke:rgb(50.196078%,50.196078%,50.196078%);stroke-opacity:1;stroke-miterlimit:4;" d="M 555.804688 681.796875 L 551.515625 697.894531 L 548.453125 708.535156 L 547.050781 725.277344 L 546.25 737.347656 "/>
<path style="fill:none;stroke-width:0.3;stroke-linecap:butt;stroke-linejoin:miter;stroke:rgb(50.196078%,50.196078%,50.196078%);stroke-opacity:1;stroke-miterlimit:4;" d="M 681.9375 795.878906 L 684.675781 788.21875 L 687.636719 777.992188 L 687.753906 771.957031 L 686.035156 763.453125 L 681.960938 758.761719 L 677.035156 751.855469 L 675.554688 746.441406 L 675.800781 740.640625 L 678.515625 733.371094 L 684.179688 726.589844 L 685.042969 716.847656 L 683.691406 708.34375 "/>
<path style="fill:none;stroke-width:0.3;stroke-linecap:butt;stroke-linejoin:miter;stroke:rgb(50.196078%,50.196078%,50.196078%);stroke-opacity:1;stroke-miterlimit:4;" d="M 692.132812 841.269531 L 611.007812 806.074219 L 605.894531 805.304688 "/>
<path style="fill:none;stroke-width:0.3;stroke-linecap:butt;stroke-linejoin:miter;stroke:rgb(50.196078%,50.196078%,50.196078%);stroke-opacity:1;stroke-miterlimit:4;" d="M 856.5625 810.554688 L 847.886719 812.886719 L 842.359375 810.851562 L 826.011719 746.164062 "/>
<path style="fill:none;stroke-width:0.3;stroke-linecap:butt;stroke-linejoin:miter;stroke:rgb(50.196078%,50.196078%,50.196078%);stroke-opacity:1;stroke-miterlimit:4;" d="M 684.179688 726.589844 L 723.136719 722.898438 L 728.316406 724.863281 L 732.628906 728.933594 L 735.707031 735.09375 L 738.292969 744.953125 L 737.4375 755.070312 L 735.957031 763.941406 L 732.875 770.476562 L 725.472656 773.3125 L 713.023438 772.8125 L 686.035156 763.453125 "/>
<path style="fill:none;stroke-width:0.3;stroke-linecap:butt;stroke-linejoin:miter;stroke:rgb(50.196078%,50.196078%,50.196078%);stroke-opacity:1;stroke-miterlimit:4;" d="M 784.398438 464.035156 L 798.199219 476.121094 L 853.296875 516.054688 L 861.929688 524.558594 L 865.996094 526.660156 L 872.996094 527.050781 "/>
<path style="fill:none;stroke-width:0.3;stroke-linecap:butt;stroke-linejoin:miter;stroke:rgb(50.196078%,50.196078%,50.196078%);stroke-opacity:1;stroke-miterlimit:4;" d="M 839.496094 590.628906 L 839.863281 597.777344 L 839.863281 603.457031 L 840.726562 607.890625 L 846.398438 610.226562 L 869.570312 605.667969 L 881.84375 602.199219 "/>
<path style="fill:none;stroke-width:0.3;stroke-linecap:butt;stroke-linejoin:miter;stroke:rgb(50.196078%,50.196078%,50.196078%);stroke-opacity:1;stroke-miterlimit:4;" d="M 1031.59375 614.140625 L 1047.136719 605.390625 L 1062.164062 598.953125 L 1068.351562 597.699219 L 1074.527344 596.441406 L 1078.328125 596.476562 "/>
<path style="fill:none;stroke-width:0.3;stroke-linecap:butt;stroke-linejoin:miter;stroke:rgb(50.196078%,50.196078%,50.196078%);stroke-opacity:1;stroke-miterlimit:4;" d="M 807.304688 1081.0625 L 743.316406 1062.828125 L 688.597656 1036.140625 L 674.433594 1040.273438 "/>
<path style="fill:none;stroke-width:0.3;stroke-linecap:butt;stroke-linejoin:miter;stroke:rgb(50.196078%,50.196078%,50.196078%);stroke-opacity:1;stroke-miterlimit:4;" d="M 811.914062 1086.972656 L 804.207031 1091.277344 L 797.382812 1096.878906 L 792.628906 1107.117188 L 767.761719 1165.386719 L 766.417969 1167.832031 L 762.519531 1168.3125 L 745.820312 1162.707031 L 739.238281 1161.363281 L 734.605469 1162.707031 L 724.96875 1191.476562 "/>
<path style="fill:none;stroke-width:0.3;stroke-linecap:butt;stroke-linejoin:miter;stroke:rgb(50.196078%,50.196078%,50.196078%);stroke-opacity:1;stroke-miterlimit:4;" d="M 849.085938 1105.503906 L 838.460938 1120.167969 L 832.859375 1129.425781 L 819.9375 1167.710938 "/>
<path style="fill:none;stroke-width:0.3;stroke-linecap:butt;stroke-linejoin:miter;stroke:rgb(50.196078%,50.196078%,50.196078%);stroke-opacity:1;stroke-miterlimit:4;" d="M 907.25 1150.226562 L 908.570312 1140.132812 L 904.546875 1102.214844 L 904.304688 1087.707031 "/>
<path style="fill:none;stroke-width:0.3;stroke-linecap:butt;stroke-linejoin:miter;stroke:rgb(50.196078%,50.196078%,50.196078%);stroke-opacity:1;stroke-miterlimit:4;" d="M 895.359375 1252.636719 L 902.832031 1255.214844 L 907.144531 1254.773438 L 934.054688 1237.175781 L 934.847656 1226.78125 "/>
<path style="fill:none;stroke-width:0.3;stroke-linecap:butt;stroke-linejoin:miter;stroke:rgb(50.196078%,50.196078%,50.196078%);stroke-opacity:1;stroke-miterlimit:4;" d="M 942.105469 1291.320312 L 943.550781 1277.691406 L 937.757812 1242.433594 L 934.054688 1237.175781 "/>
<path style="fill:none;stroke-width:0.3;stroke-linecap:butt;stroke-linejoin:miter;stroke:rgb(50.196078%,50.196078%,50.196078%);stroke-opacity:1;stroke-miterlimit:4;" d="M 496.320312 1268.765625 L 502.859375 1269.6875 L 537.625 1272.769531 L 554.261719 1273.511719 "/>
<path style="fill:none;stroke-width:0.3;stroke-linecap:butt;stroke-linejoin:miter;stroke:rgb(50.196078%,50.196078%,50.196078%);stroke-opacity:1;stroke-miterlimit:4;" d="M 480.269531 1337.828125 L 488.6875 1338.71875 L 544.898438 1340.195312 L 555.492188 1340.074219 "/>
<path style="fill:none;stroke-width:0.3;stroke-linecap:butt;stroke-linejoin:miter;stroke:rgb(50.196078%,50.196078%,50.196078%);stroke-opacity:1;stroke-miterlimit:4;" d="M 485.34375 1317.609375 L 479.816406 1316.53125 L 476.855469 1315.054688 L 467.117188 1311.230469 L 465.390625 1307.660156 L 466.75 1294.957031 L 468.71875 1274.746094 "/>
<path style="fill:none;stroke-width:0.3;stroke-linecap:butt;stroke-linejoin:miter;stroke:rgb(50.196078%,50.196078%,50.196078%);stroke-opacity:1;stroke-miterlimit:4;" d="M 526.449219 1094.824219 L 523.816406 1092.445312 L 521.480469 1090.710938 L 495.347656 1090.832031 L 495.835938 1113.140625 L 497.683594 1116.84375 L 501.554688 1121.046875 "/>
<path style="fill:none;stroke-width:0.3;stroke-linecap:butt;stroke-linejoin:miter;stroke:rgb(50.196078%,50.196078%,50.196078%);stroke-opacity:1;stroke-miterlimit:4;" d="M 501.820312 1147.847656 L 507.050781 1148.402344 L 536.511719 1147.902344 "/>
<path style="fill:none;stroke-width:0.3;stroke-linecap:butt;stroke-linejoin:miter;stroke:rgb(50.196078%,50.196078%,50.196078%);stroke-opacity:1;stroke-miterlimit:4;" d="M 632.289062 1135.585938 L 621.320312 1136.195312 L 613.679688 1140.753906 L 605.046875 1149.878906 L 596.789062 1160.730469 L 586.929688 1163.808594 L 517.535156 1160.976562 L 512.09375 1164.066406 "/>
<path style="fill:none;stroke-width:0.3;stroke-linecap:butt;stroke-linejoin:miter;stroke:rgb(50.196078%,50.196078%,50.196078%);stroke-opacity:1;stroke-miterlimit:4;" d="M 599.523438 843.734375 L 605.214844 844.492188 L 632.890625 839.210938 L 648.261719 845.4375 L 659.703125 847.316406 L 682.484375 857.210938 "/>
<path style="fill:none;stroke-width:0.3;stroke-linecap:butt;stroke-linejoin:miter;stroke:rgb(50.196078%,50.196078%,50.196078%);stroke-opacity:1;stroke-miterlimit:4;" d="M 518.078125 925.285156 L 569.152344 937.980469 "/>
<path style="fill:none;stroke-width:0.3;stroke-linecap:butt;stroke-linejoin:miter;stroke:rgb(50.196078%,50.196078%,50.196078%);stroke-opacity:1;stroke-miterlimit:4;" d="M 524.734375 884.945312 L 581.007812 897.375 "/>
<path style="fill:none;stroke-width:0.3;stroke-linecap:butt;stroke-linejoin:miter;stroke:rgb(50.196078%,50.196078%,50.196078%);stroke-opacity:1;stroke-miterlimit:4;" d="M 1.722656 1210.363281 L 11.804688 1212.441406 L 54.40625 1198.292969 L 60.660156 1195.722656 L 68.886719 1192.332031 L 71.65625 1187.429688 L 69.527344 1180.617188 L 66.335938 1178.90625 L 57.382812 1181.894531 L 57.597656 1188.285156 L 60.660156 1195.722656 "/>
<path style="fill:none;stroke-width:0.3;stroke-linecap:butt;stroke-linejoin:miter;stroke:rgb(50.196078%,50.196078%,50.196078%);stroke-opacity:1;stroke-miterlimit:4;" d="M 32.730469 1294.964844 L 53.332031 1287.242188 L 92.636719 1279.671875 "/>
</g>
</svg>
