<?xml version="1.0" encoding="UTF-8"?>
<svg xmlns="http://www.w3.org/2000/svg" xmlns:xlink="http://www.w3.org/1999/xlink" width="1600pt" height="1600pt" viewBox="0 0 1600 1600" version="1.1">
<g id="surface29">
<path style=" stroke:none;fill-rule:evenodd;fill:rgb(0%,0%,100%);fill-opacity:1;" d="M 1036.632812 804.015625 L 1068.015625 915.171875 L 1072.046875 917.472656 L 1113.46875 914.613281 L 1173.816406 871.261719 L 1160.160156 821.582031 L 1152.675781 809.496094 L 1146.628906 801.714844 L 1136.257812 797.96875 L 1122.441406 794.523438 L 1108.332031 787.609375 L 1100.84375 786.742188 L 1089.328125 790.199219 L 1085.296875 789.332031 Z M 1036.632812 804.015625 "/>
<path style=" stroke:none;fill-rule:evenodd;fill:rgb(0%,0%,100%);fill-opacity:1;" d="M 901.875 699.207031 L 948.234375 878.019531 L 960.898438 889.824219 L 974.4375 893.570312 L 989.121094 894.726562 L 993.441406 897.605469 L 1000.640625 903.65625 L 1010.429688 909.992188 L 1019.070312 914.015625 L 1027.703125 917.472656 L 1036.632812 917.472656 L 1041.816406 914.304688 L 990.273438 724.542969 L 985.953125 724.542969 L 984.511719 721.953125 L 980.191406 719.074219 L 977.605469 710.433594 L 975.300781 701.21875 L 961.476562 696.328125 L 955.144531 694.027344 L 948.234375 697.195312 L 928.367188 690.28125 L 922.894531 692.871094 L 905.90625 695.460938 Z M 901.875 699.207031 "/>
<path style=" stroke:none;fill-rule:evenodd;fill:rgb(0%,0%,100%);fill-opacity:1;" d="M 1021.660156 749.890625 L 1037.496094 798.835938 L 1058.226562 792.210938 L 1040.664062 744.996094 L 1027.992188 747.007812 Z M 1021.660156 749.890625 "/>
</g>
</svg>
