<?xml version="1.0" encoding="UTF-8"?>
<svg xmlns="http://www.w3.org/2000/svg" xmlns:xlink="http://www.w3.org/1999/xlink" width="1600pt" height="1600pt" viewBox="0 0 1600 1600" version="1.1">
<g id="surface37">
<path style=" stroke:none;fill-rule:evenodd;fill:rgb(100%,0%,0%);fill-opacity:1;" d="M 1521.941406 922.5625 L 1524.007812 933.625 L 1528.574219 932.546875 L 1526.292969 921.707031 Z M 1521.941406 922.5625 "/>
<path style=" stroke:none;fill-rule:evenodd;fill:rgb(100%,0%,0%);fill-opacity:1;" d="M 1541.328125 864.179688 L 1546.898438 865.902344 L 1545.167969 857.699219 L 1542.730469 857.621094 Z M 1541.328125 864.179688 "/>
<path style=" stroke:none;fill-rule:evenodd;fill:rgb(100%,0%,0%);fill-opacity:1;" d="M 1440.847656 851.375 L 1447.847656 854.152344 L 1449.25 850.582031 L 1442.246094 847.804688 Z M 1440.847656 851.375 "/>
<path style=" stroke:none;fill-rule:evenodd;fill:rgb(100%,0%,0%);fill-opacity:1;" d="M 1433.359375 935.757812 L 1434.734375 936.015625 L 1434.445312 937.492188 L 1446.082031 939.851562 L 1447.207031 933.992188 L 1435.574219 931.722656 L 1435.292969 933.179688 L 1433.910156 932.914062 Z M 1433.359375 935.757812 "/>
<path style=" stroke:none;fill-rule:evenodd;fill:rgb(100%,0%,0%);fill-opacity:1;" d="M 1545.058594 1024.867188 L 1546.585938 1029.625 L 1555.140625 1026.859375 L 1553.59375 1022.089844 Z M 1545.058594 1024.867188 "/>
<path style=" stroke:none;fill-rule:evenodd;fill:rgb(100%,0%,0%);fill-opacity:1;" d="M 1565.789062 958.335938 L 1568.003906 966.140625 L 1571.75 965.074219 L 1569.535156 957.28125 Z M 1565.789062 958.335938 "/>
<path style=" stroke:none;fill-rule:evenodd;fill:rgb(100%,0%,0%);fill-opacity:1;" d="M 1587.808594 959.28125 L 1588.699219 961.570312 L 1592.304688 960.269531 L 1591.25 958.160156 Z M 1587.808594 959.28125 "/>
<path style=" stroke:none;fill-rule:evenodd;fill:rgb(100%,0%,0%);fill-opacity:1;" d="M 1591.210938 999.234375 L 1594.203125 1008.683594 L 1599.339844 1007.027344 L 1596.332031 997.589844 Z M 1591.210938 999.234375 "/>
<path style=" stroke:none;fill-rule:evenodd;fill:rgb(100%,0%,0%);fill-opacity:1;" d="M 1574.007812 1046.535156 L 1575.34375 1050.300781 L 1584.265625 1047.132812 L 1582.9375 1043.367188 Z M 1574.007812 1046.535156 "/>
<path style=" stroke:none;fill-rule:evenodd;fill:rgb(100%,0%,0%);fill-opacity:1;" d="M 1458.5625 1079.570312 L 1464.898438 1080.460938 L 1465.753906 1074.3125 L 1459.425781 1073.421875 Z M 1458.5625 1079.570312 "/>
<path style=" stroke:none;fill-rule:evenodd;fill:rgb(100%,0%,0%);fill-opacity:1;" d="M 1518.15625 1097.289062 L 1518.675781 1101.582031 L 1518.773438 1101.746094 L 1518.980469 1101.882812 L 1519.925781 1101.816406 L 1529.160156 1100.558594 L 1529.40625 1100.390625 L 1529.527344 1100.304688 L 1528.910156 1095.855469 L 1528.710938 1095.734375 L 1518.398438 1097.035156 L 1518.222656 1097.167969 Z M 1518.15625 1097.289062 "/>
<path style=" stroke:none;fill-rule:evenodd;fill:rgb(100%,0%,0%);fill-opacity:1;" d="M 1584.425781 1201.136719 L 1595.21875 1204.738281 L 1596.890625 1199.601562 L 1586.105469 1196.113281 Z M 1584.425781 1201.136719 "/>
<path style=" stroke:none;fill-rule:evenodd;fill:rgb(100%,0%,0%);fill-opacity:1;" d="M 1443.945312 1347.832031 L 1444.390625 1351.113281 L 1444.664062 1351.355469 L 1450.6875 1350.710938 L 1452.105469 1349.121094 L 1452.160156 1348.710938 L 1452.121094 1347.921875 L 1451.34375 1346.867188 L 1449.976562 1346.242188 L 1444.535156 1347.054688 L 1444.0625 1347.378906 Z M 1443.945312 1347.832031 "/>
<path style=" stroke:none;fill-rule:evenodd;fill:rgb(100%,0%,0%);fill-opacity:1;" d="M 1457.449219 1331.316406 L 1457.675781 1331.828125 L 1459.316406 1333.015625 L 1460.074219 1333.238281 L 1468.078125 1332.382812 L 1467.570312 1328.59375 L 1467.402344 1328.160156 L 1466.949219 1327.792969 L 1458.921875 1328.8125 L 1457.914062 1330.070312 Z M 1457.449219 1331.316406 "/>
<path style=" stroke:none;fill-rule:evenodd;fill:rgb(100%,0%,0%);fill-opacity:1;" d="M 1485.261719 1338.550781 L 1486.910156 1347.957031 L 1491.871094 1347.332031 L 1489.902344 1337.628906 Z M 1485.261719 1338.550781 "/>
<path style=" stroke:none;fill-rule:evenodd;fill:rgb(100%,0%,0%);fill-opacity:1;" d="M 1489.695312 1307.238281 L 1492.632812 1316.820312 L 1497.371094 1315.285156 L 1494.464844 1305.769531 Z M 1489.695312 1307.238281 "/>
<path style=" stroke:none;fill-rule:evenodd;fill:rgb(100%,0%,0%);fill-opacity:1;" d="M 1433.207031 1299.214844 L 1434.039062 1306.871094 L 1437.4375 1306.660156 L 1436.695312 1298.867188 Z M 1433.207031 1299.214844 "/>
<path style=" stroke:none;fill-rule:evenodd;fill:rgb(100%,0%,0%);fill-opacity:1;" d="M 1461.875 1234.917969 L 1462.515625 1236.742188 L 1464.066406 1237.585938 L 1465.378906 1236.839844 L 1465.597656 1234.894531 L 1464.933594 1232.550781 L 1463.308594 1231.917969 L 1461.921875 1232.695312 Z M 1461.875 1234.917969 "/>
<path style=" stroke:none;fill-rule:evenodd;fill:rgb(100%,0%,0%);fill-opacity:1;" d="M 1384.957031 1247.414062 L 1385.339844 1248.722656 L 1386.175781 1249.78125 L 1387.324219 1250.46875 L 1388.671875 1250.667969 L 1389.972656 1250.378906 L 1391.09375 1249.613281 L 1391.847656 1248.503906 L 1392.144531 1247.179688 L 1392.128906 1246.722656 L 1391.742188 1245.421875 L 1390.917969 1244.355469 L 1389.757812 1243.679688 L 1388.421875 1243.464844 L 1387.101562 1243.765625 L 1385.996094 1244.523438 L 1385.238281 1245.632812 L 1384.988281 1246.511719 Z M 1384.957031 1247.414062 "/>
<path style=" stroke:none;fill-rule:evenodd;fill:rgb(100%,0%,0%);fill-opacity:1;" d="M 1330.019531 1277.515625 L 1331.179688 1286.140625 L 1335.683594 1285.519531 L 1334.539062 1276.902344 Z M 1330.019531 1277.515625 "/>
<path style=" stroke:none;fill-rule:evenodd;fill:rgb(100%,0%,0%);fill-opacity:1;" d="M 1319.730469 1308.871094 L 1328.132812 1313.707031 L 1330.53125 1309.507812 L 1322.128906 1304.671875 Z M 1319.730469 1308.871094 "/>
<path style=" stroke:none;fill-rule:evenodd;fill:rgb(100%,0%,0%);fill-opacity:1;" d="M 1269.738281 1329.160156 L 1270.234375 1336.652344 L 1274.441406 1336.652344 L 1274.019531 1328.949219 Z M 1269.738281 1329.160156 "/>
<path style=" stroke:none;fill-rule:evenodd;fill:rgb(100%,0%,0%);fill-opacity:1;" d="M 1374.84375 1356.605469 L 1382.667969 1365.074219 L 1386.941406 1361.117188 L 1379.246094 1352.648438 L 1378.988281 1352.734375 Z M 1374.84375 1356.605469 "/>
<path style=" stroke:none;fill-rule:evenodd;fill:rgb(100%,0%,0%);fill-opacity:1;" d="M 1365.265625 1324.800781 L 1366.691406 1331.726562 L 1370.1875 1331.015625 L 1370.835938 1332.015625 L 1371.898438 1331.871094 L 1369.90625 1323.734375 Z M 1365.265625 1324.800781 "/>
<path style=" stroke:none;fill-rule:evenodd;fill:rgb(100%,0%,0%);fill-opacity:1;" d="M 1372.117188 1312.53125 L 1372.1875 1314.675781 L 1373.042969 1315.886719 L 1374.539062 1316.53125 L 1375.1875 1316.242188 L 1375.261719 1314.03125 L 1375.042969 1312.464844 L 1374.972656 1311.027344 L 1374.332031 1309.316406 L 1372.753906 1310.539062 Z M 1372.117188 1312.53125 "/>
<path style=" stroke:none;fill-rule:evenodd;fill:rgb(100%,0%,0%);fill-opacity:1;" d="M 1400.710938 1319.566406 L 1400.976562 1321.65625 L 1402.191406 1323.511719 L 1404.183594 1324.636719 L 1405.296875 1324.890625 L 1407.523438 1324.511719 L 1408.890625 1323.566406 L 1410.019531 1322.277344 L 1410.625 1320.109375 L 1410.179688 1317.644531 L 1408.515625 1315.71875 L 1406.386719 1314.742188 L 1404.832031 1314.820312 L 1403.449219 1315.296875 L 1401.984375 1316.308594 L 1401.144531 1317.652344 Z M 1400.710938 1319.566406 "/>
<path style=" stroke:none;fill-rule:evenodd;fill:rgb(100%,0%,0%);fill-opacity:1;" d="M 1095.164062 1352.890625 L 1095.957031 1357.382812 L 1105.644531 1355.792969 L 1104.894531 1351.324219 Z M 1095.164062 1352.890625 "/>
<path style=" stroke:none;fill-rule:evenodd;fill:rgb(100%,0%,0%);fill-opacity:1;" d="M 1077.839844 1346.589844 L 1078.046875 1347.300781 L 1078.480469 1347.910156 L 1079.089844 1348.34375 L 1079.800781 1348.554688 L 1080.550781 1348.523438 L 1081.242188 1348.246094 L 1081.808594 1347.753906 L 1082.183594 1347.109375 L 1082.320312 1346.386719 L 1082.226562 1345.664062 L 1081.898438 1345.011719 L 1081.375 1344.488281 L 1080.71875 1344.164062 L 1079.984375 1344.078125 L 1079.273438 1344.222656 L 1078.632812 1344.597656 L 1078.152344 1345.15625 L 1077.878906 1345.84375 Z M 1077.839844 1346.589844 "/>
<path style=" stroke:none;fill-rule:evenodd;fill:rgb(100%,0%,0%);fill-opacity:1;" d="M 1093.835938 1331.292969 L 1094.980469 1337.785156 L 1098.546875 1337.140625 L 1097.402344 1330.582031 Z M 1093.835938 1331.292969 "/>
<path style=" stroke:none;fill-rule:evenodd;fill:rgb(100%,0%,0%);fill-opacity:1;" d="M 1194.460938 1328.304688 L 1194.507812 1329.101562 L 1194.8125 1329.824219 L 1195.339844 1330.425781 L 1196.027344 1330.816406 L 1196.804688 1330.960938 L 1197.589844 1330.835938 L 1198.292969 1330.480469 L 1198.84375 1329.902344 L 1199.171875 1329.179688 L 1199.253906 1328.390625 L 1199.070312 1327.625 L 1198.652344 1326.957031 L 1198.035156 1326.457031 L 1197.292969 1326.191406 L 1196.5 1326.167969 L 1195.75 1326.414062 L 1195.117188 1326.890625 L 1194.667969 1327.546875 Z M 1194.460938 1328.304688 "/>
<path style=" stroke:none;fill-rule:evenodd;fill:rgb(100%,0%,0%);fill-opacity:1;" d="M 1203.351562 1273.214844 L 1204.046875 1278.070312 L 1211.933594 1276.9375 L 1211.238281 1272.078125 Z M 1203.351562 1273.214844 "/>
<path style=" stroke:none;fill-rule:evenodd;fill:rgb(100%,0%,0%);fill-opacity:1;" d="M 1198.054688 1225.679688 L 1198.355469 1229.683594 L 1206.320312 1229.070312 L 1206.015625 1225.082031 Z M 1198.054688 1225.679688 "/>
<path style=" stroke:none;fill-rule:evenodd;fill:rgb(100%,0%,0%);fill-opacity:1;" d="M 1126.671875 1251.382812 L 1128.488281 1262.242188 L 1133.355469 1261.417969 L 1131.546875 1250.558594 Z M 1126.671875 1251.382812 "/>
<path style=" stroke:none;fill-rule:evenodd;fill:rgb(100%,0%,0%);fill-opacity:1;" d="M 1112.300781 1257.929688 L 1113.664062 1267.65625 L 1118.246094 1266.953125 L 1116.871094 1257.21875 Z M 1112.300781 1257.929688 "/>
<path style=" stroke:none;fill-rule:evenodd;fill:rgb(100%,0%,0%);fill-opacity:1;" d="M 1086.882812 1249.378906 L 1087.425781 1252.847656 L 1094.8125 1251.671875 L 1094.265625 1248.203125 Z M 1086.882812 1249.378906 "/>
<path style=" stroke:none;fill-rule:evenodd;fill:rgb(100%,0%,0%);fill-opacity:1;" d="M 1107.988281 1144.265625 L 1109.308594 1146.421875 L 1110.550781 1145.933594 L 1111.003906 1146 L 1111.460938 1146.402344 L 1114.621094 1151.492188 L 1118.726562 1148.957031 L 1113.878906 1141.132812 L 1109.558594 1143.679688 L 1109.390625 1143.421875 Z M 1107.988281 1144.265625 "/>
<path style=" stroke:none;fill-rule:evenodd;fill:rgb(100%,0%,0%);fill-opacity:1;" d="M 1063.652344 1164.820312 L 1067.957031 1169.488281 L 1071.132812 1166.445312 L 1066.8125 1161.765625 Z M 1063.652344 1164.820312 "/>
<path style=" stroke:none;fill-rule:evenodd;fill:rgb(100%,0%,0%);fill-opacity:1;" d="M 1200.070312 1046.398438 L 1206.460938 1048.625 L 1209.160156 1040.785156 L 1207.542969 1040.21875 L 1201.835938 1041.421875 Z M 1200.070312 1046.398438 "/>
<path style=" stroke:none;fill-rule:evenodd;fill:rgb(100%,0%,0%);fill-opacity:1;" d="M 1224.929688 1082.929688 L 1225.890625 1090.621094 L 1229.730469 1090.109375 L 1228.753906 1082.4375 Z M 1224.929688 1082.929688 "/>
<path style=" stroke:none;fill-rule:evenodd;fill:rgb(100%,0%,0%);fill-opacity:1;" d="M 1178.585938 1137.917969 L 1178.832031 1141.910156 L 1186.796875 1141.398438 L 1186.539062 1137.410156 Z M 1178.585938 1137.917969 "/>
<path style=" stroke:none;fill-rule:evenodd;fill:rgb(100%,0%,0%);fill-opacity:1;" d="M 1177.601562 1206.261719 L 1177.609375 1206.917969 L 1178.007812 1208.074219 L 1179.035156 1208.984375 L 1179.882812 1209.074219 L 1180.5625 1208.941406 L 1181.136719 1208.539062 L 1183.226562 1205.996094 L 1183.761719 1204.972656 L 1183.601562 1203.628906 L 1182.976562 1202.660156 L 1182.339844 1202.148438 L 1181.210938 1202.039062 L 1180.203125 1202.625 L 1178.929688 1204.484375 L 1178.203125 1205.070312 L 1177.816406 1205.605469 Z M 1177.601562 1206.261719 "/>
<path style=" stroke:none;fill-rule:evenodd;fill:rgb(100%,0%,0%);fill-opacity:1;" d="M 1288.253906 1196.734375 L 1289.109375 1204.683594 L 1292.574219 1204.304688 L 1291.71875 1196.347656 Z M 1288.253906 1196.734375 "/>
<path style=" stroke:none;fill-rule:evenodd;fill:rgb(100%,0%,0%);fill-opacity:1;" d="M 1245.171875 1123.179688 L 1245.550781 1128.171875 L 1255.390625 1127.414062 L 1255.328125 1126.414062 L 1256.09375 1126.125 L 1256.519531 1125.660156 L 1256.605469 1125.449219 L 1256.695312 1124.804688 L 1256.511719 1124.179688 L 1255.933594 1123.613281 L 1255.085938 1123.425781 L 1255.007812 1122.425781 Z M 1245.171875 1123.179688 "/>
<path style=" stroke:none;fill-rule:evenodd;fill:rgb(100%,0%,0%);fill-opacity:1;" d="M 1303.496094 1123.523438 L 1305.023438 1126.535156 L 1305.175781 1128.015625 L 1305.769531 1127.371094 L 1307.046875 1128.460938 L 1308.28125 1127.671875 L 1307.59375 1126.738281 L 1307.886719 1125.703125 L 1305.863281 1122.347656 L 1304.878906 1122 L 1304.039062 1122.390625 Z M 1303.496094 1123.523438 "/>
<path style=" stroke:none;fill-rule:evenodd;fill:rgb(100%,0%,0%);fill-opacity:1;" d="M 1318.121094 1162.796875 L 1318.507812 1165.398438 L 1324.019531 1164.585938 L 1323.636719 1161.984375 Z M 1318.121094 1162.796875 "/>
<path style=" stroke:none;fill-rule:evenodd;fill:rgb(100%,0%,0%);fill-opacity:1;" d="M 1307.359375 1197.359375 L 1308.167969 1201.671875 L 1316.648438 1200.125 L 1315.867188 1195.757812 Z M 1307.359375 1197.359375 "/>
<path style=" stroke:none;fill-rule:evenodd;fill:rgb(100%,0%,0%);fill-opacity:1;" d="M 1364.136719 1175.09375 L 1367.136719 1177.515625 L 1371.988281 1171.234375 L 1369.132812 1169.023438 Z M 1364.136719 1175.09375 "/>
<path style=" stroke:none;fill-rule:evenodd;fill:rgb(100%,0%,0%);fill-opacity:1;" d="M 1371.949219 1077.070312 L 1379.613281 1083.460938 L 1382.796875 1079.605469 L 1375.132812 1073.210938 Z M 1371.949219 1077.070312 "/>
<path style=" stroke:none;fill-rule:evenodd;fill:rgb(100%,0%,0%);fill-opacity:1;" d="M 1415.617188 1115.753906 L 1415.875 1116.644531 L 1416.441406 1117.378906 L 1417.234375 1117.84375 L 1418.15625 1117.988281 L 1419.042969 1117.789062 L 1419.804688 1117.265625 L 1420.316406 1116.5 L 1420.53125 1115.597656 L 1420.515625 1115.289062 L 1420.25 1114.410156 L 1419.683594 1113.664062 L 1418.59375 1113.109375 L 1417.683594 1113.074219 L 1416.804688 1113.398438 L 1416.125 1114.007812 L 1415.699219 1114.84375 Z M 1415.617188 1115.753906 "/>
<path style=" stroke:none;fill-rule:evenodd;fill:rgb(100%,0%,0%);fill-opacity:1;" d="M 1263.496094 1077.738281 L 1265.441406 1078.191406 L 1266.320312 1074.445312 L 1264.351562 1073.933594 Z M 1263.496094 1077.738281 "/>
<path style=" stroke:none;fill-rule:evenodd;fill:rgb(100%,0%,0%);fill-opacity:1;" d="M 1285.246094 983.503906 L 1285.925781 986.683594 L 1287.804688 995.566406 L 1294.757812 994.152344 L 1292.191406 982.09375 Z M 1285.246094 983.503906 "/>
<path style=" stroke:none;fill-rule:evenodd;fill:rgb(100%,0%,0%);fill-opacity:1;" d="M 1316.433594 944.039062 L 1320.835938 946.585938 L 1325.035156 939.261719 L 1320.632812 936.726562 Z M 1316.433594 944.039062 "/>
<path style=" stroke:none;fill-rule:evenodd;fill:rgb(100%,0%,0%);fill-opacity:1;" d="M 1390.351562 978.457031 L 1393.832031 982.015625 L 1400.960938 975.023438 L 1397.472656 971.453125 Z M 1390.351562 978.457031 "/>
<path style=" stroke:none;fill-rule:evenodd;fill:rgb(100%,0%,0%);fill-opacity:1;" d="M 1258.34375 893.105469 L 1261.273438 895.9375 L 1261.632812 896.40625 L 1261.960938 896.882812 L 1262.296875 897.984375 L 1262 898.886719 L 1261.679688 899.21875 L 1263.96875 901.441406 L 1267.527344 897.808594 L 1267.113281 897.417969 L 1266.898438 897.105469 L 1266.617188 896.585938 L 1266.503906 896.09375 L 1266.511719 895.605469 L 1266.714844 895.195312 L 1266.992188 894.851562 L 1267.097656 894.683594 L 1261.742188 889.449219 Z M 1258.34375 893.105469 "/>
<path style=" stroke:none;fill-rule:evenodd;fill:rgb(100%,0%,0%);fill-opacity:1;" d="M 1234.082031 881.664062 L 1237.789062 890.960938 L 1241.820312 889.246094 L 1239.140625 882.5 L 1240.804688 881.832031 L 1239.773438 879.230469 Z M 1234.082031 881.664062 "/>
<path style=" stroke:none;fill-rule:evenodd;fill:rgb(100%,0%,0%);fill-opacity:1;" d="M 1072.574219 979.167969 L 1072.582031 982.992188 L 1081.390625 982.96875 L 1081.375 979.144531 Z M 1072.574219 979.167969 "/>
<path style=" stroke:none;fill-rule:evenodd;fill:rgb(100%,0%,0%);fill-opacity:1;" d="M 1195.882812 824.546875 L 1196.277344 825.449219 L 1196.714844 826.082031 L 1197.324219 826.714844 L 1197.835938 827.550781 L 1198.308594 828.695312 L 1198.339844 829.894531 L 1198.886719 830.917969 L 1199.523438 831.40625 L 1200.5 831.617188 L 1201.390625 831.574219 L 1202.261719 830.941406 L 1202.550781 830.296875 L 1202.566406 829.71875 L 1202.316406 828.960938 L 1201.917969 828.207031 L 1201.46875 827.660156 L 1200.933594 827.261719 L 1200.421875 826.425781 L 1200.214844 825.828125 L 1200.109375 825.203125 L 1200.132812 824.546875 L 1199.886719 823.691406 L 1199.636719 823.148438 L 1199.375 822.792969 L 1198.796875 822.648438 L 1197.941406 822.703125 L 1197.164062 822.882812 L 1196.539062 823.125 L 1196.050781 823.691406 Z M 1195.882812 824.546875 "/>
<path style=" stroke:none;fill-rule:evenodd;fill:rgb(100%,0%,0%);fill-opacity:1;" d="M 1180.179688 738.839844 L 1180.914062 739.71875 L 1192.164062 739.828125 L 1192.980469 739.917969 L 1193.386719 738.90625 L 1193.554688 734.023438 L 1192.835938 733.15625 L 1191.570312 732.945312 L 1181.097656 732.8125 L 1180.25 733.414062 Z M 1180.179688 738.839844 "/>
<path style=" stroke:none;fill-rule:evenodd;fill:rgb(100%,0%,0%);fill-opacity:1;" d="M 1230.066406 733.691406 L 1231.820312 743.550781 L 1235.730469 742.839844 L 1233.980469 732.992188 Z M 1230.066406 733.691406 "/>
<path style=" stroke:none;fill-rule:evenodd;fill:rgb(100%,0%,0%);fill-opacity:1;" d="M 1243.8125 672.003906 L 1244.003906 682 L 1248.996094 681.898438 L 1248.804688 671.894531 Z M 1243.8125 672.003906 "/>
<path style=" stroke:none;fill-rule:evenodd;fill:rgb(100%,0%,0%);fill-opacity:1;" d="M 1146.355469 664.933594 L 1149.019531 674.472656 L 1153.621094 673.171875 L 1151.0625 663.609375 Z M 1146.355469 664.933594 "/>
<path style=" stroke:none;fill-rule:evenodd;fill:rgb(100%,0%,0%);fill-opacity:1;" d="M 1098.476562 650.394531 L 1098.890625 654.261719 L 1102.851562 653.804688 L 1102.429688 649.925781 L 1103.820312 649.757812 L 1103.40625 646.179688 L 1099.042969 646.691406 L 1099.460938 650.269531 Z M 1098.476562 650.394531 "/>
<path style=" stroke:none;fill-rule:evenodd;fill:rgb(100%,0%,0%);fill-opacity:1;" d="M 1141.5625 479.433594 L 1142.265625 481.878906 L 1142.386719 482.003906 L 1151.605469 479.289062 L 1151.796875 479.132812 L 1151.085938 476.644531 L 1150.875 476.488281 L 1146.242188 477.878906 L 1141.683594 479.324219 Z M 1141.5625 479.433594 "/>
<path style=" stroke:none;fill-rule:evenodd;fill:rgb(100%,0%,0%);fill-opacity:1;" d="M 1127.03125 555.929688 L 1127.25 557.488281 L 1127.6875 558.078125 L 1128.800781 558.945312 L 1130.351562 559.410156 L 1132.410156 559.023438 L 1133.449219 558.1875 L 1134.265625 556.664062 L 1134.722656 554.496094 L 1134.457031 553.574219 L 1134.496094 553.21875 L 1134.648438 552.90625 L 1136.472656 551.363281 L 1136.746094 550.640625 L 1136.609375 549.839844 L 1135.984375 549.0625 L 1135.019531 548.261719 L 1134.179688 547.871094 L 1132.761719 547.761719 L 1131.867188 547.992188 L 1130.585938 548.816406 L 1129.488281 550.25 L 1129.015625 552.242188 L 1129.191406 554.707031 L 1129.066406 555.140625 L 1128.28125 555.84375 Z M 1127.03125 555.929688 "/>
<path style=" stroke:none;fill-rule:evenodd;fill:rgb(100%,0%,0%);fill-opacity:1;" d="M 1167.503906 539.457031 L 1169.871094 543.847656 L 1178.53125 539.089844 L 1176.113281 534.609375 Z M 1167.503906 539.457031 "/>
<path style=" stroke:none;fill-rule:evenodd;fill:rgb(100%,0%,0%);fill-opacity:1;" d="M 1173.511719 482.800781 L 1175.792969 487.058594 L 1184.554688 482.167969 L 1184.105469 481.378906 L 1184.257812 481.257812 L 1184.484375 480.992188 L 1184.707031 480.613281 L 1184.769531 480.179688 L 1184.683594 479.757812 L 1184.515625 479.433594 L 1184.226562 479.101562 L 1183.929688 478.878906 L 1183.425781 478.789062 L 1182.691406 478.890625 L 1182.226562 478.023438 Z M 1173.511719 482.800781 "/>
<path style=" stroke:none;fill-rule:evenodd;fill:rgb(100%,0%,0%);fill-opacity:1;" d="M 1197.699219 551.484375 L 1200.355469 556.097656 L 1209.335938 550.882812 L 1206.6875 546.28125 Z M 1197.699219 551.484375 "/>
<path style=" stroke:none;fill-rule:evenodd;fill:rgb(100%,0%,0%);fill-opacity:1;" d="M 1242.46875 581.945312 L 1243.707031 585.570312 L 1252.972656 582.257812 L 1251.695312 578.65625 Z M 1242.46875 581.945312 "/>
<path style=" stroke:none;fill-rule:evenodd;fill:rgb(100%,0%,0%);fill-opacity:1;" d="M 1178.546875 583.269531 L 1181.875 585.480469 L 1186.707031 578.144531 L 1183.386719 575.929688 Z M 1178.546875 583.269531 "/>
<path style=" stroke:none;fill-rule:evenodd;fill:rgb(100%,0%,0%);fill-opacity:1;" d="M 1249.253906 644.65625 L 1249.605469 656.460938 L 1250.925781 656.496094 L 1251.0625 657.941406 L 1254.375 657.785156 L 1254.328125 656.316406 L 1255.488281 656.25 L 1255.078125 644.5 Z M 1249.253906 644.65625 "/>
<path style=" stroke:none;fill-rule:evenodd;fill:rgb(100%,0%,0%);fill-opacity:1;" d="M 1294.253906 623.867188 L 1301.398438 624.957031 L 1301.925781 621.53125 L 1294.773438 620.445312 Z M 1294.253906 623.867188 "/>
<path style=" stroke:none;fill-rule:evenodd;fill:rgb(100%,0%,0%);fill-opacity:1;" d="M 1271.320312 581.066406 L 1271.800781 582.246094 L 1272.355469 583.101562 L 1273.441406 584.378906 L 1274.234375 584.792969 L 1275.15625 584.824219 L 1276.105469 584.222656 L 1276.457031 583.78125 L 1277.234375 581.578125 L 1277.53125 581.15625 L 1277.851562 580.789062 L 1280.125 579.378906 L 1280.570312 579.054688 L 1280.980469 578.566406 L 1281.300781 577.6875 L 1281.523438 576.140625 L 1281.46875 575.453125 L 1281.285156 574.917969 L 1280.683594 574.140625 L 1279.316406 573.375 L 1278.5 573.363281 L 1278.042969 573.785156 L 1277.234375 575.84375 L 1276.484375 576.554688 L 1272.84375 577.1875 L 1272.113281 577.84375 L 1271.691406 578.742188 L 1271.464844 579.367188 Z M 1271.320312 581.066406 "/>
<path style=" stroke:none;fill-rule:evenodd;fill:rgb(100%,0%,0%);fill-opacity:1;" d="M 1283.339844 591.472656 L 1283.8125 594.175781 L 1284.347656 595.363281 L 1284.835938 595.664062 L 1285.917969 595.53125 L 1286.4375 595.207031 L 1286.667969 594.597656 L 1286.714844 593.21875 L 1286.46875 591.4375 L 1286.316406 590.472656 L 1285.875 589.339844 L 1285.285156 588.804688 L 1284.605469 588.59375 L 1283.917969 588.914062 L 1283.628906 589.382812 L 1283.402344 590.070312 Z M 1283.339844 591.472656 "/>
<path style=" stroke:none;fill-rule:evenodd;fill:rgb(100%,0%,0%);fill-opacity:1;" d="M 1335.621094 485.046875 L 1340.628906 494.742188 L 1344.894531 492.507812 L 1339.886719 482.8125 Z M 1335.621094 485.046875 "/>
<path style=" stroke:none;fill-rule:evenodd;fill:rgb(100%,0%,0%);fill-opacity:1;" d="M 1317.347656 502.046875 L 1317.578125 511.929688 L 1322.539062 511.820312 L 1322.210938 501.992188 Z M 1317.347656 502.046875 "/>
<path style=" stroke:none;fill-rule:evenodd;fill:rgb(100%,0%,0%);fill-opacity:1;" d="M 1323.914062 550.484375 L 1325.441406 551.429688 L 1326.53125 551.0625 L 1327.5625 549.761719 L 1328.378906 548.582031 L 1328.417969 546.191406 L 1325.761719 544.347656 L 1324.996094 545.292969 L 1325.179688 548.050781 L 1324.140625 548.949219 Z M 1323.914062 550.484375 "/>
<path style=" stroke:none;fill-rule:evenodd;fill:rgb(100%,0%,0%);fill-opacity:1;" d="M 1404.464844 528.773438 L 1405.226562 534.6875 L 1417.074219 533.074219 L 1416.324219 527.238281 Z M 1404.464844 528.773438 "/>
<path style=" stroke:none;fill-rule:evenodd;fill:rgb(100%,0%,0%);fill-opacity:1;" d="M 1387.023438 602.421875 L 1387.15625 605.269531 L 1387.484375 605.871094 L 1388.132812 606.402344 L 1388.957031 606.660156 L 1390.117188 606.359375 L 1390.847656 605.601562 L 1391.101562 604.589844 L 1391.078125 602.199219 L 1390.863281 601.488281 L 1390.398438 600.898438 L 1389.6875 600.488281 L 1389.03125 600.386719 L 1388.238281 600.566406 L 1387.652344 600.964844 L 1387.199219 601.589844 Z M 1387.023438 602.421875 "/>
<path style=" stroke:none;fill-rule:evenodd;fill:rgb(100%,0%,0%);fill-opacity:1;" d="M 1384.164062 589.761719 L 1387.085938 591.75 L 1391.742188 585.503906 L 1388.636719 583.636719 Z M 1384.164062 589.761719 "/>
<path style=" stroke:none;fill-rule:evenodd;fill:rgb(100%,0%,0%);fill-opacity:1;" d="M 1417.890625 720.0625 L 1424.675781 720.164062 L 1424.964844 706.3125 L 1423.605469 706.234375 L 1423.574219 706.042969 L 1423.476562 705.65625 L 1423.300781 705.222656 L 1422.941406 704.675781 L 1422.445312 704.34375 L 1421.636719 704.222656 L 1420.988281 704.242188 L 1420.460938 704.519531 L 1419.898438 705.042969 L 1419.5625 705.53125 L 1419.46875 706.1875 L 1418.042969 706.175781 Z M 1417.890625 720.0625 "/>
<path style=" stroke:none;fill-rule:evenodd;fill:rgb(100%,0%,0%);fill-opacity:1;" d="M 1418.316406 747.421875 L 1419.203125 747.886719 L 1419.148438 748.421875 L 1419.316406 749.144531 L 1419.722656 749.765625 L 1420.242188 750.15625 L 1421.019531 750.378906 L 1421.589844 750.355469 L 1422.683594 749.734375 L 1423.574219 750.1875 L 1429.140625 739.5625 L 1423.867188 736.769531 Z M 1418.316406 747.421875 "/>
<path style=" stroke:none;fill-rule:evenodd;fill:rgb(100%,0%,0%);fill-opacity:1;" d="M 1294.621094 705.820312 L 1295.070312 709.089844 L 1295.285156 709.113281 L 1299.480469 708.433594 L 1298.949219 705.078125 Z M 1294.621094 705.820312 "/>
<path style=" stroke:none;fill-rule:evenodd;fill:rgb(100%,0%,0%);fill-opacity:1;" d="M 1285.898438 681.007812 L 1286.253906 683.988281 L 1287.597656 684.175781 L 1288.550781 684.242188 L 1289.828125 684.265625 L 1290.757812 684.222656 L 1291.949219 684.054688 L 1293.09375 683.742188 L 1294.132812 683.367188 L 1295.164062 682.898438 L 1294.804688 679.917969 L 1293.292969 679.765625 L 1292.253906 679.664062 L 1291.054688 679.6875 L 1290.246094 679.71875 L 1288.71875 679.976562 L 1287.597656 680.351562 Z M 1285.898438 681.007812 "/>
<path style=" stroke:none;fill-rule:evenodd;fill:rgb(100%,0%,0%);fill-opacity:1;" d="M 1286.164062 701.121094 L 1287.421875 708 L 1291.246094 707.3125 L 1289.988281 700.417969 Z M 1286.164062 701.121094 "/>
<path style=" stroke:none;fill-rule:evenodd;fill:rgb(100%,0%,0%);fill-opacity:1;" d="M 1302.984375 762.261719 L 1304.648438 766.1875 L 1312.417969 762.796875 L 1310.769531 758.871094 Z M 1302.984375 762.261719 "/>
<path style=" stroke:none;fill-rule:evenodd;fill:rgb(100%,0%,0%);fill-opacity:1;" d="M 1354.738281 758.605469 L 1355.769531 760.207031 L 1356.449219 760.570312 L 1358.210938 760.28125 L 1359.128906 759.773438 L 1360.097656 758.992188 L 1361.21875 757.78125 L 1362.480469 755.8125 L 1362.929688 754.511719 L 1363.058594 752.601562 L 1362.777344 751.578125 L 1362.402344 750.867188 L 1361.746094 750.324219 L 1360.90625 749.910156 L 1359.433594 749.820312 L 1358.25 750.324219 L 1357.015625 751.578125 L 1356.535156 752.800781 L 1356.394531 755.023438 L 1354.816406 757.804688 Z M 1354.738281 758.605469 "/>
<path style=" stroke:none;fill-rule:evenodd;fill:rgb(100%,0%,0%);fill-opacity:1;" d="M 1518.195312 730.199219 L 1521.636719 731.210938 L 1523.460938 724.988281 L 1522.796875 723.742188 L 1521.261719 723.285156 L 1520.03125 723.964844 Z M 1518.195312 730.199219 "/>
<path style=" stroke:none;fill-rule:evenodd;fill:rgb(100%,0%,0%);fill-opacity:1;" d="M 1554.691406 487.605469 L 1557.09375 488.605469 L 1561.996094 481.433594 L 1560.226562 479.257812 L 1556.339844 481.035156 Z M 1554.691406 487.605469 "/>
<path style=" stroke:none;fill-rule:evenodd;fill:rgb(100%,0%,0%);fill-opacity:1;" d="M 1595.410156 588.695312 L 1599.394531 588.75 L 1599.53125 580.746094 L 1595.546875 580.679688 Z M 1595.410156 588.695312 "/>
<path style=" stroke:none;fill-rule:evenodd;fill:rgb(100%,0%,0%);fill-opacity:1;" d="M 1586.738281 621.109375 L 1586.816406 621.746094 L 1587.199219 622.355469 L 1587.808594 622.777344 L 1588.714844 623.054688 L 1589.328125 623.101562 L 1589.921875 623.023438 L 1590.640625 622.855469 L 1591.113281 622.621094 L 1591.417969 621.910156 L 1591.441406 621.042969 L 1591.195312 620.066406 L 1590.839844 619.777344 L 1590.53125 619.320312 L 1590.601562 617.886719 L 1590.683594 616.363281 L 1590.578125 615.707031 L 1590.195312 615.128906 L 1589.570312 614.828125 L 1588.824219 614.808594 L 1588.167969 615.007812 L 1587.527344 615.519531 L 1587.160156 616.453125 Z M 1586.738281 621.109375 "/>
<path style=" stroke:none;fill-rule:evenodd;fill:rgb(100%,0%,0%);fill-opacity:1;" d="M 1464.1875 624.710938 L 1464.285156 625.589844 L 1464.59375 625.878906 L 1466.261719 626.089844 L 1467.386719 629.449219 L 1468.019531 630.550781 L 1468.523438 630.75 L 1469.109375 630.738281 L 1469.628906 630.515625 L 1470.546875 629.539062 L 1471.246094 626.8125 L 1471.757812 625.613281 L 1472.277344 624.945312 L 1473.078125 624.414062 L 1474.070312 623.8125 L 1474.515625 623.355469 L 1474.582031 622.8125 L 1474.347656 622.34375 L 1473.726562 621.898438 L 1469.371094 621.410156 L 1467.910156 621.609375 L 1466.476562 622.210938 L 1465.722656 622.699219 L 1464.378906 624.167969 Z M 1464.1875 624.710938 "/>
<path style=" stroke:none;fill-rule:evenodd;fill:rgb(100%,0%,0%);fill-opacity:1;" d="M 1501.617188 462.179688 L 1504.570312 468.015625 L 1508.125 466.027344 L 1504.273438 460.402344 Z M 1501.617188 462.179688 "/>
<path style=" stroke:none;fill-rule:evenodd;fill:rgb(100%,0%,0%);fill-opacity:1;" d="M 1485.472656 442.871094 L 1485.664062 446.683594 L 1495.921875 445.183594 L 1495.730469 441.746094 Z M 1485.472656 442.871094 "/>
<path style=" stroke:none;fill-rule:evenodd;fill:rgb(100%,0%,0%);fill-opacity:1;" d="M 1444.746094 435.519531 L 1448.34375 435.34375 L 1448.441406 427.226562 L 1446.34375 427.273438 L 1446.296875 426.039062 L 1444.746094 426.082031 Z M 1444.746094 435.519531 "/>
<path style=" stroke:none;fill-rule:evenodd;fill:rgb(100%,0%,0%);fill-opacity:1;" d="M 1559.308594 350.507812 L 1559.78125 352.128906 L 1560.820312 353.464844 L 1562.269531 354.320312 L 1563.941406 354.585938 L 1565.582031 354.21875 L 1566.972656 353.253906 L 1567.917969 351.863281 L 1568.285156 350.21875 L 1568.261719 349.640625 L 1567.789062 348.015625 L 1566.765625 346.683594 L 1565.308594 345.824219 L 1564.207031 345.582031 L 1563.078125 345.613281 L 1561.5 346.191406 L 1560.238281 347.316406 L 1559.476562 348.816406 Z M 1559.308594 350.507812 "/>
<path style=" stroke:none;fill-rule:evenodd;fill:rgb(100%,0%,0%);fill-opacity:1;" d="M 1529.09375 333.628906 L 1530.238281 338.34375 L 1539.703125 335.875 L 1538.550781 331.160156 Z M 1529.09375 333.628906 "/>
<path style=" stroke:none;fill-rule:evenodd;fill:rgb(100%,0%,0%);fill-opacity:1;" d="M 1559.226562 470.105469 L 1559.996094 473.164062 L 1563.214844 473.074219 L 1564.15625 472.640625 L 1564.53125 471.796875 L 1564.933594 470.507812 L 1565.039062 469.285156 L 1565.261719 467.484375 L 1565.535156 467.070312 L 1565.703125 466.847656 L 1565.46875 463.257812 L 1563.085938 463.160156 L 1561.386719 463.8125 L 1560.546875 464.882812 L 1560.363281 466.027344 L 1560.589844 467.539062 L 1561.019531 468.75 L 1561.109375 469.339844 L 1560.988281 469.796875 L 1560.699219 470.140625 Z M 1559.226562 470.105469 "/>
<path style=" stroke:none;fill-rule:evenodd;fill:rgb(100%,0%,0%);fill-opacity:1;" d="M 1546.457031 291.570312 L 1553.820312 298.164062 L 1557.003906 294.472656 L 1549.660156 287.902344 L 1548.976562 288.691406 L 1548.5625 288.382812 L 1547.976562 288.238281 L 1547.378906 288.359375 L 1546.921875 288.691406 L 1546.683594 289.046875 L 1546.539062 289.726562 L 1546.753906 290.382812 L 1547.113281 290.78125 Z M 1546.457031 291.570312 "/>
<path style=" stroke:none;fill-rule:evenodd;fill:rgb(100%,0%,0%);fill-opacity:1;" d="M 1277.738281 248.660156 L 1279.996094 252.550781 L 1289.46875 247.011719 L 1287.210938 243.121094 Z M 1277.738281 248.660156 "/>
<path style=" stroke:none;fill-rule:evenodd;fill:rgb(100%,0%,0%);fill-opacity:1;" d="M 1275.554688 288.9375 L 1280.265625 290.304688 L 1282.90625 280.789062 L 1278.21875 279.398438 Z M 1275.554688 288.9375 "/>
<path style=" stroke:none;fill-rule:evenodd;fill:rgb(100%,0%,0%);fill-opacity:1;" d="M 1408.378906 266.992188 L 1412.144531 275.128906 L 1419.089844 275.242188 L 1419.148438 270.335938 L 1413.859375 270.238281 L 1413.355469 269.09375 L 1414.554688 268.46875 L 1412.84375 265.011719 Z M 1408.378906 266.992188 "/>
<path style=" stroke:none;fill-rule:evenodd;fill:rgb(100%,0%,0%);fill-opacity:1;" d="M 1367.21875 338.542969 L 1371.125 339.6875 L 1373.460938 331.71875 L 1372.972656 331.574219 L 1373.226562 330.527344 L 1373.035156 329.804688 L 1372.753906 329.4375 L 1372.140625 329.09375 L 1371.234375 329.117188 L 1370.859375 329.328125 L 1370.339844 329.984375 L 1370.097656 330.726562 L 1369.546875 330.5625 Z M 1367.21875 338.542969 "/>
<path style=" stroke:none;fill-rule:evenodd;fill:rgb(100%,0%,0%);fill-opacity:1;" d="M 1342.886719 354.375 L 1345.65625 358.554688 L 1354.375 352.742188 L 1351.617188 348.570312 Z M 1342.886719 354.375 "/>
<path style=" stroke:none;fill-rule:evenodd;fill:rgb(100%,0%,0%);fill-opacity:1;" d="M 1389.78125 439.035156 L 1391.855469 444.558594 L 1394.421875 443.582031 L 1392.351562 438.078125 Z M 1389.78125 439.035156 "/>
<path style=" stroke:none;fill-rule:evenodd;fill:rgb(100%,0%,0%);fill-opacity:1;" d="M 1342.316406 433.097656 L 1344.773438 437.457031 L 1353.390625 432.753906 L 1351.097656 428.304688 Z M 1342.316406 433.097656 "/>
<path style=" stroke:none;fill-rule:evenodd;fill:rgb(100%,0%,0%);fill-opacity:1;" d="M 1255.144531 380.3125 L 1258.984375 384.914062 L 1268.914062 376.53125 L 1265.066406 371.941406 Z M 1255.144531 380.3125 "/>
<path style=" stroke:none;fill-rule:evenodd;fill:rgb(100%,0%,0%);fill-opacity:1;" d="M 1333.515625 301.46875 L 1335.542969 304.925781 L 1343.277344 300.367188 L 1341.261719 296.910156 Z M 1333.515625 301.46875 "/>
<path style=" stroke:none;fill-rule:evenodd;fill:rgb(100%,0%,0%);fill-opacity:1;" d="M 1302.511719 310.683594 L 1303.535156 313.996094 L 1303.757812 314.195312 L 1312.929688 311.363281 L 1312.960938 311.128906 L 1311.882812 307.636719 L 1302.726562 310.371094 L 1302.558594 310.5625 Z M 1302.511719 310.683594 "/>
<path style=" stroke:none;fill-rule:evenodd;fill:rgb(100%,0%,0%);fill-opacity:1;" d="M 1176.304688 337.554688 L 1180.355469 346.726562 L 1184.914062 344.660156 L 1180.859375 335.542969 Z M 1176.304688 337.554688 "/>
<path style=" stroke:none;fill-rule:evenodd;fill:rgb(100%,0%,0%);fill-opacity:1;" d="M 1236.546875 358.410156 L 1240.644531 362.667969 L 1249.886719 353.695312 L 1245.828125 349.4375 Z M 1236.546875 358.410156 "/>
<path style=" stroke:none;fill-rule:evenodd;fill:rgb(100%,0%,0%);fill-opacity:1;" d="M 1215.726562 421.089844 L 1217.570312 430.828125 L 1222.480469 429.917969 L 1220.632812 420.191406 Z M 1215.726562 421.089844 "/>
<path style=" stroke:none;fill-rule:evenodd;fill:rgb(100%,0%,0%);fill-opacity:1;" d="M 1079.679688 468.75 L 1083.871094 474.6875 L 1086.875 472.742188 L 1082.777344 466.636719 L 1082.367188 466.925781 L 1081.457031 466.628906 L 1080.753906 466.816406 L 1080.128906 467.570312 L 1080.097656 468.472656 Z M 1079.679688 468.75 "/>
<path style=" stroke:none;fill-rule:evenodd;fill:rgb(100%,0%,0%);fill-opacity:1;" d="M 1065.886719 385.75 L 1068.292969 390.128906 L 1076.992188 385.4375 L 1076.757812 385.058594 L 1076.769531 384.558594 L 1077.6875 383.570312 L 1077.695312 382.800781 L 1077.441406 382.179688 L 1077.167969 381.855469 L 1076.375 381.523438 L 1075.136719 381.800781 L 1074.589844 381.078125 Z M 1065.886719 385.75 "/>
<path style=" stroke:none;fill-rule:evenodd;fill:rgb(100%,0%,0%);fill-opacity:1;" d="M 1096.921875 262.476562 L 1102.636719 267.089844 L 1104.933594 264.246094 L 1099.21875 259.621094 Z M 1096.921875 262.476562 "/>
<path style=" stroke:none;fill-rule:evenodd;fill:rgb(100%,0%,0%);fill-opacity:1;" d="M 1084.511719 244.476562 L 1091.378906 248.558594 L 1093.410156 245.101562 L 1086.546875 241.03125 Z M 1084.511719 244.476562 "/>
<path style=" stroke:none;fill-rule:evenodd;fill:rgb(100%,0%,0%);fill-opacity:1;" d="M 1132.457031 270.125 L 1137.675781 279.644531 L 1142.410156 277.097656 L 1137.210938 267.558594 Z M 1132.457031 270.125 "/>
<path style=" stroke:none;fill-rule:evenodd;fill:rgb(100%,0%,0%);fill-opacity:1;" d="M 294.726562 807.207031 L 300.878906 807.785156 L 301.015625 804.695312 L 295.046875 804.238281 Z M 294.726562 807.207031 "/>
<path style=" stroke:none;fill-rule:evenodd;fill:rgb(100%,0%,0%);fill-opacity:1;" d="M 311.386719 679.195312 L 315.242188 679.21875 L 315.257812 671.25 L 311.394531 671.25 Z M 311.386719 679.195312 "/>
<path style=" stroke:none;fill-rule:evenodd;fill:rgb(100%,0%,0%);fill-opacity:1;" d="M 216.496094 722.074219 L 219.105469 725.042969 L 225.042969 719.773438 L 222.425781 716.804688 Z M 216.496094 722.074219 "/>
<path style=" stroke:none;fill-rule:evenodd;fill:rgb(100%,0%,0%);fill-opacity:1;" d="M 179.21875 599.800781 L 184.203125 606.058594 L 184.652344 605.691406 L 185.5 605.902344 L 186.429688 605.511719 L 186.820312 604.878906 L 186.835938 604.046875 L 187.332031 603.667969 L 182.324219 597.363281 Z M 179.21875 599.800781 "/>
<path style=" stroke:none;fill-rule:evenodd;fill:rgb(100%,0%,0%);fill-opacity:1;" d="M 199.957031 579.898438 L 200.230469 580.957031 L 204.335938 586.527344 L 204.757812 586.914062 L 205.382812 587.171875 L 206.429688 587.027344 L 210.175781 584.503906 L 210.359375 584.234375 L 210.367188 583.835938 L 210.207031 583.636719 L 209.03125 582.191406 L 208.582031 582.054688 L 207.457031 582.546875 L 206.765625 582.480469 L 206.429688 582.289062 L 203.757812 578.734375 L 202.765625 578 L 202.359375 577.941406 L 201.535156 578.210938 L 200.445312 578.953125 L 200.167969 579.277344 Z M 199.957031 579.898438 "/>
<path style=" stroke:none;fill-rule:evenodd;fill:rgb(100%,0%,0%);fill-opacity:1;" d="M 283.78125 653.136719 L 289.4375 661.265625 L 293.40625 658.484375 L 287.75 650.359375 Z M 283.78125 653.136719 "/>
<path style=" stroke:none;fill-rule:evenodd;fill:rgb(100%,0%,0%);fill-opacity:1;" d="M 186.386719 542.210938 L 191.371094 550.660156 L 195.613281 548.171875 L 191.558594 541.289062 L 191.78125 540.84375 L 192.390625 540.488281 L 191.589844 539.121094 Z M 186.386719 542.210938 "/>
<path style=" stroke:none;fill-rule:evenodd;fill:rgb(100%,0%,0%);fill-opacity:1;" d="M 97.554688 654.371094 L 98.78125 658.175781 L 103.628906 656.605469 L 102.414062 652.804688 Z M 97.554688 654.371094 "/>
<path style=" stroke:none;fill-rule:evenodd;fill:rgb(100%,0%,0%);fill-opacity:1;" d="M 11.011719 433.964844 L 11.605469 437.023438 L 16.246094 436.375 L 15.652344 433.320312 Z M 11.011719 433.964844 "/>
<path style=" stroke:none;fill-rule:evenodd;fill:rgb(100%,0%,0%);fill-opacity:1;" d="M 63.207031 420.277344 L 66.359375 422.480469 L 70.800781 416.066406 L 67.648438 413.875 Z M 63.207031 420.277344 "/>
<path style=" stroke:none;fill-rule:evenodd;fill:rgb(100%,0%,0%);fill-opacity:1;" d="M 171.496094 416.445312 L 180.722656 419.113281 L 181.691406 415.21875 L 173.9375 413.296875 Z M 171.496094 416.445312 "/>
<path style=" stroke:none;fill-rule:evenodd;fill:rgb(100%,0%,0%);fill-opacity:1;" d="M 293.015625 468.316406 L 298.710938 471.394531 L 304.632812 460.402344 L 298.9375 457.3125 Z M 293.015625 468.316406 "/>
<path style=" stroke:none;fill-rule:evenodd;fill:rgb(100%,0%,0%);fill-opacity:1;" d="M 260.015625 381.566406 L 261.761719 386.070312 L 273.265625 381.644531 L 271.546875 377.132812 Z M 260.015625 381.566406 "/>
<path style=" stroke:none;fill-rule:evenodd;fill:rgb(100%,0%,0%);fill-opacity:1;" d="M 318.996094 332.441406 L 326.949219 338.277344 L 329.828125 334.351562 L 321.867188 328.515625 Z M 318.996094 332.441406 "/>
<path style=" stroke:none;fill-rule:evenodd;fill:rgb(100%,0%,0%);fill-opacity:1;" d="M 262.992188 297.554688 L 268.394531 305.757812 L 272.484375 303.078125 L 267.011719 294.953125 L 266.167969 295.484375 L 265.472656 294.828125 L 264.457031 294.796875 L 263.824219 295.386719 L 263.578125 295.875 L 263.5625 296.429688 L 263.800781 296.964844 Z M 262.992188 297.554688 "/>
<path style=" stroke:none;fill-rule:evenodd;fill:rgb(100%,0%,0%);fill-opacity:1;" d="M 213.367188 352.195312 L 213.417969 356.730469 L 221.402344 356.632812 L 221.347656 352.097656 Z M 213.367188 352.195312 "/>
<path style=" stroke:none;fill-rule:evenodd;fill:rgb(100%,0%,0%);fill-opacity:1;" d="M 182.226562 370.0625 L 184.46875 373.863281 L 189.78125 370.71875 L 187.539062 366.914062 Z M 182.226562 370.0625 "/>
<path style=" stroke:none;fill-rule:evenodd;fill:rgb(100%,0%,0%);fill-opacity:1;" d="M 321.019531 258.199219 L 323.605469 261.753906 L 331.507812 255.996094 L 330.71875 254.128906 L 330.292969 253.582031 L 330.566406 252.128906 L 330.476562 251.449219 L 329.796875 250.757812 L 329.460938 250.738281 L 329.09375 250.9375 L 328.886719 251.160156 L 328.8125 251.570312 L 329.0625 252.28125 Z M 321.019531 258.199219 "/>
<path style=" stroke:none;fill-rule:evenodd;fill:rgb(100%,0%,0%);fill-opacity:1;" d="M 125 250.4375 L 125.417969 251.171875 L 126.015625 252.058594 L 126.394531 252.5625 L 126.960938 253.140625 L 127.65625 253.71875 L 128.714844 254.539062 L 129.683594 255.375 L 130.609375 255.894531 L 132.652344 256.808594 L 134.820312 254.25 L 134.441406 253.582031 L 133.90625 252.882812 L 133.417969 252.238281 L 132.945312 251.683594 L 132.363281 251.148438 L 131.304688 250.25 L 129.914062 249.148438 L 128.480469 248.3125 L 127.121094 247.78125 Z M 125 250.4375 "/>
<path style=" stroke:none;fill-rule:evenodd;fill:rgb(100%,0%,0%);fill-opacity:1;" d="M 941.375 277.109375 L 944.59375 279.464844 L 949.289062 272.984375 L 946.074219 270.636719 Z M 941.375 277.109375 "/>
<path style=" stroke:none;fill-rule:evenodd;fill:rgb(100%,0%,0%);fill-opacity:1;" d="M 961.5625 267.726562 L 964.226562 270.683594 L 969.40625 265.992188 L 966.742188 263.023438 Z M 961.5625 267.726562 "/>
<path style=" stroke:none;fill-rule:evenodd;fill:rgb(100%,0%,0%);fill-opacity:1;" d="M 1025.765625 286.292969 L 1031.550781 288.425781 L 1035.617188 276.761719 L 1034.625 276.417969 L 1034.144531 275.175781 L 1033.183594 274.539062 L 1032.503906 274.351562 L 1030.992188 275.039062 L 1029.925781 274.671875 Z M 1025.765625 286.292969 "/>
<path style=" stroke:none;fill-rule:evenodd;fill:rgb(100%,0%,0%);fill-opacity:1;" d="M 1053.257812 287.960938 L 1053.578125 289.414062 L 1060.011719 293.050781 L 1061.421875 292.59375 L 1062.390625 290.851562 L 1062.019531 289.492188 L 1055.597656 285.835938 L 1054.242188 286.214844 Z M 1053.257812 287.960938 "/>
<path style=" stroke:none;fill-rule:evenodd;fill:rgb(100%,0%,0%);fill-opacity:1;" d="M 1035.601562 360.890625 L 1038.007812 365.160156 L 1046.945312 359.910156 L 1044.578125 355.621094 Z M 1035.601562 360.890625 "/>
<path style=" stroke:none;fill-rule:evenodd;fill:rgb(100%,0%,0%);fill-opacity:1;" d="M 1056.109375 415.476562 L 1058.253906 419.421875 L 1067.007812 414.609375 L 1064.84375 410.664062 Z M 1056.109375 415.476562 "/>
<path style=" stroke:none;fill-rule:evenodd;fill:rgb(100%,0%,0%);fill-opacity:1;" d="M 1021.246094 449.015625 L 1029.3125 452.976562 L 1030.96875 449.5625 L 1022.894531 445.59375 Z M 1021.246094 449.015625 "/>
<path style=" stroke:none;fill-rule:evenodd;fill:rgb(100%,0%,0%);fill-opacity:1;" d="M 939.441406 405.78125 L 939.65625 406.28125 L 943.648438 409.128906 L 949.664062 400.613281 L 945.304688 397.464844 Z M 939.441406 405.78125 "/>
<path style=" stroke:none;fill-rule:evenodd;fill:rgb(100%,0%,0%);fill-opacity:1;" d="M 944.9375 433.152344 L 947.929688 435.796875 L 953.785156 429.082031 L 950.816406 426.425781 Z M 944.9375 433.152344 "/>
<path style=" stroke:none;fill-rule:evenodd;fill:rgb(100%,0%,0%);fill-opacity:1;" d="M 932.6875 475.84375 L 938.0625 480.300781 L 939.96875 478 L 934.589844 473.53125 Z M 932.6875 475.84375 "/>
<path style=" stroke:none;fill-rule:evenodd;fill:rgb(100%,0%,0%);fill-opacity:1;" d="M 894.503906 476.664062 L 898.144531 477.175781 L 899.144531 477.078125 L 900.273438 468.660156 L 899.753906 468.59375 L 899.59375 467.960938 L 899.167969 467.316406 L 898.089844 466.804688 L 897.054688 466.972656 L 896.464844 467.394531 L 896.007812 468.082031 L 895.664062 468.027344 Z M 894.503906 476.664062 "/>
<path style=" stroke:none;fill-rule:evenodd;fill:rgb(100%,0%,0%);fill-opacity:1;" d="M 888.453125 424.203125 L 892.390625 425.636719 L 895.9375 415.855469 L 892 414.421875 Z M 888.453125 424.203125 "/>
<path style=" stroke:none;fill-rule:evenodd;fill:rgb(100%,0%,0%);fill-opacity:1;" d="M 901.417969 434.265625 L 905.800781 435.941406 L 909.273438 426.816406 L 904.867188 425.148438 Z M 901.417969 434.265625 "/>
<path style=" stroke:none;fill-rule:evenodd;fill:rgb(100%,0%,0%);fill-opacity:1;" d="M 904.898438 398.234375 L 910.417969 404.003906 L 913.300781 401.210938 L 907.761719 395.453125 Z M 904.898438 398.234375 "/>
<path style=" stroke:none;fill-rule:evenodd;fill:rgb(100%,0%,0%);fill-opacity:1;" d="M 922.027344 351.707031 L 929.878906 353.128906 L 930.589844 349.195312 L 922.75 347.769531 Z M 922.027344 351.707031 "/>
<path style=" stroke:none;fill-rule:evenodd;fill:rgb(100%,0%,0%);fill-opacity:1;" d="M 913.050781 387.628906 L 915.179688 389.75 L 921.5 383.347656 L 919.371094 381.234375 Z M 913.050781 387.628906 "/>
<path style=" stroke:none;fill-rule:evenodd;fill:rgb(100%,0%,0%);fill-opacity:1;" d="M 949.015625 370.917969 L 949.167969 376.421875 L 952.667969 376.320312 L 952.507812 370.816406 Z M 949.015625 370.917969 "/>
<path style=" stroke:none;fill-rule:evenodd;fill:rgb(100%,0%,0%);fill-opacity:1;" d="M 838.902344 250.460938 L 843.480469 251.59375 L 845.390625 244.265625 L 846.222656 244.488281 L 846.945312 241.886719 L 841.34375 240.507812 Z M 838.902344 250.460938 "/>
<path style=" stroke:none;fill-rule:evenodd;fill:rgb(100%,0%,0%);fill-opacity:1;" d="M 369.027344 284.878906 L 369.25 285.289062 L 369.789062 285.523438 L 377.4375 283.078125 L 378.1875 282.421875 L 378.179688 280.820312 L 378.132812 280.476562 L 378.605469 278.34375 L 378.460938 277.519531 L 378.039062 276.886719 L 377.421875 276.429688 L 376.71875 276.242188 L 375.910156 276.230469 L 374.972656 276.507812 L 374.523438 276.941406 L 369.109375 284.378906 Z M 369.027344 284.878906 "/>
<path style=" stroke:none;fill-rule:evenodd;fill:rgb(100%,0%,0%);fill-opacity:1;" d="M 413.667969 328.027344 L 415.804688 334.242188 L 417.539062 334.207031 L 418.269531 334.019531 L 418.882812 333.429688 L 418.917969 332.617188 L 418.339844 325.738281 L 417.964844 324.902344 L 417.210938 324.570312 L 416.253906 324.558594 L 415.1875 324.902344 L 413.914062 326.058594 L 413.667969 326.960938 Z M 413.667969 328.027344 "/>
<path style=" stroke:none;fill-rule:evenodd;fill:rgb(100%,0%,0%);fill-opacity:1;" d="M 388.085938 413.851562 L 391.855469 414.453125 L 393.191406 405.648438 L 389.382812 405.082031 Z M 388.085938 413.851562 "/>
<path style=" stroke:none;fill-rule:evenodd;fill:rgb(100%,0%,0%);fill-opacity:1;" d="M 363.707031 401.15625 L 375.515625 402.359375 L 375.628906 401.289062 L 376.109375 401.257812 L 376.878906 400.847656 L 377.398438 400.222656 L 377.574219 399.589844 L 377.597656 399.289062 L 377.1875 398.167969 L 376.019531 397.386719 L 376.125 396.34375 L 364.300781 395.152344 Z M 363.707031 401.15625 "/>
<path style=" stroke:none;fill-rule:evenodd;fill:rgb(100%,0%,0%);fill-opacity:1;" d="M 366.972656 470.664062 L 371.78125 471.496094 L 373.363281 461.746094 L 368.554688 460.957031 Z M 366.972656 470.664062 "/>
<path style=" stroke:none;fill-rule:evenodd;fill:rgb(100%,0%,0%);fill-opacity:1;" d="M 375.214844 431.296875 L 381.324219 441.101562 L 385.648438 438.367188 L 379.550781 428.582031 L 378.125 429.484375 L 377.589844 428.617188 L 375.996094 429.605469 L 376.53125 430.472656 Z M 375.214844 431.296875 "/>
<path style=" stroke:none;fill-rule:evenodd;fill:rgb(100%,0%,0%);fill-opacity:1;" d="M 439.214844 465.183594 L 441 468.660156 L 448.089844 464.882812 L 446.273438 461.445312 Z M 439.214844 465.183594 "/>
<path style=" stroke:none;fill-rule:evenodd;fill:rgb(100%,0%,0%);fill-opacity:1;" d="M 450.464844 475.054688 L 455.273438 481.445312 L 458.460938 479.035156 L 453.652344 472.640625 Z M 450.464844 475.054688 "/>
<path style=" stroke:none;fill-rule:evenodd;fill:rgb(100%,0%,0%);fill-opacity:1;" d="M 430.34375 395.53125 L 434.261719 401.035156 L 441.007812 397.097656 L 439.128906 393.609375 L 437.519531 394.285156 L 436.777344 394.421875 L 435.65625 394.199219 L 434.496094 393.707031 L 433.390625 392.886719 Z M 430.34375 395.53125 "/>
<path style=" stroke:none;fill-rule:evenodd;fill:rgb(100%,0%,0%);fill-opacity:1;" d="M 465.277344 411.761719 L 469.8125 419.476562 L 473.589844 417.234375 L 469.0625 409.515625 Z M 465.277344 411.761719 "/>
<path style=" stroke:none;fill-rule:evenodd;fill:rgb(100%,0%,0%);fill-opacity:1;" d="M 501.867188 413.621094 L 506.84375 421.113281 L 510.179688 418.921875 L 505.203125 411.429688 Z M 501.867188 413.621094 "/>
<path style=" stroke:none;fill-rule:evenodd;fill:rgb(100%,0%,0%);fill-opacity:1;" d="M 471.710938 442.15625 L 475 445.949219 L 477.855469 446.347656 L 478.648438 447.5625 L 479.589844 447.695312 L 480.207031 443.957031 L 477.238281 443.046875 L 474.46875 439.8125 Z M 471.710938 442.15625 "/>
<path style=" stroke:none;fill-rule:evenodd;fill:rgb(100%,0%,0%);fill-opacity:1;" d="M 568.125 447.273438 L 573.945312 451.71875 L 580.113281 443.648438 L 574.296875 439.199219 Z M 568.125 447.273438 "/>
<path style=" stroke:none;fill-rule:evenodd;fill:rgb(100%,0%,0%);fill-opacity:1;" d="M 557.75 409.039062 L 559.667969 411.964844 L 568 406.460938 L 566.070312 403.535156 Z M 557.75 409.039062 "/>
<path style=" stroke:none;fill-rule:evenodd;fill:rgb(100%,0%,0%);fill-opacity:1;" d="M 619.433594 500.066406 L 624.113281 502.035156 L 627.960938 492.796875 L 623.289062 490.828125 Z M 619.433594 500.066406 "/>
<path style=" stroke:none;fill-rule:evenodd;fill:rgb(100%,0%,0%);fill-opacity:1;" d="M 687.316406 544.191406 L 690.730469 549.117188 L 700.550781 542.257812 L 695.414062 534.875 L 692.15625 537.15625 L 693.859375 539.621094 Z M 687.316406 544.191406 "/>
<path style=" stroke:none;fill-rule:evenodd;fill:rgb(100%,0%,0%);fill-opacity:1;" d="M 616.34375 578.199219 L 619.464844 580.523438 L 624.199219 574.074219 L 621.078125 571.761719 Z M 616.34375 578.199219 "/>
<path style=" stroke:none;fill-rule:evenodd;fill:rgb(100%,0%,0%);fill-opacity:1;" d="M 568.78125 595.628906 L 569.359375 598.289062 L 575.566406 601.476562 L 577.390625 597.910156 L 572.953125 595.628906 L 572.609375 594.484375 Z M 568.78125 595.628906 "/>
<path style=" stroke:none;fill-rule:evenodd;fill:rgb(100%,0%,0%);fill-opacity:1;" d="M 567.34375 637.484375 L 576 642.464844 L 578.234375 638.554688 L 569.582031 633.582031 Z M 567.34375 637.484375 "/>
<path style=" stroke:none;fill-rule:evenodd;fill:rgb(100%,0%,0%);fill-opacity:1;" d="M 545.761719 621.746094 L 554.308594 626.890625 L 556.867188 622.601562 L 548.316406 617.464844 Z M 545.761719 621.746094 "/>
<path style=" stroke:none;fill-rule:evenodd;fill:rgb(100%,0%,0%);fill-opacity:1;" d="M 542.601562 556.84375 L 543.105469 565.902344 L 549.25 565.582031 L 548.789062 556.507812 Z M 542.601562 556.84375 "/>
<path style=" stroke:none;fill-rule:evenodd;fill:rgb(100%,0%,0%);fill-opacity:1;" d="M 469.917969 522.980469 L 473.917969 531.152344 L 477.496094 529.371094 L 473.484375 521.203125 Z M 469.917969 522.980469 "/>
<path style=" stroke:none;fill-rule:evenodd;fill:rgb(100%,0%,0%);fill-opacity:1;" d="M 427.269531 522.480469 L 427.535156 523.726562 L 428.070312 524.738281 L 428.992188 525.660156 L 430.230469 526.316406 L 431.199219 526.4375 L 432.382812 526.183594 L 432.144531 525.359375 L 432.101562 524.492188 L 432.320312 523.824219 L 432.765625 523.257812 L 431.285156 520.679688 L 430.285156 520.746094 L 429.773438 520.589844 L 428.558594 519.566406 L 427.789062 520.421875 L 427.316406 521.546875 Z M 427.269531 522.480469 "/>
<path style=" stroke:none;fill-rule:evenodd;fill:rgb(100%,0%,0%);fill-opacity:1;" d="M 327.09375 589.359375 L 334.09375 594.472656 L 334.445312 593.996094 L 335.660156 594.886719 L 337.78125 591.960938 L 336.542969 591.0625 L 336.863281 590.628906 L 329.859375 585.515625 Z M 327.09375 589.359375 "/>
<path style=" stroke:none;fill-rule:evenodd;fill:rgb(100%,0%,0%);fill-opacity:1;" d="M 381.269531 643.410156 L 382.039062 647.335938 L 389.863281 645.789062 L 389.113281 641.878906 Z M 381.269531 643.410156 "/>
<path style=" stroke:none;fill-rule:evenodd;fill:rgb(100%,0%,0%);fill-opacity:1;" d="M 445.402344 659.207031 L 446.679688 660.363281 L 447.523438 661.132812 L 448.167969 661.53125 L 448.707031 661.765625 L 449.464844 661.164062 L 449.976562 660.730469 L 450.921875 659.941406 L 451.675781 658.953125 L 452.011719 658.152344 L 451.273438 651.882812 L 451.050781 651.4375 L 450.707031 651.226562 L 447.457031 651.214844 L 447.136719 651.328125 L 446.929688 651.636719 Z M 445.402344 659.207031 "/>
<path style=" stroke:none;fill-rule:evenodd;fill:rgb(100%,0%,0%);fill-opacity:1;" d="M 504.570312 583.789062 L 510.691406 589.714844 L 513.453125 586.835938 L 507.347656 580.898438 Z M 504.570312 583.789062 "/>
<path style=" stroke:none;fill-rule:evenodd;fill:rgb(100%,0%,0%);fill-opacity:1;" d="M 485.886719 682.242188 L 495.898438 682.289062 L 495.90625 677.695312 L 485.914062 677.664062 Z M 485.886719 682.242188 "/>
<path style=" stroke:none;fill-rule:evenodd;fill:rgb(100%,0%,0%);fill-opacity:1;" d="M 496.585938 730.644531 L 496.699219 731.234375 L 496.882812 731.566406 L 497.152344 731.878906 L 497.472656 732.113281 L 497.914062 732.257812 L 498.769531 732.402344 L 499.363281 732.425781 L 505.476562 731.355469 L 505.621094 731.300781 L 505.707031 731.132812 L 505.042969 727.511719 L 504.890625 727.410156 L 498.675781 728.464844 L 497.84375 728.789062 L 497.113281 729.367188 L 496.777344 729.84375 L 496.632812 730.246094 Z M 496.585938 730.644531 "/>
<path style=" stroke:none;fill-rule:evenodd;fill:rgb(100%,0%,0%);fill-opacity:1;" d="M 422.398438 690.359375 L 424.164062 692.246094 L 425.660156 691.191406 L 426.492188 690.613281 L 427.117188 690.179688 L 427.527344 689.902344 L 427.871094 689.703125 L 428.246094 689.523438 L 429.054688 689.214844 L 429.757812 688.945312 L 431.246094 688.578125 L 431.863281 688.402344 L 430.6875 684.066406 L 430.054688 684.242188 L 428.40625 684.644531 L 427.453125 685.023438 L 426.511719 685.378906 L 425.8125 685.6875 L 425.132812 686.089844 L 424.558594 686.476562 L 423.949219 686.902344 L 423.253906 687.390625 L 422.886719 687.601562 L 422.996094 687.710938 L 423.132812 687.890625 L 423.246094 688.089844 L 423.355469 688.402344 L 423.414062 688.644531 L 423.40625 688.925781 L 423.375 689.214844 L 423.292969 689.457031 L 423.214844 689.636719 L 423.070312 689.847656 L 422.925781 690.011719 L 422.734375 690.167969 L 422.542969 690.292969 Z M 422.398438 690.359375 "/>
<path style=" stroke:none;fill-rule:evenodd;fill:rgb(100%,0%,0%);fill-opacity:1;" d="M 361.472656 672.449219 L 365.265625 673.761719 L 368.195312 665.246094 L 364.410156 663.898438 Z M 361.472656 672.449219 "/>
<path style=" stroke:none;fill-rule:evenodd;fill:rgb(100%,0%,0%);fill-opacity:1;" d="M 410.097656 793.332031 L 410.828125 800.292969 L 414.292969 799.925781 L 413.5625 792.964844 Z M 410.097656 793.332031 "/>
<path style=" stroke:none;fill-rule:evenodd;fill:rgb(100%,0%,0%);fill-opacity:1;" d="M 393.351562 833.71875 L 393.703125 834.5 L 394.367188 834.832031 L 394.480469 835.554688 L 400.632812 835.164062 L 400.378906 831.273438 L 394.222656 831.683594 L 394.289062 832.496094 L 393.625 832.875 Z M 393.351562 833.71875 "/>
<path style=" stroke:none;fill-rule:evenodd;fill:rgb(100%,0%,0%);fill-opacity:1;" d="M 456.019531 782.515625 L 457.644531 792.1875 L 462.554688 791.367188 L 461.484375 784.941406 L 462.765625 784.730469 L 462.210938 781.472656 L 460.933594 781.695312 Z M 456.019531 782.515625 "/>
<path style=" stroke:none;fill-rule:evenodd;fill:rgb(100%,0%,0%);fill-opacity:1;" d="M 571.917969 698.863281 L 575.449219 699.886719 L 577.519531 692.75 L 573.992188 691.714844 Z M 571.917969 698.863281 "/>
<path style=" stroke:none;fill-rule:evenodd;fill:rgb(100%,0%,0%);fill-opacity:1;" d="M 780.746094 672.171875 L 781.667969 676.75 L 791.636719 674.707031 L 790.710938 670.136719 Z M 780.746094 672.171875 "/>
<path style=" stroke:none;fill-rule:evenodd;fill:rgb(100%,0%,0%);fill-opacity:1;" d="M 729.609375 685.601562 L 730.5 689.503906 L 736.988281 688.011719 L 738.789062 684.355469 L 734.675781 682.296875 L 733.492188 684.699219 Z M 729.609375 685.601562 "/>
<path style=" stroke:none;fill-rule:evenodd;fill:rgb(100%,0%,0%);fill-opacity:1;" d="M 719.730469 507.683594 L 721.761719 511.695312 L 730.210938 507.371094 L 728.171875 503.359375 Z M 719.730469 507.683594 "/>
<path style=" stroke:none;fill-rule:evenodd;fill:rgb(100%,0%,0%);fill-opacity:1;" d="M 834.789062 487.648438 L 837.988281 490.027344 L 843.0625 483.179688 L 839.863281 480.800781 Z M 834.789062 487.648438 "/>
<path style=" stroke:none;fill-rule:evenodd;fill:rgb(100%,0%,0%);fill-opacity:1;" d="M 789.542969 617.230469 L 790.285156 622.089844 L 799.953125 620.597656 L 799.230469 615.71875 Z M 789.542969 617.230469 "/>
<path style=" stroke:none;fill-rule:evenodd;fill:rgb(100%,0%,0%);fill-opacity:1;" d="M 945.441406 619.34375 L 945.554688 620.65625 L 946.136719 621.855469 L 947.113281 622.746094 L 948.34375 623.210938 L 949.65625 623.179688 L 950.890625 622.679688 L 951.546875 622.101562 L 952.050781 621.378906 L 952.441406 620.109375 L 952.457031 619.664062 L 952.1875 618.375 L 951.464844 617.273438 L 950.394531 616.507812 L 949.097656 616.195312 L 947.800781 616.398438 L 946.65625 617.054688 L 945.832031 618.085938 Z M 945.441406 619.34375 "/>
<path style=" stroke:none;fill-rule:evenodd;fill:rgb(100%,0%,0%);fill-opacity:1;" d="M 923.355469 554.910156 L 924.15625 564.902344 L 928.582031 564.546875 L 927.78125 554.519531 Z M 923.355469 554.910156 "/>
<path style=" stroke:none;fill-rule:evenodd;fill:rgb(100%,0%,0%);fill-opacity:1;" d="M 914.117188 516.277344 L 914.492188 520.265625 L 923.421875 519.402344 L 923.042969 515.421875 Z M 914.117188 516.277344 "/>
<path style=" stroke:none;fill-rule:evenodd;fill:rgb(100%,0%,0%);fill-opacity:1;" d="M 987.921875 517.945312 L 993.167969 519.554688 L 996.074219 509.972656 L 990.816406 508.371094 Z M 987.921875 517.945312 "/>
<path style=" stroke:none;fill-rule:evenodd;fill:rgb(100%,0%,0%);fill-opacity:1;" d="M 978.855469 494.765625 L 980.285156 495.488281 L 979.78125 496.511719 L 981.039062 497.121094 L 981.550781 496.078125 L 987.59375 499.054688 L 989.703125 494.675781 L 980.984375 490.394531 Z M 978.855469 494.765625 "/>
<path style=" stroke:none;fill-rule:evenodd;fill:rgb(100%,0%,0%);fill-opacity:1;" d="M 1033.007812 607.335938 L 1036.464844 607.835938 L 1038.601562 600.054688 L 1034.160156 599.410156 Z M 1033.007812 607.335938 "/>
<path style=" stroke:none;fill-rule:evenodd;fill:rgb(100%,0%,0%);fill-opacity:1;" d="M 985.375 573.550781 L 986.839844 573.820312 L 985.703125 580.054688 L 990.273438 580.890625 L 991.945312 571.707031 L 985.929688 570.5625 Z M 985.375 573.550781 "/>
<path style=" stroke:none;fill-rule:evenodd;fill:rgb(100%,0%,0%);fill-opacity:1;" d="M 1003.828125 607.402344 L 1009.277344 607.882812 L 1010.242188 596.152344 L 1004.796875 595.695312 Z M 1003.828125 607.402344 "/>
<path style=" stroke:none;fill-rule:evenodd;fill:rgb(100%,0%,0%);fill-opacity:1;" d="M 986.054688 990.363281 L 990.464844 990.875 L 991.367188 983.382812 L 992 982.882812 L 991.058594 981.703125 L 990.296875 982.269531 L 987.023438 981.890625 Z M 986.054688 990.363281 "/>
<path style=" stroke:none;fill-rule:evenodd;fill:rgb(100%,0%,0%);fill-opacity:1;" d="M 966.941406 991.109375 L 976.847656 992.242188 L 977.414062 987.261719 L 967.492188 986.128906 Z M 966.941406 991.109375 "/>
<path style=" stroke:none;fill-rule:evenodd;fill:rgb(100%,0%,0%);fill-opacity:1;" d="M 924.230469 996.121094 L 927.6875 996.632812 L 928.6875 989.707031 L 925.222656 989.195312 Z M 924.230469 996.121094 "/>
<path style=" stroke:none;fill-rule:evenodd;fill:rgb(100%,0%,0%);fill-opacity:1;" d="M 891.871094 987.917969 L 892.351562 991.5625 L 899.863281 990.5625 L 899.382812 986.917969 Z M 891.871094 987.917969 "/>
<path style=" stroke:none;fill-rule:evenodd;fill:rgb(100%,0%,0%);fill-opacity:1;" d="M 908.019531 935.167969 L 908.257812 944.164062 L 914.234375 944.007812 L 913.996094 935.015625 Z M 908.019531 935.167969 "/>
<path style=" stroke:none;fill-rule:evenodd;fill:rgb(100%,0%,0%);fill-opacity:1;" d="M 922.574219 937.980469 L 926.566406 938.082031 L 926.667969 934.089844 L 922.683594 933.980469 Z M 922.574219 937.980469 "/>
<path style=" stroke:none;fill-rule:evenodd;fill:rgb(100%,0%,0%);fill-opacity:1;" d="M 958.050781 934.148438 L 962.820312 935.625 L 965.757812 926.054688 L 960.996094 924.585938 Z M 958.050781 934.148438 "/>
<path style=" stroke:none;fill-rule:evenodd;fill:rgb(100%,0%,0%);fill-opacity:1;" d="M 862.144531 911.191406 L 862.152344 913.992188 L 863.84375 913.9375 L 865.746094 913.324219 L 868.394531 913.191406 L 869.117188 912.703125 L 869.433594 911.847656 L 869.292969 911.148438 L 868.890625 910.648438 L 865.84375 910.648438 L 864.25 911.082031 L 862.226562 911.191406 Z M 862.144531 911.191406 "/>
<path style=" stroke:none;fill-rule:evenodd;fill:rgb(100%,0%,0%);fill-opacity:1;" d="M 707.519531 858.898438 L 707.613281 859.5 L 708.191406 860.601562 L 708.886719 860.976562 L 712.046875 861.300781 L 712.878906 861.15625 L 713.417969 860.5 L 713.382812 857.554688 L 713.464844 852.339844 L 713.390625 851.539062 L 712.9375 850.539062 L 711.886719 849.617188 L 711.304688 849.382812 L 708.34375 849.273438 L 707.792969 849.695312 L 707.582031 850.195312 Z M 707.519531 858.898438 "/>
<path style=" stroke:none;fill-rule:evenodd;fill:rgb(100%,0%,0%);fill-opacity:1;" d="M 722.515625 883.210938 L 726.234375 884.667969 L 729.132812 877.207031 L 725.410156 875.75 Z M 722.515625 883.210938 "/>
<path style=" stroke:none;fill-rule:evenodd;fill:rgb(100%,0%,0%);fill-opacity:1;" d="M 711.039062 1022.476562 L 721.839844 1026.246094 L 724.195312 1019.488281 L 713.398438 1015.730469 Z M 711.039062 1022.476562 "/>
<path style=" stroke:none;fill-rule:evenodd;fill:rgb(100%,0%,0%);fill-opacity:1;" d="M 837.40625 981.125 L 837.855469 986.105469 L 847.792969 985.195312 L 847.335938 980.214844 Z M 837.40625 981.125 "/>
<path style=" stroke:none;fill-rule:evenodd;fill:rgb(100%,0%,0%);fill-opacity:1;" d="M 842.71875 942.785156 L 843.109375 951.777344 L 847.09375 951.609375 L 846.703125 942.605469 Z M 842.71875 942.785156 "/>
<path style=" stroke:none;fill-rule:evenodd;fill:rgb(100%,0%,0%);fill-opacity:1;" d="M 852.113281 946.375 L 852.289062 950.367188 L 860.257812 950.011719 L 860.082031 946.007812 Z M 852.113281 946.375 "/>
<path style=" stroke:none;fill-rule:evenodd;fill:rgb(100%,0%,0%);fill-opacity:1;" d="M 753.773438 1155.871094 L 754.398438 1157.015625 L 759.136719 1158.605469 L 760.398438 1158.074219 L 761.039062 1156.140625 L 760.367188 1154.882812 L 755.617188 1153.304688 L 754.449219 1153.882812 Z M 753.773438 1155.871094 "/>
<path style=" stroke:none;fill-rule:evenodd;fill:rgb(100%,0%,0%);fill-opacity:1;" d="M 726.507812 1157.40625 L 730.636719 1158.640625 L 733.765625 1147.992188 L 729.628906 1146.769531 Z M 726.507812 1157.40625 "/>
<path style=" stroke:none;fill-rule:evenodd;fill:rgb(100%,0%,0%);fill-opacity:1;" d="M 695.515625 1177.191406 L 699.4375 1178.003906 L 701.054688 1170.167969 L 697.164062 1169.355469 L 696.421875 1172.902344 L 695.710938 1176.371094 Z M 695.515625 1177.191406 "/>
<path style=" stroke:none;fill-rule:evenodd;fill:rgb(100%,0%,0%);fill-opacity:1;" d="M 814.058594 1205.574219 L 814.066406 1206.207031 L 814.296875 1206.804688 L 814.738281 1207.273438 L 815.257812 1207.515625 L 815.042969 1208.296875 L 824.59375 1210.917969 L 825.914062 1206.074219 L 816.441406 1203.472656 L 816.25 1204.25 L 815.523438 1204.183594 L 814.90625 1204.382812 L 814.296875 1204.960938 Z M 814.058594 1205.574219 "/>
<path style=" stroke:none;fill-rule:evenodd;fill:rgb(100%,0%,0%);fill-opacity:1;" d="M 800.28125 1125.738281 L 812.050781 1131.171875 L 814.546875 1125.714844 L 802.769531 1120.289062 Z M 800.28125 1125.738281 "/>
<path style=" stroke:none;fill-rule:evenodd;fill:rgb(100%,0%,0%);fill-opacity:1;" d="M 845.511719 1209.0625 L 846.207031 1209.628906 L 848.328125 1210.90625 L 850.433594 1211.675781 L 852.542969 1212.03125 L 854.679688 1212.007812 L 855.769531 1208.839844 L 855.59375 1208.695312 L 853.527344 1207.363281 L 851.464844 1206.496094 L 849.167969 1205.984375 L 846.710938 1205.894531 L 846.597656 1205.90625 Z M 845.511719 1209.0625 "/>
<path style=" stroke:none;fill-rule:evenodd;fill:rgb(100%,0%,0%);fill-opacity:1;" d="M 912.378906 1102.105469 L 912.410156 1106.261719 L 912.980469 1107.351562 L 913.746094 1108.007812 L 914.25 1108.027344 L 914.8125 1107.851562 L 915.492188 1107.0625 L 915.714844 1106.160156 L 916.089844 1102.015625 L 915.699219 1100.957031 L 914.898438 1100.390625 L 914.15625 1100.28125 L 913.210938 1100.480469 L 912.609375 1101.058594 Z M 912.378906 1102.105469 "/>
<path style=" stroke:none;fill-rule:evenodd;fill:rgb(100%,0%,0%);fill-opacity:1;" d="M 908.753906 1058.949219 L 908.808594 1063.109375 L 909.296875 1064.128906 L 910.164062 1064.609375 L 910.914062 1064.640625 L 911.828125 1064.351562 L 912.363281 1063.695312 L 912.484375 1062.640625 L 912.035156 1058.503906 L 911.347656 1057.492188 L 910.523438 1056.9375 L 910.027344 1056.925781 L 909.492188 1057.183594 L 908.875 1058.039062 Z M 908.753906 1058.949219 "/>
<path style=" stroke:none;fill-rule:evenodd;fill:rgb(100%,0%,0%);fill-opacity:1;" d="M 938.878906 1053.859375 L 941.214844 1057.925781 L 945.402344 1055.425781 L 948.203125 1052.859375 L 945.921875 1048.667969 L 943.183594 1051.257812 Z M 938.878906 1053.859375 "/>
<path style=" stroke:none;fill-rule:evenodd;fill:rgb(100%,0%,0%);fill-opacity:1;" d="M 927.550781 1071.96875 L 927.621094 1078.992188 L 928.644531 1080.550781 L 929.660156 1082.90625 L 929.902344 1083.09375 L 930.789062 1083.183594 L 931.367188 1082.9375 L 931.726562 1082.273438 L 931.839844 1081.371094 L 931.542969 1071.8125 Z M 927.550781 1071.96875 "/>
<path style=" stroke:none;fill-rule:evenodd;fill:rgb(100%,0%,0%);fill-opacity:1;" d="M 979.277344 1073.089844 L 980.445312 1082.015625 L 985.398438 1081.359375 L 984.222656 1072.445312 Z M 979.277344 1073.089844 "/>
<path style=" stroke:none;fill-rule:evenodd;fill:rgb(100%,0%,0%);fill-opacity:1;" d="M 999.457031 1043.722656 L 1000.417969 1047.601562 L 1008.148438 1045.667969 L 1007.914062 1044.699219 L 1008.089844 1044.644531 L 1008.605469 1044.109375 L 1008.613281 1043.375 L 1008.21875 1042.886719 L 1007.4375 1042.765625 L 1007.1875 1041.796875 Z M 999.457031 1043.722656 "/>
<path style=" stroke:none;fill-rule:evenodd;fill:rgb(100%,0%,0%);fill-opacity:1;" d="M 1059.925781 1088.953125 L 1064.339844 1097.757812 L 1065.191406 1097.390625 L 1065.398438 1097.78125 L 1066.015625 1098.214844 L 1067.054688 1098.167969 L 1067.40625 1098.011719 L 1068.015625 1097.367188 L 1068.132812 1096.566406 L 1067.917969 1096.046875 L 1068.765625 1095.511719 L 1064.253906 1086.71875 Z M 1059.925781 1088.953125 "/>
<path style=" stroke:none;fill-rule:evenodd;fill:rgb(100%,0%,0%);fill-opacity:1;" d="M 1048.882812 1100.125 L 1050.179688 1102.816406 L 1050.777344 1103.792969 L 1051.394531 1104.503906 L 1051.882812 1104.914062 L 1052.652344 1105.304688 L 1053.4375 1105.484375 L 1054.722656 1105.371094 L 1055.363281 1105.183594 L 1055.675781 1105.027344 L 1052.425781 1098.390625 Z M 1048.882812 1100.125 "/>
<path style=" stroke:none;fill-rule:evenodd;fill:rgb(100%,0%,0%);fill-opacity:1;" d="M 1003.691406 1125.058594 L 1008.082031 1133.351562 L 1011.460938 1131.839844 L 1007.132812 1123.457031 Z M 1003.691406 1125.058594 "/>
<path style=" stroke:none;fill-rule:evenodd;fill:rgb(100%,0%,0%);fill-opacity:1;" d="M 996.664062 1157.050781 L 1002.921875 1164.542969 L 1006.523438 1161.53125 L 1000.257812 1154.039062 Z M 996.664062 1157.050781 "/>
<path style=" stroke:none;fill-rule:evenodd;fill:rgb(100%,0%,0%);fill-opacity:1;" d="M 1018.375 1219 L 1020.46875 1227.972656 L 1023.863281 1227.171875 L 1021.773438 1218.210938 Z M 1018.375 1219 "/>
<path style=" stroke:none;fill-rule:evenodd;fill:rgb(100%,0%,0%);fill-opacity:1;" d="M 1054.363281 1296.445312 L 1055.714844 1305.136719 L 1059.75 1304.503906 L 1058.398438 1295.8125 L 1057.851562 1295.902344 L 1057.621094 1295.34375 L 1057.261719 1294.988281 L 1056.003906 1294.878906 L 1055.109375 1295.390625 L 1054.914062 1296.355469 Z M 1054.363281 1296.445312 "/>
<path style=" stroke:none;fill-rule:evenodd;fill:rgb(100%,0%,0%);fill-opacity:1;" d="M 989.097656 1257.894531 L 989.746094 1265.722656 L 993.632812 1265.398438 L 992.992188 1257.574219 Z M 989.097656 1257.894531 "/>
<path style=" stroke:none;fill-rule:evenodd;fill:rgb(100%,0%,0%);fill-opacity:1;" d="M 969.382812 1253.316406 L 969.773438 1257.292969 L 977.71875 1256.527344 L 977.308594 1252.539062 Z M 969.382812 1253.316406 "/>
<path style=" stroke:none;fill-rule:evenodd;fill:rgb(100%,0%,0%);fill-opacity:1;" d="M 989.976562 1239.355469 L 990.015625 1242.933594 L 997.179688 1242.855469 L 997.136719 1239.277344 Z M 989.976562 1239.355469 "/>
<path style=" stroke:none;fill-rule:evenodd;fill:rgb(100%,0%,0%);fill-opacity:1;" d="M 947.433594 1332.714844 L 948.808594 1333.515625 L 949.769531 1334.503906 L 950.1875 1335.195312 L 950.457031 1335.785156 L 951.953125 1340.21875 L 956.28125 1339.0625 L 954.386719 1331.980469 L 953.609375 1329.992188 L 950.691406 1330.816406 L 949.363281 1330.894531 L 948.625 1330.714844 Z M 947.433594 1332.714844 "/>
<path style=" stroke:none;fill-rule:evenodd;fill:rgb(100%,0%,0%);fill-opacity:1;" d="M 979.902344 1324.546875 L 981.613281 1332.847656 L 985.542969 1332.039062 L 983.824219 1323.734375 Z M 979.902344 1324.546875 "/>
<path style=" stroke:none;fill-rule:evenodd;fill:rgb(100%,0%,0%);fill-opacity:1;" d="M 1007.90625 1334.039062 L 1008.621094 1337.039062 L 1009.660156 1337.429688 L 1010.117188 1337.695312 L 1010.773438 1338.761719 L 1010.738281 1339.152344 L 1011.84375 1339.0625 L 1012.5 1338.472656 L 1012.757812 1337.296875 L 1012.660156 1336.683594 L 1011.714844 1335.773438 L 1011.292969 1334.894531 L 1011.261719 1333.683594 L 1011.683594 1332.515625 L 1012.171875 1331.859375 L 1012.820312 1331.660156 L 1010.964844 1329.9375 L 1009.628906 1331.761719 L 1008.132812 1332.515625 Z M 1007.90625 1334.039062 "/>
<path style=" stroke:none;fill-rule:evenodd;fill:rgb(100%,0%,0%);fill-opacity:1;" d="M 867.515625 1329.015625 L 870.058594 1334.417969 L 882.40625 1328.636719 L 879.828125 1323.210938 Z M 867.515625 1329.015625 "/>
<path style=" stroke:none;fill-rule:evenodd;fill:rgb(100%,0%,0%);fill-opacity:1;" d="M 740.796875 1253.703125 L 740.804688 1254.703125 L 741.15625 1256.039062 L 741.867188 1257.207031 L 742.765625 1258.0625 L 743.863281 1258.664062 L 745.324219 1258.972656 L 746.933594 1258.785156 L 748.382812 1258.074219 L 748.964844 1257.304688 L 749.757812 1256.738281 L 750.453125 1256.496094 L 751.3125 1256.503906 L 751.605469 1255.738281 L 751.6875 1254.660156 L 751.527344 1253.847656 L 751.054688 1252.949219 L 749.878906 1251.960938 L 749.070312 1252.316406 L 747.847656 1252.570312 L 746.773438 1252.558594 L 745.734375 1252.335938 L 744.15625 1251.527344 L 743.03125 1250.378906 L 742.878906 1250.160156 Z M 740.796875 1253.703125 "/>
<path style=" stroke:none;fill-rule:evenodd;fill:rgb(100%,0%,0%);fill-opacity:1;" d="M 701.15625 1220.5 L 710 1222.222656 L 711.183594 1216.308594 L 709.648438 1216.019531 L 709.3125 1217.789062 L 701.949219 1216.355469 Z M 701.15625 1220.5 "/>
<path style=" stroke:none;fill-rule:evenodd;fill:rgb(100%,0%,0%);fill-opacity:1;" d="M 636.410156 1308.304688 L 642.242188 1309.09375 L 643.714844 1298.046875 L 637.882812 1297.257812 Z M 636.410156 1308.304688 "/>
<path style=" stroke:none;fill-rule:evenodd;fill:rgb(100%,0%,0%);fill-opacity:1;" d="M 561.527344 1308.628906 L 566 1308.785156 L 566.292969 1300.378906 L 561.820312 1300.222656 Z M 561.527344 1308.628906 "/>
<path style=" stroke:none;fill-rule:evenodd;fill:rgb(100%,0%,0%);fill-opacity:1;" d="M 595.5625 1263.519531 L 596.089844 1266.464844 L 602.46875 1265.320312 L 601.941406 1262.375 Z M 595.5625 1263.519531 "/>
<path style=" stroke:none;fill-rule:evenodd;fill:rgb(100%,0%,0%);fill-opacity:1;" d="M 556.589844 1332.382812 L 560.375 1332.59375 L 560.390625 1324.589844 L 556.605469 1324.378906 Z M 556.589844 1332.382812 "/>
<path style=" stroke:none;fill-rule:evenodd;fill:rgb(100%,0%,0%);fill-opacity:1;" d="M 601.8125 1340.941406 L 613.742188 1341.808594 L 614.175781 1335.816406 L 602.246094 1334.949219 Z M 601.8125 1340.941406 "/>
<path style=" stroke:none;fill-rule:evenodd;fill:rgb(100%,0%,0%);fill-opacity:1;" d="M 676.457031 1314.507812 L 682.820312 1316.175781 L 683.699219 1312.828125 L 677.335938 1311.164062 Z M 676.457031 1314.507812 "/>
<path style=" stroke:none;fill-rule:evenodd;fill:rgb(100%,0%,0%);fill-opacity:1;" d="M 443.855469 1313.628906 L 454.675781 1317.441406 L 455.996094 1313.664062 L 445.175781 1309.851562 Z M 443.855469 1313.628906 "/>
<path style=" stroke:none;fill-rule:evenodd;fill:rgb(100%,0%,0%);fill-opacity:1;" d="M 423.804688 1273.269531 L 424.636719 1280.738281 L 428.125 1280.648438 L 427.300781 1273.191406 Z M 423.804688 1273.269531 "/>
<path style=" stroke:none;fill-rule:evenodd;fill:rgb(100%,0%,0%);fill-opacity:1;" d="M 509.46875 1303.527344 L 512.957031 1303.738281 L 513.421875 1295.890625 L 509.933594 1295.679688 Z M 509.46875 1303.527344 "/>
<path style=" stroke:none;fill-rule:evenodd;fill:rgb(100%,0%,0%);fill-opacity:1;" d="M 477.367188 1269.542969 L 479.199219 1269.890625 L 480.375 1269.367188 L 481.734375 1263.5625 L 479.765625 1262.765625 L 477.917969 1266.164062 L 477.78125 1267.632812 Z M 477.367188 1269.542969 "/>
<path style=" stroke:none;fill-rule:evenodd;fill:rgb(100%,0%,0%);fill-opacity:1;" d="M 348.488281 1101.046875 L 349.359375 1108.796875 L 353.152344 1108.382812 L 352.273438 1100.601562 Z M 348.488281 1101.046875 "/>
<path style=" stroke:none;fill-rule:evenodd;fill:rgb(100%,0%,0%);fill-opacity:1;" d="M 471.230469 1045.3125 L 471.6875 1054.316406 L 476.671875 1054.058594 L 476.207031 1045.066406 Z M 471.230469 1045.3125 "/>
<path style=" stroke:none;fill-rule:evenodd;fill:rgb(100%,0%,0%);fill-opacity:1;" d="M 468.902344 1174.480469 L 472.34375 1182.59375 L 474.941406 1181.484375 L 471.492188 1173.367188 Z M 468.902344 1174.480469 "/>
<path style=" stroke:none;fill-rule:evenodd;fill:rgb(100%,0%,0%);fill-opacity:1;" d="M 525.289062 1196.078125 L 531.257812 1196.335938 L 531.808594 1183.363281 L 525.839844 1183.117188 Z M 525.289062 1196.078125 "/>
<path style=" stroke:none;fill-rule:evenodd;fill:rgb(100%,0%,0%);fill-opacity:1;" d="M 571.496094 1138.488281 L 576.441406 1139.085938 L 577.503906 1130.148438 L 572.550781 1129.558594 L 571.632812 1137.386719 Z M 571.496094 1138.488281 "/>
<path style=" stroke:none;fill-rule:evenodd;fill:rgb(100%,0%,0%);fill-opacity:1;" d="M 595.773438 1186.707031 L 596.546875 1192.667969 L 608.109375 1191.144531 L 607.910156 1189.652344 L 608.742188 1189.277344 L 609.207031 1188.375 L 609.222656 1188.109375 L 609.078125 1187.53125 L 608.710938 1187.042969 L 608.238281 1186.753906 L 607.542969 1186.6875 L 607.339844 1185.195312 Z M 595.773438 1186.707031 "/>
<path style=" stroke:none;fill-rule:evenodd;fill:rgb(100%,0%,0%);fill-opacity:1;" d="M 636.644531 1205.339844 L 636.800781 1215.421875 L 638.066406 1215.398438 L 638.210938 1215.433594 L 638.265625 1215.554688 L 638.289062 1216.820312 L 640.410156 1216.800781 L 640.394531 1215.453125 L 640.515625 1215.367188 L 641.804688 1215.355469 L 641.652344 1205.273438 Z M 636.644531 1205.339844 "/>
<path style=" stroke:none;fill-rule:evenodd;fill:rgb(100%,0%,0%);fill-opacity:1;" d="M 666.886719 1154.171875 L 670.816406 1158.382812 L 678.753906 1150.925781 L 674.890625 1146.667969 Z M 666.886719 1154.171875 "/>
<path style=" stroke:none;fill-rule:evenodd;fill:rgb(100%,0%,0%);fill-opacity:1;" d="M 660.679688 1130.484375 L 668.65625 1132.75 L 669.824219 1128.671875 L 663.824219 1126.914062 L 664.121094 1123.78125 L 661.09375 1123.746094 Z M 660.679688 1130.484375 "/>
<path style=" stroke:none;fill-rule:evenodd;fill:rgb(100%,0%,0%);fill-opacity:1;" d="M 624.480469 1123.070312 L 624.496094 1126.292969 L 633.601562 1128.015625 L 633.585938 1123.746094 L 630.417969 1123.757812 L 630.425781 1123.058594 Z M 624.480469 1123.070312 "/>
<path style=" stroke:none;fill-rule:evenodd;fill:rgb(100%,0%,0%);fill-opacity:1;" d="M 623.648438 1010.949219 L 623.769531 1014.453125 L 631.738281 1014.175781 L 631.609375 1010.683594 Z M 623.648438 1010.949219 "/>
<path style=" stroke:none;fill-rule:evenodd;fill:rgb(100%,0%,0%);fill-opacity:1;" d="M 657.03125 992.40625 L 658.03125 995.375 L 664.359375 993.175781 L 663.359375 990.207031 Z M 657.03125 992.40625 "/>
<path style=" stroke:none;fill-rule:evenodd;fill:rgb(100%,0%,0%);fill-opacity:1;" d="M 674.417969 955.023438 L 682.707031 956.78125 L 683.417969 952.84375 L 675.128906 951.089844 Z M 674.417969 955.023438 "/>
<path style=" stroke:none;fill-rule:evenodd;fill:rgb(100%,0%,0%);fill-opacity:1;" d="M 622.296875 853.863281 L 624.167969 859.511719 L 635.484375 855.742188 L 633.609375 850.09375 Z M 622.296875 853.863281 "/>
<path style=" stroke:none;fill-rule:evenodd;fill:rgb(100%,0%,0%);fill-opacity:1;" d="M 450.480469 868.683594 L 451.539062 872.339844 L 459.914062 869.882812 L 458.859375 866.234375 Z M 450.480469 868.683594 "/>
<path style=" stroke:none;fill-rule:evenodd;fill:rgb(100%,0%,0%);fill-opacity:1;" d="M 471.429688 890.625 L 473.636719 902.597656 L 479.511719 901.507812 L 477.3125 889.535156 Z M 471.429688 890.625 "/>
<path style=" stroke:none;fill-rule:evenodd;fill:rgb(100%,0%,0%);fill-opacity:1;" d="M 478.167969 945.285156 L 482.984375 946.332031 L 485.105469 936.515625 L 484.144531 936.292969 L 484.128906 935.601562 L 483.886719 935.089844 L 483.472656 934.679688 L 482.9375 934.480469 L 482.359375 934.46875 L 481.824219 934.679688 L 481.414062 935.082031 L 481.175781 935.59375 L 480.289062 935.492188 Z M 478.167969 945.285156 "/>
<path style=" stroke:none;fill-rule:evenodd;fill:rgb(100%,0%,0%);fill-opacity:1;" d="M 505.957031 1028.402344 L 506.949219 1029.402344 L 509.492188 1029.402344 L 510.484375 1028.414062 L 510.484375 1022.398438 L 509.492188 1021.398438 L 506.949219 1021.398438 L 505.957031 1022.398438 Z M 505.957031 1028.402344 "/>
<path style=" stroke:none;fill-rule:evenodd;fill:rgb(100%,0%,0%);fill-opacity:1;" d="M 162.9375 969.097656 L 166.71875 969.320312 L 167.191406 963.207031 L 166.0625 963.160156 L 164.601562 961.28125 L 163.511719 961.25 L 163.222656 964.351562 L 164.222656 964.75 L 163.144531 966.25 Z M 162.9375 969.097656 "/>
<path style=" stroke:none;fill-rule:evenodd;fill:rgb(100%,0%,0%);fill-opacity:1;" d="M 173.96875 968.273438 L 183.636719 969.265625 L 184.050781 964.5625 L 174.503906 963.570312 Z M 173.96875 968.273438 "/>
<path style=" stroke:none;fill-rule:evenodd;fill:rgb(100%,0%,0%);fill-opacity:1;" d="M 180.027344 1011.082031 L 191.949219 1012.105469 L 192.203125 1009.117188 L 180.28125 1008.09375 Z M 180.027344 1011.082031 "/>
<path style=" stroke:none;fill-rule:evenodd;fill:rgb(100%,0%,0%);fill-opacity:1;" d="M 237.050781 1028.359375 L 244.804688 1028.902344 L 245.148438 1024.023438 L 237.398438 1023.46875 Z M 237.050781 1028.359375 "/>
<path style=" stroke:none;fill-rule:evenodd;fill:rgb(100%,0%,0%);fill-opacity:1;" d="M 285.910156 1027.714844 L 290.222656 1027.859375 L 290.796875 1019.34375 L 286.550781 1019.066406 Z M 285.910156 1027.714844 "/>
<path style=" stroke:none;fill-rule:evenodd;fill:rgb(100%,0%,0%);fill-opacity:1;" d="M 296.703125 1046.84375 L 298.917969 1058.660156 L 303.335938 1057.882812 L 301.472656 1047.300781 L 299.128906 1047.8125 L 298.863281 1046.421875 Z M 296.703125 1046.84375 "/>
<path style=" stroke:none;fill-rule:evenodd;fill:rgb(100%,0%,0%);fill-opacity:1;" d="M 282.453125 1153.515625 L 283.949219 1158.273438 L 287.757812 1157.074219 L 286.253906 1152.304688 Z M 282.453125 1153.515625 "/>
<path style=" stroke:none;fill-rule:evenodd;fill:rgb(100%,0%,0%);fill-opacity:1;" d="M 260.472656 1212.308594 L 260.722656 1214.1875 L 262.28125 1215.175781 L 263.816406 1214.933594 L 264.839844 1213.863281 L 264.921875 1212.007812 L 264.3125 1210.929688 L 263.015625 1210.398438 L 261.351562 1210.796875 Z M 260.472656 1212.308594 "/>
<path style=" stroke:none;fill-rule:evenodd;fill:rgb(100%,0%,0%);fill-opacity:1;" d="M 253.511719 1176.980469 L 254.519531 1189.042969 L 259.753906 1188.632812 L 258.519531 1176.582031 Z M 253.511719 1176.980469 "/>
<path style=" stroke:none;fill-rule:evenodd;fill:rgb(100%,0%,0%);fill-opacity:1;" d="M 226.46875 1161.074219 L 227.585938 1164.441406 L 234.453125 1162.199219 L 233.394531 1158.828125 Z M 226.46875 1161.074219 "/>
<path style=" stroke:none;fill-rule:evenodd;fill:rgb(100%,0%,0%);fill-opacity:1;" d="M 213.023438 1212.464844 L 214.152344 1215.875 L 221.257812 1213.820312 L 220.136719 1210.328125 Z M 213.023438 1212.464844 "/>
<path style=" stroke:none;fill-rule:evenodd;fill:rgb(100%,0%,0%);fill-opacity:1;" d="M 125.242188 1033.039062 L 125.304688 1041.03125 L 130.539062 1040.84375 L 130.082031 1035.726562 L 130.011719 1033.203125 Z M 125.242188 1033.039062 "/>
<path style=" stroke:none;fill-rule:evenodd;fill:rgb(100%,0%,0%);fill-opacity:1;" d="M 101.949219 1035.261719 L 103.269531 1039.550781 L 107.566406 1037.972656 L 111.558594 1035.304688 L 110.167969 1030.238281 L 106.183594 1033.195312 Z M 101.949219 1035.261719 "/>
<path style=" stroke:none;fill-rule:evenodd;fill:rgb(100%,0%,0%);fill-opacity:1;" d="M 126.433594 994.109375 L 136.90625 995.433594 L 137.507812 990.316406 L 127.097656 988.960938 Z M 126.433594 994.109375 "/>
<path style=" stroke:none;fill-rule:evenodd;fill:rgb(100%,0%,0%);fill-opacity:1;" d="M 70.75 913.136719 L 74.183594 913.714844 L 75.375 906.824219 L 71.9375 906.222656 Z M 70.75 913.136719 "/>
<path style=" stroke:none;fill-rule:evenodd;fill:rgb(100%,0%,0%);fill-opacity:1;" d="M 77.671875 873.75 L 82.480469 874.496094 L 84.113281 865.78125 L 79.042969 865.203125 Z M 77.671875 873.75 "/>
</g>
</svg>
