<?xml version="1.0" encoding="UTF-8"?>
<svg xmlns="http://www.w3.org/2000/svg" xmlns:xlink="http://www.w3.org/1999/xlink" width="1600pt" height="1600pt" viewBox="0 0 1600 1600" version="1.1">
<g id="surface45">
<path style=" stroke:none;fill-rule:evenodd;fill:rgb(50.196078%,50.196078%,50.196078%);fill-opacity:1;" d="M 73.136719 504.101562 L 81.082031 517.1875 L 84.945312 515.042969 L 87.730469 518.6875 L 93.738281 516.976562 L 105.757812 509.039062 L 102.542969 505.171875 L 106.40625 494.230469 L 93.316406 496.15625 L 86.875 500.023438 L 80.433594 499.167969 Z M 73.136719 504.101562 "/>
<path style=" stroke:none;fill-rule:evenodd;fill:rgb(50.196078%,50.196078%,50.196078%);fill-opacity:1;" d="M 829.582031 751.8125 L 844.277344 809.6875 L 849.351562 808.394531 L 834.652344 750.535156 Z M 829.582031 751.8125 "/>
<path style=" stroke:none;fill-rule:evenodd;fill:rgb(50.196078%,50.196078%,50.196078%);fill-opacity:1;" d="M 708.878906 593.128906 L 734.707031 612.195312 L 738.148438 607.527344 L 712.320312 588.472656 Z M 708.878906 593.128906 "/>
<path style=" stroke:none;fill-rule:evenodd;fill:rgb(50.196078%,50.196078%,50.196078%);fill-opacity:1;" d="M 964.394531 1206.050781 L 965.378906 1207.707031 L 1010.917969 1179.015625 L 1009.875 1177.238281 Z M 964.394531 1206.050781 "/>
<path style=" stroke:none;fill-rule:evenodd;fill:rgb(50.196078%,50.196078%,50.196078%);fill-opacity:1;" d="M 904.167969 1257.394531 L 907.386719 1258.039062 L 919.835938 1250.3125 L 919.621094 1247.957031 L 924.308594 1245.324219 L 926.246094 1246.402344 L 942.480469 1235.898438 L 941.136719 1233.527344 L 936.847656 1235.941406 L 930.75 1236.953125 L 929.484375 1235.230469 L 906.011719 1249.335938 L 907.265625 1251.824219 Z M 904.167969 1257.394531 "/>
<path style=" stroke:none;fill-rule:evenodd;fill:rgb(50.196078%,50.196078%,50.196078%);fill-opacity:1;" d="M 728.996094 1355.003906 L 730.46875 1356.992188 L 743.566406 1348.535156 L 742.460938 1346.6875 Z M 728.996094 1355.003906 "/>
</g>
</svg>
